M48
; DRILL file {KiCad (5.1.10)-1} date 10/28/21 15:53:34
; FORMAT={-:-/ absolute / metric / decimal}
; #@! TF.CreationDate,2021-10-28T15:53:34+08:00
; #@! TF.GenerationSoftware,Kicad,Pcbnew,(5.1.10)-1
; #@! TF.FileFunction,Plated,1,2,PTH
FMAT,2
METRIC
T1C0.500
T2C0.700
T3C1.000
T4C2.500
T5C3.000
%
G90
G05
T1
X149.865Y-96.96
X149.865Y-99.5
X149.865Y-102.04
X149.865Y-104.58
X149.865Y-107.12
X149.865Y-109.66
X149.865Y-112.2
X149.865Y-114.74
X149.865Y-117.28
X149.865Y-119.82
X149.865Y-122.36
X149.865Y-124.9
X149.865Y-127.44
X149.865Y-129.98
X149.865Y-132.52
X175.27Y-96.96
X175.27Y-99.5
X175.27Y-102.04
X175.27Y-104.58
X175.27Y-107.12
X175.27Y-109.66
X175.27Y-112.2
X175.27Y-114.74
X175.27Y-117.28
X175.27Y-119.82
X175.27Y-122.36
X175.27Y-124.9
X175.27Y-127.44
X175.27Y-129.98
X175.27Y-132.52
X180.59Y-123.41
X180.59Y-133.57
X185.42Y-123.41
X185.42Y-133.57
X186.339Y-98.674
X188.879Y-98.674
X191.419Y-98.674
X193.959Y-98.674
X196.499Y-98.674
X199.039Y-98.674
X212.175Y-118.4
X213.15Y-104.203
X213.15Y-106.703
X213.15Y-109.203
X214.715Y-118.4
T2
X191.32Y-131.02
X194.82Y-131.02
X207.72Y-129.52
X212.8Y-129.52
T3
X149.89Y-96.95
X149.89Y-99.49
X149.89Y-102.03
X149.89Y-104.57
X149.89Y-107.11
X149.89Y-109.65
X149.89Y-112.19
X149.89Y-114.73
X149.89Y-117.27
X149.89Y-119.81
X149.89Y-122.35
X149.89Y-124.89
X149.89Y-127.43
X149.89Y-129.97
X149.89Y-132.51
X175.28Y-96.96
X175.28Y-99.5
X175.28Y-102.04
X175.28Y-104.58
X175.28Y-107.12
X175.28Y-109.66
X175.28Y-112.2
X175.28Y-114.74
X175.28Y-117.28
X175.28Y-119.82
X175.28Y-122.36
X175.28Y-124.9
X175.28Y-127.44
X175.28Y-129.98
X175.28Y-132.52
X186.34Y-98.7
X188.88Y-98.7
X191.37Y-114.78
X191.42Y-98.7
X193.96Y-98.7
X194.87Y-114.78
X196.5Y-98.7
X199.04Y-98.7
T4
X182.91Y-98.42
X182.91Y-115.58
X203.23Y-98.42
X203.23Y-115.58
T5
X143.0Y-92.0
X143.0Y-135.0
X221.0Y-92.0
X221.0Y-135.0
T0
M30
