G04 #@! TF.GenerationSoftware,KiCad,Pcbnew,(5.1.10)-1*
G04 #@! TF.CreationDate,2022-01-04T01:44:35+08:00*
G04 #@! TF.ProjectId,Smart Hydroponic - 1,536d6172-7420-4487-9964-726f706f6e69,rev?*
G04 #@! TF.SameCoordinates,Original*
G04 #@! TF.FileFunction,Legend,Top*
G04 #@! TF.FilePolarity,Positive*
%FSLAX46Y46*%
G04 Gerber Fmt 4.6, Leading zero omitted, Abs format (unit mm)*
G04 Created by KiCad (PCBNEW (5.1.10)-1) date 2022-01-04 01:44:35*
%MOMM*%
%LPD*%
G01*
G04 APERTURE LIST*
%ADD10C,0.250000*%
%ADD11C,0.150000*%
%ADD12C,0.120000*%
%ADD13C,0.127000*%
%ADD14C,0.200000*%
%ADD15C,0.050000*%
G04 APERTURE END LIST*
D10*
X136907619Y-111482380D02*
X136574285Y-111006190D01*
X136336190Y-111482380D02*
X136336190Y-110482380D01*
X136717142Y-110482380D01*
X136812380Y-110530000D01*
X136860000Y-110577619D01*
X136907619Y-110672857D01*
X136907619Y-110815714D01*
X136860000Y-110910952D01*
X136812380Y-110958571D01*
X136717142Y-111006190D01*
X136336190Y-111006190D01*
X137764761Y-111482380D02*
X137764761Y-110958571D01*
X137717142Y-110863333D01*
X137621904Y-110815714D01*
X137431428Y-110815714D01*
X137336190Y-110863333D01*
X137764761Y-111434761D02*
X137669523Y-111482380D01*
X137431428Y-111482380D01*
X137336190Y-111434761D01*
X137288571Y-111339523D01*
X137288571Y-111244285D01*
X137336190Y-111149047D01*
X137431428Y-111101428D01*
X137669523Y-111101428D01*
X137764761Y-111053809D01*
X138193333Y-111434761D02*
X138288571Y-111482380D01*
X138479047Y-111482380D01*
X138574285Y-111434761D01*
X138621904Y-111339523D01*
X138621904Y-111291904D01*
X138574285Y-111196666D01*
X138479047Y-111149047D01*
X138336190Y-111149047D01*
X138240952Y-111101428D01*
X138193333Y-111006190D01*
X138193333Y-110958571D01*
X138240952Y-110863333D01*
X138336190Y-110815714D01*
X138479047Y-110815714D01*
X138574285Y-110863333D01*
X139050476Y-110815714D02*
X139050476Y-111815714D01*
X139050476Y-110863333D02*
X139145714Y-110815714D01*
X139336190Y-110815714D01*
X139431428Y-110863333D01*
X139479047Y-110910952D01*
X139526666Y-111006190D01*
X139526666Y-111291904D01*
X139479047Y-111387142D01*
X139431428Y-111434761D01*
X139336190Y-111482380D01*
X139145714Y-111482380D01*
X139050476Y-111434761D01*
X139955238Y-111482380D02*
X139955238Y-110482380D01*
X139955238Y-110863333D02*
X140050476Y-110815714D01*
X140240952Y-110815714D01*
X140336190Y-110863333D01*
X140383809Y-110910952D01*
X140431428Y-111006190D01*
X140431428Y-111291904D01*
X140383809Y-111387142D01*
X140336190Y-111434761D01*
X140240952Y-111482380D01*
X140050476Y-111482380D01*
X139955238Y-111434761D01*
X141240952Y-111434761D02*
X141145714Y-111482380D01*
X140955238Y-111482380D01*
X140860000Y-111434761D01*
X140812380Y-111339523D01*
X140812380Y-110958571D01*
X140860000Y-110863333D01*
X140955238Y-110815714D01*
X141145714Y-110815714D01*
X141240952Y-110863333D01*
X141288571Y-110958571D01*
X141288571Y-111053809D01*
X140812380Y-111149047D01*
X141717142Y-111482380D02*
X141717142Y-110815714D01*
X141717142Y-111006190D02*
X141764761Y-110910952D01*
X141812380Y-110863333D01*
X141907619Y-110815714D01*
X142002857Y-110815714D01*
X142336190Y-111482380D02*
X142336190Y-110815714D01*
X142336190Y-111006190D02*
X142383809Y-110910952D01*
X142431428Y-110863333D01*
X142526666Y-110815714D01*
X142621904Y-110815714D01*
X142860000Y-110815714D02*
X143098095Y-111482380D01*
X143336190Y-110815714D02*
X143098095Y-111482380D01*
X143002857Y-111720476D01*
X142955238Y-111768095D01*
X142860000Y-111815714D01*
X144479047Y-111482380D02*
X144479047Y-110482380D01*
X144860000Y-110482380D01*
X144955238Y-110530000D01*
X145002857Y-110577619D01*
X145050476Y-110672857D01*
X145050476Y-110815714D01*
X145002857Y-110910952D01*
X144955238Y-110958571D01*
X144860000Y-111006190D01*
X144479047Y-111006190D01*
X145479047Y-111482380D02*
X145479047Y-110815714D01*
X145479047Y-110482380D02*
X145431428Y-110530000D01*
X145479047Y-110577619D01*
X145526666Y-110530000D01*
X145479047Y-110482380D01*
X145479047Y-110577619D01*
X146621904Y-110482380D02*
X147288571Y-110482380D01*
X146621904Y-111482380D01*
X147288571Y-111482380D01*
X148050476Y-111434761D02*
X147955238Y-111482380D01*
X147764761Y-111482380D01*
X147669523Y-111434761D01*
X147621904Y-111339523D01*
X147621904Y-110958571D01*
X147669523Y-110863333D01*
X147764761Y-110815714D01*
X147955238Y-110815714D01*
X148050476Y-110863333D01*
X148098095Y-110958571D01*
X148098095Y-111053809D01*
X147621904Y-111149047D01*
X148526666Y-111482380D02*
X148526666Y-110815714D01*
X148526666Y-111006190D02*
X148574285Y-110910952D01*
X148621904Y-110863333D01*
X148717142Y-110815714D01*
X148812380Y-110815714D01*
X149288571Y-111482380D02*
X149193333Y-111434761D01*
X149145714Y-111387142D01*
X149098095Y-111291904D01*
X149098095Y-111006190D01*
X149145714Y-110910952D01*
X149193333Y-110863333D01*
X149288571Y-110815714D01*
X149431428Y-110815714D01*
X149526666Y-110863333D01*
X149574285Y-110910952D01*
X149621904Y-111006190D01*
X149621904Y-111291904D01*
X149574285Y-111387142D01*
X149526666Y-111434761D01*
X149431428Y-111482380D01*
X149288571Y-111482380D01*
X150717142Y-110482380D02*
X150955238Y-111482380D01*
X151145714Y-110768095D01*
X151336190Y-111482380D01*
X151574285Y-110482380D01*
X152621904Y-110815714D02*
X152859999Y-111482380D01*
X153098095Y-110815714D01*
X154002857Y-111482380D02*
X153431428Y-111482380D01*
X153717142Y-111482380D02*
X153717142Y-110482380D01*
X153621904Y-110625238D01*
X153526666Y-110720476D01*
X153431428Y-110768095D01*
X154431428Y-111387142D02*
X154479047Y-111434761D01*
X154431428Y-111482380D01*
X154383809Y-111434761D01*
X154431428Y-111387142D01*
X154431428Y-111482380D01*
X155098095Y-110482380D02*
X155193333Y-110482380D01*
X155288571Y-110530000D01*
X155336190Y-110577619D01*
X155383809Y-110672857D01*
X155431428Y-110863333D01*
X155431428Y-111101428D01*
X155383809Y-111291904D01*
X155336190Y-111387142D01*
X155288571Y-111434761D01*
X155193333Y-111482380D01*
X155098095Y-111482380D01*
X155002857Y-111434761D01*
X154955238Y-111387142D01*
X154907619Y-111291904D01*
X154859999Y-111101428D01*
X154859999Y-110863333D01*
X154907619Y-110672857D01*
X154955238Y-110577619D01*
X155002857Y-110530000D01*
X155098095Y-110482380D01*
D11*
X60000000Y-80000000D02*
X60000000Y-150000000D01*
D12*
X65240000Y-96630000D02*
X56240000Y-96630000D01*
X56240000Y-96630000D02*
X56240000Y-87430000D01*
X56240000Y-87430000D02*
X70840000Y-87430000D01*
X70840000Y-87430000D02*
X70840000Y-90230000D01*
X70840000Y-93830000D02*
X70840000Y-96630000D01*
X70840000Y-96630000D02*
X68840000Y-96630000D01*
X69340000Y-87190000D02*
X71080000Y-87190000D01*
X71080000Y-87190000D02*
X71080000Y-88930000D01*
X62520000Y-142710000D02*
X65180000Y-142710000D01*
X62520000Y-129950000D02*
X62520000Y-142710000D01*
X65180000Y-129950000D02*
X65180000Y-142710000D01*
X62520000Y-129950000D02*
X65180000Y-129950000D01*
X62520000Y-128680000D02*
X62520000Y-127350000D01*
X62520000Y-127350000D02*
X63850000Y-127350000D01*
X53940000Y-122550000D02*
X56600000Y-122550000D01*
X53940000Y-109790000D02*
X53940000Y-122550000D01*
X56600000Y-109790000D02*
X56600000Y-122550000D01*
X53940000Y-109790000D02*
X56600000Y-109790000D01*
X53940000Y-108520000D02*
X53940000Y-107190000D01*
X53940000Y-107190000D02*
X55270000Y-107190000D01*
X89940000Y-95330000D02*
X92600000Y-95330000D01*
X89940000Y-87650000D02*
X89940000Y-95330000D01*
X92600000Y-87650000D02*
X92600000Y-95330000D01*
X89940000Y-87650000D02*
X92600000Y-87650000D01*
X89940000Y-86380000D02*
X89940000Y-85050000D01*
X89940000Y-85050000D02*
X91270000Y-85050000D01*
X86440000Y-83330000D02*
X83780000Y-83330000D01*
X86440000Y-96090000D02*
X86440000Y-83330000D01*
X83780000Y-96090000D02*
X83780000Y-83330000D01*
X86440000Y-96090000D02*
X83780000Y-96090000D01*
X86440000Y-97360000D02*
X86440000Y-98690000D01*
X86440000Y-98690000D02*
X85110000Y-98690000D01*
X154515000Y-127600000D02*
X154515000Y-129110000D01*
X150814000Y-127600000D02*
X150814000Y-129110000D01*
X147544000Y-129110000D02*
X157784000Y-129110000D01*
X157784000Y-127600000D02*
X157784000Y-132241000D01*
X147544000Y-127600000D02*
X147544000Y-132241000D01*
X147544000Y-132241000D02*
X157784000Y-132241000D01*
X147544000Y-127600000D02*
X157784000Y-127600000D01*
X135886500Y-127600000D02*
X135886500Y-129110000D01*
X132185500Y-127600000D02*
X132185500Y-129110000D01*
X128915500Y-129110000D02*
X139155500Y-129110000D01*
X139155500Y-127600000D02*
X139155500Y-132241000D01*
X128915500Y-127600000D02*
X128915500Y-132241000D01*
X128915500Y-132241000D02*
X139155500Y-132241000D01*
X128915500Y-127600000D02*
X139155500Y-127600000D01*
X117258000Y-127600000D02*
X117258000Y-129110000D01*
X113557000Y-127600000D02*
X113557000Y-129110000D01*
X110287000Y-129110000D02*
X120527000Y-129110000D01*
X120527000Y-127600000D02*
X120527000Y-132241000D01*
X110287000Y-127600000D02*
X110287000Y-132241000D01*
X110287000Y-132241000D02*
X120527000Y-132241000D01*
X110287000Y-127600000D02*
X120527000Y-127600000D01*
X98629500Y-127600000D02*
X98629500Y-129110000D01*
X94928500Y-127600000D02*
X94928500Y-129110000D01*
X91658500Y-129110000D02*
X101898500Y-129110000D01*
X101898500Y-127600000D02*
X101898500Y-132241000D01*
X91658500Y-127600000D02*
X91658500Y-132241000D01*
X91658500Y-132241000D02*
X101898500Y-132241000D01*
X91658500Y-127600000D02*
X101898500Y-127600000D01*
X80001000Y-127600000D02*
X80001000Y-129110000D01*
X76300000Y-127600000D02*
X76300000Y-129110000D01*
X73030000Y-129110000D02*
X83270000Y-129110000D01*
X83270000Y-127600000D02*
X83270000Y-132241000D01*
X73030000Y-127600000D02*
X73030000Y-132241000D01*
X73030000Y-132241000D02*
X83270000Y-132241000D01*
X73030000Y-127600000D02*
X83270000Y-127600000D01*
X157744000Y-145650000D02*
X147584000Y-145650000D01*
X157744000Y-146920000D02*
X157744000Y-139300000D01*
X157744000Y-139300000D02*
X147584000Y-139300000D01*
X147584000Y-139300000D02*
X147584000Y-146920000D01*
X147584000Y-146920000D02*
X157744000Y-146920000D01*
X139115500Y-145650000D02*
X128955500Y-145650000D01*
X139115500Y-146920000D02*
X139115500Y-139300000D01*
X139115500Y-139300000D02*
X128955500Y-139300000D01*
X128955500Y-139300000D02*
X128955500Y-146920000D01*
X128955500Y-146920000D02*
X139115500Y-146920000D01*
X120487000Y-145650000D02*
X110327000Y-145650000D01*
X120487000Y-146920000D02*
X120487000Y-139300000D01*
X120487000Y-139300000D02*
X110327000Y-139300000D01*
X110327000Y-139300000D02*
X110327000Y-146920000D01*
X110327000Y-146920000D02*
X120487000Y-146920000D01*
X101858500Y-145650000D02*
X91698500Y-145650000D01*
X101858500Y-146920000D02*
X101858500Y-139300000D01*
X101858500Y-139300000D02*
X91698500Y-139300000D01*
X91698500Y-139300000D02*
X91698500Y-146920000D01*
X91698500Y-146920000D02*
X101858500Y-146920000D01*
X73070000Y-146920000D02*
X83230000Y-146920000D01*
X73070000Y-139300000D02*
X73070000Y-146920000D01*
X83230000Y-139300000D02*
X73070000Y-139300000D01*
X83230000Y-146920000D02*
X83230000Y-139300000D01*
X83230000Y-145650000D02*
X73070000Y-145650000D01*
X121546000Y-83860000D02*
X110370000Y-83860000D01*
X121580000Y-101140000D02*
X121580000Y-83868000D01*
X110372000Y-101138000D02*
X121548000Y-101138000D01*
X110372000Y-83866000D02*
X110372000Y-101138000D01*
D13*
X155840000Y-86117500D02*
X155840000Y-98182500D01*
X153300000Y-100722500D02*
X130440000Y-100722500D01*
X127900000Y-98182500D02*
X127900000Y-86117500D01*
X130440000Y-83577500D02*
X153300000Y-83577500D01*
D14*
X127068000Y-85263000D02*
G75*
G03*
X127068000Y-85263000I-100000J0D01*
G01*
D13*
X153300000Y-83577500D02*
G75*
G02*
X155840000Y-86117500I0J-2540000D01*
G01*
X127900000Y-86117500D02*
G75*
G02*
X130440000Y-83577500I2540000J0D01*
G01*
X130440000Y-100722500D02*
G75*
G02*
X127900000Y-98182500I0J2540000D01*
G01*
X155840000Y-98182500D02*
G75*
G02*
X153300000Y-100722500I-2540000J0D01*
G01*
D12*
X105820000Y-79710000D02*
X102130000Y-79710000D01*
X105820000Y-79010000D02*
X105820000Y-79710000D01*
X117240000Y-79010000D02*
X105820000Y-79010000D01*
X117240000Y-79710000D02*
X117240000Y-79010000D01*
X136470000Y-79710000D02*
X117240000Y-79710000D01*
X149070000Y-79710000D02*
X144590000Y-79710000D01*
X144590000Y-77910000D02*
X136470000Y-77910000D01*
X136470000Y-77910000D02*
X136470000Y-79710000D01*
X144590000Y-79710000D02*
X144590000Y-77910000D01*
X149070000Y-77910000D02*
X149070000Y-79710000D01*
X157190000Y-77910000D02*
X149070000Y-77910000D01*
X157190000Y-79710000D02*
X157190000Y-77910000D01*
X164190000Y-103330000D02*
X164190000Y-106770000D01*
X165390000Y-86210000D02*
X164190000Y-86210000D01*
X165390000Y-103330000D02*
X165390000Y-86210000D01*
X164190000Y-103330000D02*
X165390000Y-103330000D01*
X106170000Y-108870000D02*
X157090000Y-108870000D01*
X106170000Y-108870000D02*
X106170000Y-106270000D01*
X106170000Y-106270000D02*
X108770000Y-106270000D01*
X108770000Y-106270000D02*
X108770000Y-103670000D01*
X106170000Y-105000000D02*
X106170000Y-103670000D01*
X106170000Y-103670000D02*
X107500000Y-103670000D01*
X108770000Y-103670000D02*
X157090000Y-103670000D01*
X157090000Y-108870000D02*
X157090000Y-103670000D01*
X164190000Y-86210000D02*
X164190000Y-82770000D01*
X161130000Y-79710000D02*
X157190000Y-79710000D01*
X99070000Y-106770000D02*
X99070000Y-82770000D01*
X161130000Y-109830000D02*
X102130000Y-109830000D01*
X164190000Y-82770000D02*
G75*
G03*
X161130000Y-79710000I-3060000J0D01*
G01*
X161130000Y-109830000D02*
G75*
G03*
X164190000Y-106770000I0J3060000D01*
G01*
X99070000Y-106770000D02*
G75*
G03*
X102130000Y-109830000I3060000J0D01*
G01*
X102130000Y-79710000D02*
G75*
G03*
X99070000Y-82770000I0J-3060000D01*
G01*
X155324000Y-120390000D02*
X153674000Y-120390000D01*
X155324000Y-125590000D02*
X155324000Y-120390000D01*
X150024000Y-125590000D02*
X155324000Y-125590000D01*
X150024000Y-120390000D02*
X150024000Y-125590000D01*
X151674000Y-120390000D02*
X150024000Y-120390000D01*
X153674000Y-120390000D02*
G75*
G02*
X151674000Y-120390000I-1000000J0D01*
G01*
X136695500Y-120390000D02*
X135045500Y-120390000D01*
X136695500Y-125590000D02*
X136695500Y-120390000D01*
X131395500Y-125590000D02*
X136695500Y-125590000D01*
X131395500Y-120390000D02*
X131395500Y-125590000D01*
X133045500Y-120390000D02*
X131395500Y-120390000D01*
X135045500Y-120390000D02*
G75*
G02*
X133045500Y-120390000I-1000000J0D01*
G01*
X118067000Y-120390000D02*
X116417000Y-120390000D01*
X118067000Y-125590000D02*
X118067000Y-120390000D01*
X112767000Y-125590000D02*
X118067000Y-125590000D01*
X112767000Y-120390000D02*
X112767000Y-125590000D01*
X114417000Y-120390000D02*
X112767000Y-120390000D01*
X116417000Y-120390000D02*
G75*
G02*
X114417000Y-120390000I-1000000J0D01*
G01*
X99438500Y-120390000D02*
X97788500Y-120390000D01*
X99438500Y-125590000D02*
X99438500Y-120390000D01*
X94138500Y-125590000D02*
X99438500Y-125590000D01*
X94138500Y-120390000D02*
X94138500Y-125590000D01*
X95788500Y-120390000D02*
X94138500Y-120390000D01*
X97788500Y-120390000D02*
G75*
G02*
X95788500Y-120390000I-1000000J0D01*
G01*
X80810000Y-120390000D02*
X79160000Y-120390000D01*
X80810000Y-125590000D02*
X80810000Y-120390000D01*
X75510000Y-125590000D02*
X80810000Y-125590000D01*
X75510000Y-120390000D02*
X75510000Y-125590000D01*
X77160000Y-120390000D02*
X75510000Y-120390000D01*
X79160000Y-120390000D02*
G75*
G02*
X77160000Y-120390000I-1000000J0D01*
G01*
X161554000Y-133965000D02*
X161554000Y-133195000D01*
X161554000Y-125885000D02*
X161554000Y-126655000D01*
X162924000Y-133195000D02*
X162924000Y-126655000D01*
X160184000Y-133195000D02*
X162924000Y-133195000D01*
X160184000Y-126655000D02*
X160184000Y-133195000D01*
X162924000Y-126655000D02*
X160184000Y-126655000D01*
X144040000Y-131600000D02*
X144040000Y-132370000D01*
X144040000Y-139680000D02*
X144040000Y-138910000D01*
X142670000Y-132370000D02*
X142670000Y-138910000D01*
X145410000Y-132370000D02*
X142670000Y-132370000D01*
X145410000Y-138910000D02*
X145410000Y-132370000D01*
X142670000Y-138910000D02*
X145410000Y-138910000D01*
X148624000Y-116370000D02*
X149394000Y-116370000D01*
X156704000Y-116370000D02*
X155934000Y-116370000D01*
X149394000Y-117740000D02*
X155934000Y-117740000D01*
X149394000Y-115000000D02*
X149394000Y-117740000D01*
X155934000Y-115000000D02*
X149394000Y-115000000D01*
X155934000Y-117740000D02*
X155934000Y-115000000D01*
X144040000Y-127035000D02*
X144040000Y-126265000D01*
X144040000Y-118955000D02*
X144040000Y-119725000D01*
X145410000Y-126265000D02*
X145410000Y-119725000D01*
X142670000Y-126265000D02*
X145410000Y-126265000D01*
X142670000Y-119725000D02*
X142670000Y-126265000D01*
X145410000Y-119725000D02*
X142670000Y-119725000D01*
X125356666Y-131600000D02*
X125356666Y-132370000D01*
X125356666Y-139680000D02*
X125356666Y-138910000D01*
X123986666Y-132370000D02*
X123986666Y-138910000D01*
X126726666Y-132370000D02*
X123986666Y-132370000D01*
X126726666Y-138910000D02*
X126726666Y-132370000D01*
X123986666Y-138910000D02*
X126726666Y-138910000D01*
X138075500Y-116370000D02*
X137305500Y-116370000D01*
X129995500Y-116370000D02*
X130765500Y-116370000D01*
X137305500Y-115000000D02*
X130765500Y-115000000D01*
X137305500Y-117740000D02*
X137305500Y-115000000D01*
X130765500Y-117740000D02*
X137305500Y-117740000D01*
X130765500Y-115000000D02*
X130765500Y-117740000D01*
X125356666Y-127035000D02*
X125356666Y-126265000D01*
X125356666Y-118955000D02*
X125356666Y-119725000D01*
X126726666Y-126265000D02*
X126726666Y-119725000D01*
X123986666Y-126265000D02*
X126726666Y-126265000D01*
X123986666Y-119725000D02*
X123986666Y-126265000D01*
X126726666Y-119725000D02*
X123986666Y-119725000D01*
X106673333Y-131600000D02*
X106673333Y-132370000D01*
X106673333Y-139680000D02*
X106673333Y-138910000D01*
X105303333Y-132370000D02*
X105303333Y-138910000D01*
X108043333Y-132370000D02*
X105303333Y-132370000D01*
X108043333Y-138910000D02*
X108043333Y-132370000D01*
X105303333Y-138910000D02*
X108043333Y-138910000D01*
X119490000Y-116370000D02*
X118720000Y-116370000D01*
X111410000Y-116370000D02*
X112180000Y-116370000D01*
X118720000Y-115000000D02*
X112180000Y-115000000D01*
X118720000Y-117740000D02*
X118720000Y-115000000D01*
X112180000Y-117740000D02*
X118720000Y-117740000D01*
X112180000Y-115000000D02*
X112180000Y-117740000D01*
X106673333Y-127035000D02*
X106673333Y-126265000D01*
X106673333Y-118955000D02*
X106673333Y-119725000D01*
X108043333Y-126265000D02*
X108043333Y-119725000D01*
X105303333Y-126265000D02*
X108043333Y-126265000D01*
X105303333Y-119725000D02*
X105303333Y-126265000D01*
X108043333Y-119725000D02*
X105303333Y-119725000D01*
X87990000Y-139680000D02*
X87990000Y-138910000D01*
X87990000Y-131600000D02*
X87990000Y-132370000D01*
X89360000Y-138910000D02*
X89360000Y-132370000D01*
X86620000Y-138910000D02*
X89360000Y-138910000D01*
X86620000Y-132370000D02*
X86620000Y-138910000D01*
X89360000Y-132370000D02*
X86620000Y-132370000D01*
X100818500Y-116370000D02*
X100048500Y-116370000D01*
X92738500Y-116370000D02*
X93508500Y-116370000D01*
X100048500Y-115000000D02*
X93508500Y-115000000D01*
X100048500Y-117740000D02*
X100048500Y-115000000D01*
X93508500Y-117740000D02*
X100048500Y-117740000D01*
X93508500Y-115000000D02*
X93508500Y-117740000D01*
X87990000Y-127035000D02*
X87990000Y-126265000D01*
X87990000Y-118955000D02*
X87990000Y-119725000D01*
X89360000Y-126265000D02*
X89360000Y-119725000D01*
X86620000Y-126265000D02*
X89360000Y-126265000D01*
X86620000Y-119725000D02*
X86620000Y-126265000D01*
X89360000Y-119725000D02*
X86620000Y-119725000D01*
X68730000Y-133965000D02*
X68730000Y-133195000D01*
X68730000Y-125885000D02*
X68730000Y-126655000D01*
X70100000Y-133195000D02*
X70100000Y-126655000D01*
X67360000Y-133195000D02*
X70100000Y-133195000D01*
X67360000Y-126655000D02*
X67360000Y-133195000D01*
X70100000Y-126655000D02*
X67360000Y-126655000D01*
X82190000Y-116370000D02*
X81420000Y-116370000D01*
X74110000Y-116370000D02*
X74880000Y-116370000D01*
X81420000Y-115000000D02*
X74880000Y-115000000D01*
X81420000Y-117740000D02*
X81420000Y-115000000D01*
X74880000Y-117740000D02*
X81420000Y-117740000D01*
X74880000Y-115000000D02*
X74880000Y-117740000D01*
X162300000Y-113210000D02*
X162300000Y-115710000D01*
X164800000Y-113210000D02*
X162300000Y-113210000D01*
X164100000Y-120230000D02*
X162600000Y-120230000D01*
X164100000Y-121230000D02*
X164100000Y-120230000D01*
X164100000Y-114510000D02*
X162600000Y-114510000D01*
X164100000Y-113510000D02*
X164100000Y-114510000D01*
X164910000Y-120730000D02*
X164910000Y-121230000D01*
X166120000Y-120730000D02*
X164910000Y-120730000D01*
X166120000Y-114010000D02*
X166120000Y-120730000D01*
X164910000Y-114010000D02*
X166120000Y-114010000D01*
X164910000Y-113510000D02*
X164910000Y-114010000D01*
X166620000Y-121230000D02*
X166620000Y-113510000D01*
X162600000Y-121230000D02*
X166620000Y-121230000D01*
X162600000Y-113510000D02*
X162600000Y-121230000D01*
X166620000Y-113510000D02*
X162600000Y-113510000D01*
X79680000Y-97810000D02*
X79680000Y-95310000D01*
X77180000Y-97810000D02*
X79680000Y-97810000D01*
X77880000Y-85790000D02*
X79380000Y-85790000D01*
X77880000Y-84790000D02*
X77880000Y-85790000D01*
X77880000Y-96510000D02*
X79380000Y-96510000D01*
X77880000Y-97510000D02*
X77880000Y-96510000D01*
X77070000Y-85290000D02*
X77070000Y-84790000D01*
X75860000Y-85290000D02*
X77070000Y-85290000D01*
X75860000Y-97010000D02*
X75860000Y-85290000D01*
X77070000Y-97010000D02*
X75860000Y-97010000D01*
X77070000Y-97510000D02*
X77070000Y-97010000D01*
X75360000Y-84790000D02*
X75360000Y-97510000D01*
X79380000Y-84790000D02*
X75360000Y-84790000D01*
X79380000Y-97510000D02*
X79380000Y-84790000D01*
X75360000Y-97510000D02*
X79380000Y-97510000D01*
X89340000Y-100470000D02*
X89340000Y-102970000D01*
X91840000Y-100470000D02*
X89340000Y-100470000D01*
X91140000Y-109990000D02*
X89640000Y-109990000D01*
X91140000Y-110990000D02*
X91140000Y-109990000D01*
X91140000Y-101770000D02*
X89640000Y-101770000D01*
X91140000Y-100770000D02*
X91140000Y-101770000D01*
X91950000Y-110490000D02*
X91950000Y-110990000D01*
X93160000Y-110490000D02*
X91950000Y-110490000D01*
X93160000Y-101270000D02*
X93160000Y-110490000D01*
X91950000Y-101270000D02*
X93160000Y-101270000D01*
X91950000Y-100770000D02*
X91950000Y-101270000D01*
X93660000Y-110990000D02*
X93660000Y-100770000D01*
X89640000Y-110990000D02*
X93660000Y-110990000D01*
X89640000Y-100770000D02*
X89640000Y-110990000D01*
X93660000Y-100770000D02*
X89640000Y-100770000D01*
X78600000Y-102240000D02*
X78600000Y-104740000D01*
X81100000Y-102240000D02*
X78600000Y-102240000D01*
X80400000Y-109260000D02*
X78900000Y-109260000D01*
X80400000Y-110260000D02*
X80400000Y-109260000D01*
X80400000Y-103540000D02*
X78900000Y-103540000D01*
X80400000Y-102540000D02*
X80400000Y-103540000D01*
X81210000Y-109760000D02*
X81210000Y-110260000D01*
X82420000Y-109760000D02*
X81210000Y-109760000D01*
X82420000Y-103040000D02*
X82420000Y-109760000D01*
X81210000Y-103040000D02*
X82420000Y-103040000D01*
X81210000Y-102540000D02*
X81210000Y-103040000D01*
X82920000Y-110260000D02*
X82920000Y-102540000D01*
X78900000Y-110260000D02*
X82920000Y-110260000D01*
X78900000Y-102540000D02*
X78900000Y-110260000D01*
X82920000Y-102540000D02*
X78900000Y-102540000D01*
X63110000Y-100410000D02*
X63110000Y-100910000D01*
X63850000Y-100410000D02*
X63110000Y-100410000D01*
X66987000Y-107103000D02*
X66941000Y-107056000D01*
X69285000Y-109400000D02*
X69249000Y-109365000D01*
X66771000Y-107296000D02*
X66736000Y-107261000D01*
X69079000Y-109605000D02*
X69033000Y-109558000D01*
X73271000Y-110930000D02*
X63350000Y-110930000D01*
X73271000Y-100650000D02*
X63350000Y-100650000D01*
X63350000Y-100650000D02*
X63350000Y-110930000D01*
X73271000Y-100650000D02*
X73271000Y-110930000D01*
X70311000Y-100650000D02*
X70311000Y-110930000D01*
X65410000Y-100650000D02*
X65410000Y-110930000D01*
X63910000Y-100650000D02*
X63910000Y-110930000D01*
X69690000Y-108330000D02*
G75*
G03*
X69690000Y-108330000I-1680000J0D01*
G01*
X66329747Y-103278805D02*
G75*
G02*
X66475000Y-102566000I1680253J28805D01*
G01*
X67326958Y-101714574D02*
G75*
G02*
X68694000Y-101715000I683042J-1535426D01*
G01*
X69545426Y-102566958D02*
G75*
G02*
X69545000Y-103934000I-1535426J-683042D01*
G01*
X68693042Y-104785426D02*
G75*
G02*
X67326000Y-104785000I-683042J1535426D01*
G01*
X66475244Y-103933318D02*
G75*
G02*
X66330000Y-103250000I1534756J683318D01*
G01*
X63830000Y-114760000D02*
X63830000Y-117260000D01*
X66330000Y-114760000D02*
X63830000Y-114760000D01*
X65630000Y-121780000D02*
X64130000Y-121780000D01*
X65630000Y-122780000D02*
X65630000Y-121780000D01*
X65630000Y-116060000D02*
X64130000Y-116060000D01*
X65630000Y-115060000D02*
X65630000Y-116060000D01*
X66440000Y-122280000D02*
X66440000Y-122780000D01*
X67650000Y-122280000D02*
X66440000Y-122280000D01*
X67650000Y-115560000D02*
X67650000Y-122280000D01*
X66440000Y-115560000D02*
X67650000Y-115560000D01*
X66440000Y-115060000D02*
X66440000Y-115560000D01*
X68150000Y-122780000D02*
X68150000Y-115060000D01*
X64130000Y-122780000D02*
X68150000Y-122780000D01*
X64130000Y-115060000D02*
X64130000Y-122780000D01*
X68150000Y-115060000D02*
X64130000Y-115060000D01*
X154604000Y-137110000D02*
X154604000Y-134170000D01*
X154364000Y-137110000D02*
X154364000Y-134170000D01*
X154484000Y-137110000D02*
X154484000Y-134170000D01*
X148924000Y-135640000D02*
X149944000Y-135640000D01*
X156404000Y-135640000D02*
X155384000Y-135640000D01*
X149944000Y-137110000D02*
X155384000Y-137110000D01*
X149944000Y-134170000D02*
X149944000Y-137110000D01*
X155384000Y-134170000D02*
X149944000Y-134170000D01*
X155384000Y-137110000D02*
X155384000Y-134170000D01*
X43470000Y-132150000D02*
X43470000Y-132306000D01*
X43470000Y-129834000D02*
X43470000Y-129990000D01*
X46071130Y-132149837D02*
G75*
G02*
X43989039Y-132150000I-1041130J1079837D01*
G01*
X46071130Y-129990163D02*
G75*
G03*
X43989039Y-129990000I-1041130J-1079837D01*
G01*
X46702335Y-132148608D02*
G75*
G02*
X43470000Y-132305516I-1672335J1078608D01*
G01*
X46702335Y-129991392D02*
G75*
G03*
X43470000Y-129834484I-1672335J-1078608D01*
G01*
X135570000Y-137110000D02*
X135570000Y-134170000D01*
X135330000Y-137110000D02*
X135330000Y-134170000D01*
X135450000Y-137110000D02*
X135450000Y-134170000D01*
X129890000Y-135640000D02*
X130910000Y-135640000D01*
X137370000Y-135640000D02*
X136350000Y-135640000D01*
X130910000Y-137110000D02*
X136350000Y-137110000D01*
X130910000Y-134170000D02*
X130910000Y-137110000D01*
X136350000Y-134170000D02*
X130910000Y-134170000D01*
X136350000Y-137110000D02*
X136350000Y-134170000D01*
X43470000Y-124050000D02*
X43470000Y-124206000D01*
X43470000Y-121734000D02*
X43470000Y-121890000D01*
X46071130Y-124049837D02*
G75*
G02*
X43989039Y-124050000I-1041130J1079837D01*
G01*
X46071130Y-121890163D02*
G75*
G03*
X43989039Y-121890000I-1041130J-1079837D01*
G01*
X46702335Y-124048608D02*
G75*
G02*
X43470000Y-124205516I-1672335J1078608D01*
G01*
X46702335Y-121891392D02*
G75*
G03*
X43470000Y-121734484I-1672335J-1078608D01*
G01*
X117347000Y-137110000D02*
X117347000Y-134170000D01*
X117107000Y-137110000D02*
X117107000Y-134170000D01*
X117227000Y-137110000D02*
X117227000Y-134170000D01*
X111667000Y-135640000D02*
X112687000Y-135640000D01*
X119147000Y-135640000D02*
X118127000Y-135640000D01*
X112687000Y-137110000D02*
X118127000Y-137110000D01*
X112687000Y-134170000D02*
X112687000Y-137110000D01*
X118127000Y-134170000D02*
X112687000Y-134170000D01*
X118127000Y-137110000D02*
X118127000Y-134170000D01*
X43470000Y-115950000D02*
X43470000Y-116106000D01*
X43470000Y-113634000D02*
X43470000Y-113790000D01*
X46071130Y-115949837D02*
G75*
G02*
X43989039Y-115950000I-1041130J1079837D01*
G01*
X46071130Y-113790163D02*
G75*
G03*
X43989039Y-113790000I-1041130J-1079837D01*
G01*
X46702335Y-115948608D02*
G75*
G02*
X43470000Y-116105516I-1672335J1078608D01*
G01*
X46702335Y-113791392D02*
G75*
G03*
X43470000Y-113634484I-1672335J-1078608D01*
G01*
X98718500Y-137110000D02*
X98718500Y-134170000D01*
X98478500Y-137110000D02*
X98478500Y-134170000D01*
X98598500Y-137110000D02*
X98598500Y-134170000D01*
X93038500Y-135640000D02*
X94058500Y-135640000D01*
X100518500Y-135640000D02*
X99498500Y-135640000D01*
X94058500Y-137110000D02*
X99498500Y-137110000D01*
X94058500Y-134170000D02*
X94058500Y-137110000D01*
X99498500Y-134170000D02*
X94058500Y-134170000D01*
X99498500Y-137110000D02*
X99498500Y-134170000D01*
X43470000Y-107850000D02*
X43470000Y-108006000D01*
X43470000Y-105534000D02*
X43470000Y-105690000D01*
X46071130Y-107849837D02*
G75*
G02*
X43989039Y-107850000I-1041130J1079837D01*
G01*
X46071130Y-105690163D02*
G75*
G03*
X43989039Y-105690000I-1041130J-1079837D01*
G01*
X46702335Y-107848608D02*
G75*
G02*
X43470000Y-108005516I-1672335J1078608D01*
G01*
X46702335Y-105691392D02*
G75*
G03*
X43470000Y-105534484I-1672335J-1078608D01*
G01*
X43470000Y-99750000D02*
X43470000Y-99906000D01*
X43470000Y-97434000D02*
X43470000Y-97590000D01*
X46071130Y-99749837D02*
G75*
G02*
X43989039Y-99750000I-1041130J1079837D01*
G01*
X46071130Y-97590163D02*
G75*
G03*
X43989039Y-97590000I-1041130J-1079837D01*
G01*
X46702335Y-99748608D02*
G75*
G02*
X43470000Y-99905516I-1672335J1078608D01*
G01*
X46702335Y-97591392D02*
G75*
G03*
X43470000Y-97434484I-1672335J-1078608D01*
G01*
X80090000Y-137110000D02*
X80090000Y-134170000D01*
X79850000Y-137110000D02*
X79850000Y-134170000D01*
X79970000Y-137110000D02*
X79970000Y-134170000D01*
X74410000Y-135640000D02*
X75430000Y-135640000D01*
X81890000Y-135640000D02*
X80870000Y-135640000D01*
X75430000Y-137110000D02*
X80870000Y-137110000D01*
X75430000Y-134170000D02*
X75430000Y-137110000D01*
X80870000Y-134170000D02*
X75430000Y-134170000D01*
X80870000Y-137110000D02*
X80870000Y-134170000D01*
D11*
X60780476Y-97232380D02*
X60780476Y-97946666D01*
X60732857Y-98089523D01*
X60637619Y-98184761D01*
X60494761Y-98232380D01*
X60399523Y-98232380D01*
X61780476Y-98232380D02*
X61209047Y-98232380D01*
X61494761Y-98232380D02*
X61494761Y-97232380D01*
X61399523Y-97375238D01*
X61304285Y-97470476D01*
X61209047Y-97518095D01*
X62399523Y-97232380D02*
X62494761Y-97232380D01*
X62590000Y-97280000D01*
X62637619Y-97327619D01*
X62685238Y-97422857D01*
X62732857Y-97613333D01*
X62732857Y-97851428D01*
X62685238Y-98041904D01*
X62637619Y-98137142D01*
X62590000Y-98184761D01*
X62494761Y-98232380D01*
X62399523Y-98232380D01*
X62304285Y-98184761D01*
X62256666Y-98137142D01*
X62209047Y-98041904D01*
X62161428Y-97851428D01*
X62161428Y-97613333D01*
X62209047Y-97422857D01*
X62256666Y-97327619D01*
X62304285Y-97280000D01*
X62399523Y-97232380D01*
X63040476Y-125802380D02*
X63040476Y-126516666D01*
X62992857Y-126659523D01*
X62897619Y-126754761D01*
X62754761Y-126802380D01*
X62659523Y-126802380D01*
X64040476Y-126802380D02*
X63469047Y-126802380D01*
X63754761Y-126802380D02*
X63754761Y-125802380D01*
X63659523Y-125945238D01*
X63564285Y-126040476D01*
X63469047Y-126088095D01*
X64945238Y-125802380D02*
X64469047Y-125802380D01*
X64421428Y-126278571D01*
X64469047Y-126230952D01*
X64564285Y-126183333D01*
X64802380Y-126183333D01*
X64897619Y-126230952D01*
X64945238Y-126278571D01*
X64992857Y-126373809D01*
X64992857Y-126611904D01*
X64945238Y-126707142D01*
X64897619Y-126754761D01*
X64802380Y-126802380D01*
X64564285Y-126802380D01*
X64469047Y-126754761D01*
X64421428Y-126707142D01*
X54460476Y-105642380D02*
X54460476Y-106356666D01*
X54412857Y-106499523D01*
X54317619Y-106594761D01*
X54174761Y-106642380D01*
X54079523Y-106642380D01*
X55460476Y-106642380D02*
X54889047Y-106642380D01*
X55174761Y-106642380D02*
X55174761Y-105642380D01*
X55079523Y-105785238D01*
X54984285Y-105880476D01*
X54889047Y-105928095D01*
X56365238Y-105642380D02*
X55889047Y-105642380D01*
X55841428Y-106118571D01*
X55889047Y-106070952D01*
X55984285Y-106023333D01*
X56222380Y-106023333D01*
X56317619Y-106070952D01*
X56365238Y-106118571D01*
X56412857Y-106213809D01*
X56412857Y-106451904D01*
X56365238Y-106547142D01*
X56317619Y-106594761D01*
X56222380Y-106642380D01*
X55984285Y-106642380D01*
X55889047Y-106594761D01*
X55841428Y-106547142D01*
X90936666Y-83502380D02*
X90936666Y-84216666D01*
X90889047Y-84359523D01*
X90793809Y-84454761D01*
X90650952Y-84502380D01*
X90555714Y-84502380D01*
X91317619Y-83502380D02*
X91984285Y-83502380D01*
X91555714Y-84502380D01*
X84776666Y-99142380D02*
X84776666Y-99856666D01*
X84729047Y-99999523D01*
X84633809Y-100094761D01*
X84490952Y-100142380D01*
X84395714Y-100142380D01*
X85681428Y-99142380D02*
X85490952Y-99142380D01*
X85395714Y-99190000D01*
X85348095Y-99237619D01*
X85252857Y-99380476D01*
X85205238Y-99570952D01*
X85205238Y-99951904D01*
X85252857Y-100047142D01*
X85300476Y-100094761D01*
X85395714Y-100142380D01*
X85586190Y-100142380D01*
X85681428Y-100094761D01*
X85729047Y-100047142D01*
X85776666Y-99951904D01*
X85776666Y-99713809D01*
X85729047Y-99618571D01*
X85681428Y-99570952D01*
X85586190Y-99523333D01*
X85395714Y-99523333D01*
X85300476Y-99570952D01*
X85252857Y-99618571D01*
X85205238Y-99713809D01*
X152568761Y-127147619D02*
X152473523Y-127100000D01*
X152378285Y-127004761D01*
X152235428Y-126861904D01*
X152140190Y-126814285D01*
X152044952Y-126814285D01*
X152092571Y-127052380D02*
X151997333Y-127004761D01*
X151902095Y-126909523D01*
X151854476Y-126719047D01*
X151854476Y-126385714D01*
X151902095Y-126195238D01*
X151997333Y-126100000D01*
X152092571Y-126052380D01*
X152283047Y-126052380D01*
X152378285Y-126100000D01*
X152473523Y-126195238D01*
X152521142Y-126385714D01*
X152521142Y-126719047D01*
X152473523Y-126909523D01*
X152378285Y-127004761D01*
X152283047Y-127052380D01*
X152092571Y-127052380D01*
X153425904Y-126052380D02*
X152949714Y-126052380D01*
X152902095Y-126528571D01*
X152949714Y-126480952D01*
X153044952Y-126433333D01*
X153283047Y-126433333D01*
X153378285Y-126480952D01*
X153425904Y-126528571D01*
X153473523Y-126623809D01*
X153473523Y-126861904D01*
X153425904Y-126957142D01*
X153378285Y-127004761D01*
X153283047Y-127052380D01*
X153044952Y-127052380D01*
X152949714Y-127004761D01*
X152902095Y-126957142D01*
X133940261Y-127147619D02*
X133845023Y-127100000D01*
X133749785Y-127004761D01*
X133606928Y-126861904D01*
X133511690Y-126814285D01*
X133416452Y-126814285D01*
X133464071Y-127052380D02*
X133368833Y-127004761D01*
X133273595Y-126909523D01*
X133225976Y-126719047D01*
X133225976Y-126385714D01*
X133273595Y-126195238D01*
X133368833Y-126100000D01*
X133464071Y-126052380D01*
X133654547Y-126052380D01*
X133749785Y-126100000D01*
X133845023Y-126195238D01*
X133892642Y-126385714D01*
X133892642Y-126719047D01*
X133845023Y-126909523D01*
X133749785Y-127004761D01*
X133654547Y-127052380D01*
X133464071Y-127052380D01*
X134749785Y-126385714D02*
X134749785Y-127052380D01*
X134511690Y-126004761D02*
X134273595Y-126719047D01*
X134892642Y-126719047D01*
X115311761Y-127147619D02*
X115216523Y-127100000D01*
X115121285Y-127004761D01*
X114978428Y-126861904D01*
X114883190Y-126814285D01*
X114787952Y-126814285D01*
X114835571Y-127052380D02*
X114740333Y-127004761D01*
X114645095Y-126909523D01*
X114597476Y-126719047D01*
X114597476Y-126385714D01*
X114645095Y-126195238D01*
X114740333Y-126100000D01*
X114835571Y-126052380D01*
X115026047Y-126052380D01*
X115121285Y-126100000D01*
X115216523Y-126195238D01*
X115264142Y-126385714D01*
X115264142Y-126719047D01*
X115216523Y-126909523D01*
X115121285Y-127004761D01*
X115026047Y-127052380D01*
X114835571Y-127052380D01*
X115597476Y-126052380D02*
X116216523Y-126052380D01*
X115883190Y-126433333D01*
X116026047Y-126433333D01*
X116121285Y-126480952D01*
X116168904Y-126528571D01*
X116216523Y-126623809D01*
X116216523Y-126861904D01*
X116168904Y-126957142D01*
X116121285Y-127004761D01*
X116026047Y-127052380D01*
X115740333Y-127052380D01*
X115645095Y-127004761D01*
X115597476Y-126957142D01*
X96683261Y-127147619D02*
X96588023Y-127100000D01*
X96492785Y-127004761D01*
X96349928Y-126861904D01*
X96254690Y-126814285D01*
X96159452Y-126814285D01*
X96207071Y-127052380D02*
X96111833Y-127004761D01*
X96016595Y-126909523D01*
X95968976Y-126719047D01*
X95968976Y-126385714D01*
X96016595Y-126195238D01*
X96111833Y-126100000D01*
X96207071Y-126052380D01*
X96397547Y-126052380D01*
X96492785Y-126100000D01*
X96588023Y-126195238D01*
X96635642Y-126385714D01*
X96635642Y-126719047D01*
X96588023Y-126909523D01*
X96492785Y-127004761D01*
X96397547Y-127052380D01*
X96207071Y-127052380D01*
X97016595Y-126147619D02*
X97064214Y-126100000D01*
X97159452Y-126052380D01*
X97397547Y-126052380D01*
X97492785Y-126100000D01*
X97540404Y-126147619D01*
X97588023Y-126242857D01*
X97588023Y-126338095D01*
X97540404Y-126480952D01*
X96968976Y-127052380D01*
X97588023Y-127052380D01*
X78054761Y-127147619D02*
X77959523Y-127100000D01*
X77864285Y-127004761D01*
X77721428Y-126861904D01*
X77626190Y-126814285D01*
X77530952Y-126814285D01*
X77578571Y-127052380D02*
X77483333Y-127004761D01*
X77388095Y-126909523D01*
X77340476Y-126719047D01*
X77340476Y-126385714D01*
X77388095Y-126195238D01*
X77483333Y-126100000D01*
X77578571Y-126052380D01*
X77769047Y-126052380D01*
X77864285Y-126100000D01*
X77959523Y-126195238D01*
X78007142Y-126385714D01*
X78007142Y-126719047D01*
X77959523Y-126909523D01*
X77864285Y-127004761D01*
X77769047Y-127052380D01*
X77578571Y-127052380D01*
X78959523Y-127052380D02*
X78388095Y-127052380D01*
X78673809Y-127052380D02*
X78673809Y-126052380D01*
X78578571Y-126195238D01*
X78483333Y-126290476D01*
X78388095Y-126338095D01*
X152330666Y-137482380D02*
X152330666Y-138196666D01*
X152283047Y-138339523D01*
X152187809Y-138434761D01*
X152044952Y-138482380D01*
X151949714Y-138482380D01*
X153283047Y-137482380D02*
X152806857Y-137482380D01*
X152759238Y-137958571D01*
X152806857Y-137910952D01*
X152902095Y-137863333D01*
X153140190Y-137863333D01*
X153235428Y-137910952D01*
X153283047Y-137958571D01*
X153330666Y-138053809D01*
X153330666Y-138291904D01*
X153283047Y-138387142D01*
X153235428Y-138434761D01*
X153140190Y-138482380D01*
X152902095Y-138482380D01*
X152806857Y-138434761D01*
X152759238Y-138387142D01*
X133702166Y-137482380D02*
X133702166Y-138196666D01*
X133654547Y-138339523D01*
X133559309Y-138434761D01*
X133416452Y-138482380D01*
X133321214Y-138482380D01*
X134606928Y-137815714D02*
X134606928Y-138482380D01*
X134368833Y-137434761D02*
X134130738Y-138149047D01*
X134749785Y-138149047D01*
X115073666Y-137482380D02*
X115073666Y-138196666D01*
X115026047Y-138339523D01*
X114930809Y-138434761D01*
X114787952Y-138482380D01*
X114692714Y-138482380D01*
X115454619Y-137482380D02*
X116073666Y-137482380D01*
X115740333Y-137863333D01*
X115883190Y-137863333D01*
X115978428Y-137910952D01*
X116026047Y-137958571D01*
X116073666Y-138053809D01*
X116073666Y-138291904D01*
X116026047Y-138387142D01*
X115978428Y-138434761D01*
X115883190Y-138482380D01*
X115597476Y-138482380D01*
X115502238Y-138434761D01*
X115454619Y-138387142D01*
X96445166Y-137482380D02*
X96445166Y-138196666D01*
X96397547Y-138339523D01*
X96302309Y-138434761D01*
X96159452Y-138482380D01*
X96064214Y-138482380D01*
X96873738Y-137577619D02*
X96921357Y-137530000D01*
X97016595Y-137482380D01*
X97254690Y-137482380D01*
X97349928Y-137530000D01*
X97397547Y-137577619D01*
X97445166Y-137672857D01*
X97445166Y-137768095D01*
X97397547Y-137910952D01*
X96826119Y-138482380D01*
X97445166Y-138482380D01*
X77816666Y-137482380D02*
X77816666Y-138196666D01*
X77769047Y-138339523D01*
X77673809Y-138434761D01*
X77530952Y-138482380D01*
X77435714Y-138482380D01*
X78816666Y-138482380D02*
X78245238Y-138482380D01*
X78530952Y-138482380D02*
X78530952Y-137482380D01*
X78435714Y-137625238D01*
X78340476Y-137720476D01*
X78245238Y-137768095D01*
X116304380Y-93131904D02*
X117113904Y-93131904D01*
X117209142Y-93084285D01*
X117256761Y-93036666D01*
X117304380Y-92941428D01*
X117304380Y-92750952D01*
X117256761Y-92655714D01*
X117209142Y-92608095D01*
X117113904Y-92560476D01*
X116304380Y-92560476D01*
X116732952Y-91941428D02*
X116685333Y-92036666D01*
X116637714Y-92084285D01*
X116542476Y-92131904D01*
X116494857Y-92131904D01*
X116399619Y-92084285D01*
X116352000Y-92036666D01*
X116304380Y-91941428D01*
X116304380Y-91750952D01*
X116352000Y-91655714D01*
X116399619Y-91608095D01*
X116494857Y-91560476D01*
X116542476Y-91560476D01*
X116637714Y-91608095D01*
X116685333Y-91655714D01*
X116732952Y-91750952D01*
X116732952Y-91941428D01*
X116780571Y-92036666D01*
X116828190Y-92084285D01*
X116923428Y-92131904D01*
X117113904Y-92131904D01*
X117209142Y-92084285D01*
X117256761Y-92036666D01*
X117304380Y-91941428D01*
X117304380Y-91750952D01*
X117256761Y-91655714D01*
X117209142Y-91608095D01*
X117113904Y-91560476D01*
X116923428Y-91560476D01*
X116828190Y-91608095D01*
X116780571Y-91655714D01*
X116732952Y-91750952D01*
D15*
X151268095Y-102397380D02*
X151268095Y-103206904D01*
X151315714Y-103302142D01*
X151363333Y-103349761D01*
X151458571Y-103397380D01*
X151649047Y-103397380D01*
X151744285Y-103349761D01*
X151791904Y-103302142D01*
X151839523Y-103206904D01*
X151839523Y-102397380D01*
X152220476Y-102397380D02*
X152887142Y-102397380D01*
X152458571Y-103397380D01*
X147704523Y-80807380D02*
X148371190Y-80807380D01*
X147704523Y-81807380D01*
X148371190Y-81807380D01*
X149323571Y-81712142D02*
X149275952Y-81759761D01*
X149133095Y-81807380D01*
X149037857Y-81807380D01*
X148895000Y-81759761D01*
X148799761Y-81664523D01*
X148752142Y-81569285D01*
X148704523Y-81378809D01*
X148704523Y-81235952D01*
X148752142Y-81045476D01*
X148799761Y-80950238D01*
X148895000Y-80855000D01*
X149037857Y-80807380D01*
X149133095Y-80807380D01*
X149275952Y-80855000D01*
X149323571Y-80902619D01*
X149704523Y-80902619D02*
X149752142Y-80855000D01*
X149847380Y-80807380D01*
X150085476Y-80807380D01*
X150180714Y-80855000D01*
X150228333Y-80902619D01*
X150275952Y-80997857D01*
X150275952Y-81093095D01*
X150228333Y-81235952D01*
X149656904Y-81807380D01*
X150275952Y-81807380D01*
X151133095Y-80807380D02*
X150942619Y-80807380D01*
X150847380Y-80855000D01*
X150799761Y-80902619D01*
X150704523Y-81045476D01*
X150656904Y-81235952D01*
X150656904Y-81616904D01*
X150704523Y-81712142D01*
X150752142Y-81759761D01*
X150847380Y-81807380D01*
X151037857Y-81807380D01*
X151133095Y-81759761D01*
X151180714Y-81712142D01*
X151228333Y-81616904D01*
X151228333Y-81378809D01*
X151180714Y-81283571D01*
X151133095Y-81235952D01*
X151037857Y-81188333D01*
X150847380Y-81188333D01*
X150752142Y-81235952D01*
X150704523Y-81283571D01*
X150656904Y-81378809D01*
X152180714Y-81807380D02*
X151609285Y-81807380D01*
X151895000Y-81807380D02*
X151895000Y-80807380D01*
X151799761Y-80950238D01*
X151704523Y-81045476D01*
X151609285Y-81093095D01*
X153085476Y-80807380D02*
X152609285Y-80807380D01*
X152561666Y-81283571D01*
X152609285Y-81235952D01*
X152704523Y-81188333D01*
X152942619Y-81188333D01*
X153037857Y-81235952D01*
X153085476Y-81283571D01*
X153133095Y-81378809D01*
X153133095Y-81616904D01*
X153085476Y-81712142D01*
X153037857Y-81759761D01*
X152942619Y-81807380D01*
X152704523Y-81807380D01*
X152609285Y-81759761D01*
X152561666Y-81712142D01*
X153752142Y-80807380D02*
X153847380Y-80807380D01*
X153942619Y-80855000D01*
X153990238Y-80902619D01*
X154037857Y-80997857D01*
X154085476Y-81188333D01*
X154085476Y-81426428D01*
X154037857Y-81616904D01*
X153990238Y-81712142D01*
X153942619Y-81759761D01*
X153847380Y-81807380D01*
X153752142Y-81807380D01*
X153656904Y-81759761D01*
X153609285Y-81712142D01*
X153561666Y-81616904D01*
X153514047Y-81426428D01*
X153514047Y-81188333D01*
X153561666Y-80997857D01*
X153609285Y-80902619D01*
X153656904Y-80855000D01*
X153752142Y-80807380D01*
X154704523Y-80807380D02*
X154799761Y-80807380D01*
X154895000Y-80855000D01*
X154942619Y-80902619D01*
X154990238Y-80997857D01*
X155037857Y-81188333D01*
X155037857Y-81426428D01*
X154990238Y-81616904D01*
X154942619Y-81712142D01*
X154895000Y-81759761D01*
X154799761Y-81807380D01*
X154704523Y-81807380D01*
X154609285Y-81759761D01*
X154561666Y-81712142D01*
X154514047Y-81616904D01*
X154466428Y-81426428D01*
X154466428Y-81188333D01*
X154514047Y-80997857D01*
X154561666Y-80902619D01*
X154609285Y-80855000D01*
X154704523Y-80807380D01*
D11*
X130868095Y-110722380D02*
X130868095Y-111531904D01*
X130915714Y-111627142D01*
X130963333Y-111674761D01*
X131058571Y-111722380D01*
X131249047Y-111722380D01*
X131344285Y-111674761D01*
X131391904Y-111627142D01*
X131439523Y-111531904D01*
X131439523Y-110722380D01*
X132344285Y-110722380D02*
X132153809Y-110722380D01*
X132058571Y-110770000D01*
X132010952Y-110817619D01*
X131915714Y-110960476D01*
X131868095Y-111150952D01*
X131868095Y-111531904D01*
X131915714Y-111627142D01*
X131963333Y-111674761D01*
X132058571Y-111722380D01*
X132249047Y-111722380D01*
X132344285Y-111674761D01*
X132391904Y-111627142D01*
X132439523Y-111531904D01*
X132439523Y-111293809D01*
X132391904Y-111198571D01*
X132344285Y-111150952D01*
X132249047Y-111103333D01*
X132058571Y-111103333D01*
X131963333Y-111150952D01*
X131915714Y-111198571D01*
X131868095Y-111293809D01*
X151912095Y-118842380D02*
X151912095Y-119651904D01*
X151959714Y-119747142D01*
X152007333Y-119794761D01*
X152102571Y-119842380D01*
X152293047Y-119842380D01*
X152388285Y-119794761D01*
X152435904Y-119747142D01*
X152483523Y-119651904D01*
X152483523Y-118842380D01*
X153435904Y-118842380D02*
X152959714Y-118842380D01*
X152912095Y-119318571D01*
X152959714Y-119270952D01*
X153054952Y-119223333D01*
X153293047Y-119223333D01*
X153388285Y-119270952D01*
X153435904Y-119318571D01*
X153483523Y-119413809D01*
X153483523Y-119651904D01*
X153435904Y-119747142D01*
X153388285Y-119794761D01*
X153293047Y-119842380D01*
X153054952Y-119842380D01*
X152959714Y-119794761D01*
X152912095Y-119747142D01*
X133283595Y-118842380D02*
X133283595Y-119651904D01*
X133331214Y-119747142D01*
X133378833Y-119794761D01*
X133474071Y-119842380D01*
X133664547Y-119842380D01*
X133759785Y-119794761D01*
X133807404Y-119747142D01*
X133855023Y-119651904D01*
X133855023Y-118842380D01*
X134759785Y-119175714D02*
X134759785Y-119842380D01*
X134521690Y-118794761D02*
X134283595Y-119509047D01*
X134902642Y-119509047D01*
X114655095Y-118842380D02*
X114655095Y-119651904D01*
X114702714Y-119747142D01*
X114750333Y-119794761D01*
X114845571Y-119842380D01*
X115036047Y-119842380D01*
X115131285Y-119794761D01*
X115178904Y-119747142D01*
X115226523Y-119651904D01*
X115226523Y-118842380D01*
X115607476Y-118842380D02*
X116226523Y-118842380D01*
X115893190Y-119223333D01*
X116036047Y-119223333D01*
X116131285Y-119270952D01*
X116178904Y-119318571D01*
X116226523Y-119413809D01*
X116226523Y-119651904D01*
X116178904Y-119747142D01*
X116131285Y-119794761D01*
X116036047Y-119842380D01*
X115750333Y-119842380D01*
X115655095Y-119794761D01*
X115607476Y-119747142D01*
X96026595Y-118842380D02*
X96026595Y-119651904D01*
X96074214Y-119747142D01*
X96121833Y-119794761D01*
X96217071Y-119842380D01*
X96407547Y-119842380D01*
X96502785Y-119794761D01*
X96550404Y-119747142D01*
X96598023Y-119651904D01*
X96598023Y-118842380D01*
X97026595Y-118937619D02*
X97074214Y-118890000D01*
X97169452Y-118842380D01*
X97407547Y-118842380D01*
X97502785Y-118890000D01*
X97550404Y-118937619D01*
X97598023Y-119032857D01*
X97598023Y-119128095D01*
X97550404Y-119270952D01*
X96978976Y-119842380D01*
X97598023Y-119842380D01*
X77398095Y-118842380D02*
X77398095Y-119651904D01*
X77445714Y-119747142D01*
X77493333Y-119794761D01*
X77588571Y-119842380D01*
X77779047Y-119842380D01*
X77874285Y-119794761D01*
X77921904Y-119747142D01*
X77969523Y-119651904D01*
X77969523Y-118842380D01*
X78969523Y-119842380D02*
X78398095Y-119842380D01*
X78683809Y-119842380D02*
X78683809Y-118842380D01*
X78588571Y-118985238D01*
X78493333Y-119080476D01*
X78398095Y-119128095D01*
X159466380Y-130821857D02*
X158990190Y-131155190D01*
X159466380Y-131393285D02*
X158466380Y-131393285D01*
X158466380Y-131012333D01*
X158514000Y-130917095D01*
X158561619Y-130869476D01*
X158656857Y-130821857D01*
X158799714Y-130821857D01*
X158894952Y-130869476D01*
X158942571Y-130917095D01*
X158990190Y-131012333D01*
X158990190Y-131393285D01*
X159466380Y-129869476D02*
X159466380Y-130440904D01*
X159466380Y-130155190D02*
X158466380Y-130155190D01*
X158609238Y-130250428D01*
X158704476Y-130345666D01*
X158752095Y-130440904D01*
X158466380Y-128964714D02*
X158466380Y-129440904D01*
X158942571Y-129488523D01*
X158894952Y-129440904D01*
X158847333Y-129345666D01*
X158847333Y-129107571D01*
X158894952Y-129012333D01*
X158942571Y-128964714D01*
X159037809Y-128917095D01*
X159275904Y-128917095D01*
X159371142Y-128964714D01*
X159418761Y-129012333D01*
X159466380Y-129107571D01*
X159466380Y-129345666D01*
X159418761Y-129440904D01*
X159371142Y-129488523D01*
X142122380Y-136282857D02*
X141646190Y-136616190D01*
X142122380Y-136854285D02*
X141122380Y-136854285D01*
X141122380Y-136473333D01*
X141170000Y-136378095D01*
X141217619Y-136330476D01*
X141312857Y-136282857D01*
X141455714Y-136282857D01*
X141550952Y-136330476D01*
X141598571Y-136378095D01*
X141646190Y-136473333D01*
X141646190Y-136854285D01*
X142122380Y-135330476D02*
X142122380Y-135901904D01*
X142122380Y-135616190D02*
X141122380Y-135616190D01*
X141265238Y-135711428D01*
X141360476Y-135806666D01*
X141408095Y-135901904D01*
X141455714Y-134473333D02*
X142122380Y-134473333D01*
X141074761Y-134711428D02*
X141789047Y-134949523D01*
X141789047Y-134330476D01*
X152021142Y-114282380D02*
X151687809Y-113806190D01*
X151449714Y-114282380D02*
X151449714Y-113282380D01*
X151830666Y-113282380D01*
X151925904Y-113330000D01*
X151973523Y-113377619D01*
X152021142Y-113472857D01*
X152021142Y-113615714D01*
X151973523Y-113710952D01*
X151925904Y-113758571D01*
X151830666Y-113806190D01*
X151449714Y-113806190D01*
X152973523Y-114282380D02*
X152402095Y-114282380D01*
X152687809Y-114282380D02*
X152687809Y-113282380D01*
X152592571Y-113425238D01*
X152497333Y-113520476D01*
X152402095Y-113568095D01*
X153306857Y-113282380D02*
X153925904Y-113282380D01*
X153592571Y-113663333D01*
X153735428Y-113663333D01*
X153830666Y-113710952D01*
X153878285Y-113758571D01*
X153925904Y-113853809D01*
X153925904Y-114091904D01*
X153878285Y-114187142D01*
X153830666Y-114234761D01*
X153735428Y-114282380D01*
X153449714Y-114282380D01*
X153354476Y-114234761D01*
X153306857Y-114187142D01*
X141952380Y-123637857D02*
X141476190Y-123971190D01*
X141952380Y-124209285D02*
X140952380Y-124209285D01*
X140952380Y-123828333D01*
X141000000Y-123733095D01*
X141047619Y-123685476D01*
X141142857Y-123637857D01*
X141285714Y-123637857D01*
X141380952Y-123685476D01*
X141428571Y-123733095D01*
X141476190Y-123828333D01*
X141476190Y-124209285D01*
X141952380Y-122685476D02*
X141952380Y-123256904D01*
X141952380Y-122971190D02*
X140952380Y-122971190D01*
X141095238Y-123066428D01*
X141190476Y-123161666D01*
X141238095Y-123256904D01*
X141047619Y-122304523D02*
X141000000Y-122256904D01*
X140952380Y-122161666D01*
X140952380Y-121923571D01*
X141000000Y-121828333D01*
X141047619Y-121780714D01*
X141142857Y-121733095D01*
X141238095Y-121733095D01*
X141380952Y-121780714D01*
X141952380Y-122352142D01*
X141952380Y-121733095D01*
X123439046Y-136282857D02*
X122962856Y-136616190D01*
X123439046Y-136854285D02*
X122439046Y-136854285D01*
X122439046Y-136473333D01*
X122486666Y-136378095D01*
X122534285Y-136330476D01*
X122629523Y-136282857D01*
X122772380Y-136282857D01*
X122867618Y-136330476D01*
X122915237Y-136378095D01*
X122962856Y-136473333D01*
X122962856Y-136854285D01*
X123439046Y-135330476D02*
X123439046Y-135901904D01*
X123439046Y-135616190D02*
X122439046Y-135616190D01*
X122581904Y-135711428D01*
X122677142Y-135806666D01*
X122724761Y-135901904D01*
X123439046Y-134378095D02*
X123439046Y-134949523D01*
X123439046Y-134663809D02*
X122439046Y-134663809D01*
X122581904Y-134759047D01*
X122677142Y-134854285D01*
X122724761Y-134949523D01*
X133392642Y-114452380D02*
X133059309Y-113976190D01*
X132821214Y-114452380D02*
X132821214Y-113452380D01*
X133202166Y-113452380D01*
X133297404Y-113500000D01*
X133345023Y-113547619D01*
X133392642Y-113642857D01*
X133392642Y-113785714D01*
X133345023Y-113880952D01*
X133297404Y-113928571D01*
X133202166Y-113976190D01*
X132821214Y-113976190D01*
X134345023Y-114452380D02*
X133773595Y-114452380D01*
X134059309Y-114452380D02*
X134059309Y-113452380D01*
X133964071Y-113595238D01*
X133868833Y-113690476D01*
X133773595Y-113738095D01*
X134964071Y-113452380D02*
X135059309Y-113452380D01*
X135154547Y-113500000D01*
X135202166Y-113547619D01*
X135249785Y-113642857D01*
X135297404Y-113833333D01*
X135297404Y-114071428D01*
X135249785Y-114261904D01*
X135202166Y-114357142D01*
X135154547Y-114404761D01*
X135059309Y-114452380D01*
X134964071Y-114452380D01*
X134868833Y-114404761D01*
X134821214Y-114357142D01*
X134773595Y-114261904D01*
X134725976Y-114071428D01*
X134725976Y-113833333D01*
X134773595Y-113642857D01*
X134821214Y-113547619D01*
X134868833Y-113500000D01*
X134964071Y-113452380D01*
X123523046Y-123161666D02*
X123046856Y-123495000D01*
X123523046Y-123733095D02*
X122523046Y-123733095D01*
X122523046Y-123352142D01*
X122570666Y-123256904D01*
X122618285Y-123209285D01*
X122713523Y-123161666D01*
X122856380Y-123161666D01*
X122951618Y-123209285D01*
X122999237Y-123256904D01*
X123046856Y-123352142D01*
X123046856Y-123733095D01*
X123523046Y-122685476D02*
X123523046Y-122495000D01*
X123475427Y-122399761D01*
X123427808Y-122352142D01*
X123284951Y-122256904D01*
X123094475Y-122209285D01*
X122713523Y-122209285D01*
X122618285Y-122256904D01*
X122570666Y-122304523D01*
X122523046Y-122399761D01*
X122523046Y-122590238D01*
X122570666Y-122685476D01*
X122618285Y-122733095D01*
X122713523Y-122780714D01*
X122951618Y-122780714D01*
X123046856Y-122733095D01*
X123094475Y-122685476D01*
X123142094Y-122590238D01*
X123142094Y-122399761D01*
X123094475Y-122304523D01*
X123046856Y-122256904D01*
X122951618Y-122209285D01*
X104755713Y-135806666D02*
X104279523Y-136140000D01*
X104755713Y-136378095D02*
X103755713Y-136378095D01*
X103755713Y-135997142D01*
X103803333Y-135901904D01*
X103850952Y-135854285D01*
X103946190Y-135806666D01*
X104089047Y-135806666D01*
X104184285Y-135854285D01*
X104231904Y-135901904D01*
X104279523Y-135997142D01*
X104279523Y-136378095D01*
X104184285Y-135235238D02*
X104136666Y-135330476D01*
X104089047Y-135378095D01*
X103993809Y-135425714D01*
X103946190Y-135425714D01*
X103850952Y-135378095D01*
X103803333Y-135330476D01*
X103755713Y-135235238D01*
X103755713Y-135044761D01*
X103803333Y-134949523D01*
X103850952Y-134901904D01*
X103946190Y-134854285D01*
X103993809Y-134854285D01*
X104089047Y-134901904D01*
X104136666Y-134949523D01*
X104184285Y-135044761D01*
X104184285Y-135235238D01*
X104231904Y-135330476D01*
X104279523Y-135378095D01*
X104374761Y-135425714D01*
X104565237Y-135425714D01*
X104660475Y-135378095D01*
X104708094Y-135330476D01*
X104755713Y-135235238D01*
X104755713Y-135044761D01*
X104708094Y-134949523D01*
X104660475Y-134901904D01*
X104565237Y-134854285D01*
X104374761Y-134854285D01*
X104279523Y-134901904D01*
X104231904Y-134949523D01*
X104184285Y-135044761D01*
X115283333Y-113522380D02*
X114950000Y-113046190D01*
X114711904Y-113522380D02*
X114711904Y-112522380D01*
X115092857Y-112522380D01*
X115188095Y-112570000D01*
X115235714Y-112617619D01*
X115283333Y-112712857D01*
X115283333Y-112855714D01*
X115235714Y-112950952D01*
X115188095Y-112998571D01*
X115092857Y-113046190D01*
X114711904Y-113046190D01*
X115616666Y-112522380D02*
X116283333Y-112522380D01*
X115854761Y-113522380D01*
X104839713Y-123161666D02*
X104363523Y-123495000D01*
X104839713Y-123733095D02*
X103839713Y-123733095D01*
X103839713Y-123352142D01*
X103887333Y-123256904D01*
X103934952Y-123209285D01*
X104030190Y-123161666D01*
X104173047Y-123161666D01*
X104268285Y-123209285D01*
X104315904Y-123256904D01*
X104363523Y-123352142D01*
X104363523Y-123733095D01*
X103839713Y-122304523D02*
X103839713Y-122495000D01*
X103887333Y-122590238D01*
X103934952Y-122637857D01*
X104077809Y-122733095D01*
X104268285Y-122780714D01*
X104649237Y-122780714D01*
X104744475Y-122733095D01*
X104792094Y-122685476D01*
X104839713Y-122590238D01*
X104839713Y-122399761D01*
X104792094Y-122304523D01*
X104744475Y-122256904D01*
X104649237Y-122209285D01*
X104411142Y-122209285D01*
X104315904Y-122256904D01*
X104268285Y-122304523D01*
X104220666Y-122399761D01*
X104220666Y-122590238D01*
X104268285Y-122685476D01*
X104315904Y-122733095D01*
X104411142Y-122780714D01*
X86156380Y-135806666D02*
X85680190Y-136140000D01*
X86156380Y-136378095D02*
X85156380Y-136378095D01*
X85156380Y-135997142D01*
X85204000Y-135901904D01*
X85251619Y-135854285D01*
X85346857Y-135806666D01*
X85489714Y-135806666D01*
X85584952Y-135854285D01*
X85632571Y-135901904D01*
X85680190Y-135997142D01*
X85680190Y-136378095D01*
X85156380Y-134901904D02*
X85156380Y-135378095D01*
X85632571Y-135425714D01*
X85584952Y-135378095D01*
X85537333Y-135282857D01*
X85537333Y-135044761D01*
X85584952Y-134949523D01*
X85632571Y-134901904D01*
X85727809Y-134854285D01*
X85965904Y-134854285D01*
X86061142Y-134901904D01*
X86108761Y-134949523D01*
X86156380Y-135044761D01*
X86156380Y-135282857D01*
X86108761Y-135378095D01*
X86061142Y-135425714D01*
X96611833Y-114452380D02*
X96278500Y-113976190D01*
X96040404Y-114452380D02*
X96040404Y-113452380D01*
X96421357Y-113452380D01*
X96516595Y-113500000D01*
X96564214Y-113547619D01*
X96611833Y-113642857D01*
X96611833Y-113785714D01*
X96564214Y-113880952D01*
X96516595Y-113928571D01*
X96421357Y-113976190D01*
X96040404Y-113976190D01*
X97468976Y-113785714D02*
X97468976Y-114452380D01*
X97230880Y-113404761D02*
X96992785Y-114119047D01*
X97611833Y-114119047D01*
X86156380Y-123185666D02*
X85680190Y-123519000D01*
X86156380Y-123757095D02*
X85156380Y-123757095D01*
X85156380Y-123376142D01*
X85204000Y-123280904D01*
X85251619Y-123233285D01*
X85346857Y-123185666D01*
X85489714Y-123185666D01*
X85584952Y-123233285D01*
X85632571Y-123280904D01*
X85680190Y-123376142D01*
X85680190Y-123757095D01*
X85156380Y-122852333D02*
X85156380Y-122233285D01*
X85537333Y-122566619D01*
X85537333Y-122423761D01*
X85584952Y-122328523D01*
X85632571Y-122280904D01*
X85727809Y-122233285D01*
X85965904Y-122233285D01*
X86061142Y-122280904D01*
X86108761Y-122328523D01*
X86156380Y-122423761D01*
X86156380Y-122709476D01*
X86108761Y-122804714D01*
X86061142Y-122852333D01*
X71976380Y-130321666D02*
X71500190Y-130655000D01*
X71976380Y-130893095D02*
X70976380Y-130893095D01*
X70976380Y-130512142D01*
X71024000Y-130416904D01*
X71071619Y-130369285D01*
X71166857Y-130321666D01*
X71309714Y-130321666D01*
X71404952Y-130369285D01*
X71452571Y-130416904D01*
X71500190Y-130512142D01*
X71500190Y-130893095D01*
X71071619Y-129940714D02*
X71024000Y-129893095D01*
X70976380Y-129797857D01*
X70976380Y-129559761D01*
X71024000Y-129464523D01*
X71071619Y-129416904D01*
X71166857Y-129369285D01*
X71262095Y-129369285D01*
X71404952Y-129416904D01*
X71976380Y-129988333D01*
X71976380Y-129369285D01*
X78353333Y-113762380D02*
X78020000Y-113286190D01*
X77781904Y-113762380D02*
X77781904Y-112762380D01*
X78162857Y-112762380D01*
X78258095Y-112810000D01*
X78305714Y-112857619D01*
X78353333Y-112952857D01*
X78353333Y-113095714D01*
X78305714Y-113190952D01*
X78258095Y-113238571D01*
X78162857Y-113286190D01*
X77781904Y-113286190D01*
X79305714Y-113762380D02*
X78734285Y-113762380D01*
X79020000Y-113762380D02*
X79020000Y-112762380D01*
X78924761Y-112905238D01*
X78829523Y-113000476D01*
X78734285Y-113048095D01*
X167162380Y-118179523D02*
X167876666Y-118179523D01*
X168019523Y-118227142D01*
X168114761Y-118322380D01*
X168162380Y-118465238D01*
X168162380Y-118560476D01*
X168162380Y-117179523D02*
X168162380Y-117750952D01*
X168162380Y-117465238D02*
X167162380Y-117465238D01*
X167305238Y-117560476D01*
X167400476Y-117655714D01*
X167448095Y-117750952D01*
X167495714Y-116322380D02*
X168162380Y-116322380D01*
X167114761Y-116560476D02*
X167829047Y-116798571D01*
X167829047Y-116179523D01*
X73722380Y-91959523D02*
X74436666Y-91959523D01*
X74579523Y-92007142D01*
X74674761Y-92102380D01*
X74722380Y-92245238D01*
X74722380Y-92340476D01*
X74722380Y-90959523D02*
X74722380Y-91530952D01*
X74722380Y-91245238D02*
X73722380Y-91245238D01*
X73865238Y-91340476D01*
X73960476Y-91435714D01*
X74008095Y-91530952D01*
X73722380Y-90626190D02*
X73722380Y-90007142D01*
X74103333Y-90340476D01*
X74103333Y-90197619D01*
X74150952Y-90102380D01*
X74198571Y-90054761D01*
X74293809Y-90007142D01*
X74531904Y-90007142D01*
X74627142Y-90054761D01*
X74674761Y-90102380D01*
X74722380Y-90197619D01*
X74722380Y-90483333D01*
X74674761Y-90578571D01*
X74627142Y-90626190D01*
X94202380Y-106689523D02*
X94916666Y-106689523D01*
X95059523Y-106737142D01*
X95154761Y-106832380D01*
X95202380Y-106975238D01*
X95202380Y-107070476D01*
X95202380Y-105689523D02*
X95202380Y-106260952D01*
X95202380Y-105975238D02*
X94202380Y-105975238D01*
X94345238Y-106070476D01*
X94440476Y-106165714D01*
X94488095Y-106260952D01*
X94297619Y-105308571D02*
X94250000Y-105260952D01*
X94202380Y-105165714D01*
X94202380Y-104927619D01*
X94250000Y-104832380D01*
X94297619Y-104784761D01*
X94392857Y-104737142D01*
X94488095Y-104737142D01*
X94630952Y-104784761D01*
X95202380Y-105356190D01*
X95202380Y-104737142D01*
X83462380Y-107209523D02*
X84176666Y-107209523D01*
X84319523Y-107257142D01*
X84414761Y-107352380D01*
X84462380Y-107495238D01*
X84462380Y-107590476D01*
X84462380Y-106209523D02*
X84462380Y-106780952D01*
X84462380Y-106495238D02*
X83462380Y-106495238D01*
X83605238Y-106590476D01*
X83700476Y-106685714D01*
X83748095Y-106780952D01*
X84462380Y-105257142D02*
X84462380Y-105828571D01*
X84462380Y-105542857D02*
X83462380Y-105542857D01*
X83605238Y-105638095D01*
X83700476Y-105733333D01*
X83748095Y-105828571D01*
X73722380Y-106123333D02*
X74436666Y-106123333D01*
X74579523Y-106170952D01*
X74674761Y-106266190D01*
X74722380Y-106409047D01*
X74722380Y-106504285D01*
X74722380Y-105599523D02*
X74722380Y-105409047D01*
X74674761Y-105313809D01*
X74627142Y-105266190D01*
X74484285Y-105170952D01*
X74293809Y-105123333D01*
X73912857Y-105123333D01*
X73817619Y-105170952D01*
X73770000Y-105218571D01*
X73722380Y-105313809D01*
X73722380Y-105504285D01*
X73770000Y-105599523D01*
X73817619Y-105647142D01*
X73912857Y-105694761D01*
X74150952Y-105694761D01*
X74246190Y-105647142D01*
X74293809Y-105599523D01*
X74341428Y-105504285D01*
X74341428Y-105313809D01*
X74293809Y-105218571D01*
X74246190Y-105170952D01*
X74150952Y-105123333D01*
X68692380Y-119253333D02*
X69406666Y-119253333D01*
X69549523Y-119300952D01*
X69644761Y-119396190D01*
X69692380Y-119539047D01*
X69692380Y-119634285D01*
X69120952Y-118634285D02*
X69073333Y-118729523D01*
X69025714Y-118777142D01*
X68930476Y-118824761D01*
X68882857Y-118824761D01*
X68787619Y-118777142D01*
X68740000Y-118729523D01*
X68692380Y-118634285D01*
X68692380Y-118443809D01*
X68740000Y-118348571D01*
X68787619Y-118300952D01*
X68882857Y-118253333D01*
X68930476Y-118253333D01*
X69025714Y-118300952D01*
X69073333Y-118348571D01*
X69120952Y-118443809D01*
X69120952Y-118634285D01*
X69168571Y-118729523D01*
X69216190Y-118777142D01*
X69311428Y-118824761D01*
X69501904Y-118824761D01*
X69597142Y-118777142D01*
X69644761Y-118729523D01*
X69692380Y-118634285D01*
X69692380Y-118443809D01*
X69644761Y-118348571D01*
X69597142Y-118300952D01*
X69501904Y-118253333D01*
X69311428Y-118253333D01*
X69216190Y-118300952D01*
X69168571Y-118348571D01*
X69120952Y-118443809D01*
X151449714Y-138562380D02*
X151449714Y-137562380D01*
X151687809Y-137562380D01*
X151830666Y-137610000D01*
X151925904Y-137705238D01*
X151973523Y-137800476D01*
X152021142Y-137990952D01*
X152021142Y-138133809D01*
X151973523Y-138324285D01*
X151925904Y-138419523D01*
X151830666Y-138514761D01*
X151687809Y-138562380D01*
X151449714Y-138562380D01*
X152973523Y-138562380D02*
X152402095Y-138562380D01*
X152687809Y-138562380D02*
X152687809Y-137562380D01*
X152592571Y-137705238D01*
X152497333Y-137800476D01*
X152402095Y-137848095D01*
X153592571Y-137562380D02*
X153687809Y-137562380D01*
X153783047Y-137610000D01*
X153830666Y-137657619D01*
X153878285Y-137752857D01*
X153925904Y-137943333D01*
X153925904Y-138181428D01*
X153878285Y-138371904D01*
X153830666Y-138467142D01*
X153783047Y-138514761D01*
X153687809Y-138562380D01*
X153592571Y-138562380D01*
X153497333Y-138514761D01*
X153449714Y-138467142D01*
X153402095Y-138371904D01*
X153354476Y-138181428D01*
X153354476Y-137943333D01*
X153402095Y-137752857D01*
X153449714Y-137657619D01*
X153497333Y-137610000D01*
X153592571Y-137562380D01*
X157482095Y-138192380D02*
X157482095Y-137192380D01*
X158053523Y-138192380D02*
X157624952Y-137620952D01*
X158053523Y-137192380D02*
X157482095Y-137763809D01*
X44291904Y-128562380D02*
X44291904Y-127562380D01*
X44530000Y-127562380D01*
X44672857Y-127610000D01*
X44768095Y-127705238D01*
X44815714Y-127800476D01*
X44863333Y-127990952D01*
X44863333Y-128133809D01*
X44815714Y-128324285D01*
X44768095Y-128419523D01*
X44672857Y-128514761D01*
X44530000Y-128562380D01*
X44291904Y-128562380D01*
X45339523Y-128562380D02*
X45530000Y-128562380D01*
X45625238Y-128514761D01*
X45672857Y-128467142D01*
X45768095Y-128324285D01*
X45815714Y-128133809D01*
X45815714Y-127752857D01*
X45768095Y-127657619D01*
X45720476Y-127610000D01*
X45625238Y-127562380D01*
X45434761Y-127562380D01*
X45339523Y-127610000D01*
X45291904Y-127657619D01*
X45244285Y-127752857D01*
X45244285Y-127990952D01*
X45291904Y-128086190D01*
X45339523Y-128133809D01*
X45434761Y-128181428D01*
X45625238Y-128181428D01*
X45720476Y-128133809D01*
X45768095Y-128086190D01*
X45815714Y-127990952D01*
X132891904Y-138562380D02*
X132891904Y-137562380D01*
X133130000Y-137562380D01*
X133272857Y-137610000D01*
X133368095Y-137705238D01*
X133415714Y-137800476D01*
X133463333Y-137990952D01*
X133463333Y-138133809D01*
X133415714Y-138324285D01*
X133368095Y-138419523D01*
X133272857Y-138514761D01*
X133130000Y-138562380D01*
X132891904Y-138562380D01*
X134034761Y-137990952D02*
X133939523Y-137943333D01*
X133891904Y-137895714D01*
X133844285Y-137800476D01*
X133844285Y-137752857D01*
X133891904Y-137657619D01*
X133939523Y-137610000D01*
X134034761Y-137562380D01*
X134225238Y-137562380D01*
X134320476Y-137610000D01*
X134368095Y-137657619D01*
X134415714Y-137752857D01*
X134415714Y-137800476D01*
X134368095Y-137895714D01*
X134320476Y-137943333D01*
X134225238Y-137990952D01*
X134034761Y-137990952D01*
X133939523Y-138038571D01*
X133891904Y-138086190D01*
X133844285Y-138181428D01*
X133844285Y-138371904D01*
X133891904Y-138467142D01*
X133939523Y-138514761D01*
X134034761Y-138562380D01*
X134225238Y-138562380D01*
X134320476Y-138514761D01*
X134368095Y-138467142D01*
X134415714Y-138371904D01*
X134415714Y-138181428D01*
X134368095Y-138086190D01*
X134320476Y-138038571D01*
X134225238Y-137990952D01*
X138448095Y-138192380D02*
X138448095Y-137192380D01*
X139019523Y-138192380D02*
X138590952Y-137620952D01*
X139019523Y-137192380D02*
X138448095Y-137763809D01*
X44291904Y-120462380D02*
X44291904Y-119462380D01*
X44530000Y-119462380D01*
X44672857Y-119510000D01*
X44768095Y-119605238D01*
X44815714Y-119700476D01*
X44863333Y-119890952D01*
X44863333Y-120033809D01*
X44815714Y-120224285D01*
X44768095Y-120319523D01*
X44672857Y-120414761D01*
X44530000Y-120462380D01*
X44291904Y-120462380D01*
X45196666Y-119462380D02*
X45863333Y-119462380D01*
X45434761Y-120462380D01*
X114668904Y-138562380D02*
X114668904Y-137562380D01*
X114907000Y-137562380D01*
X115049857Y-137610000D01*
X115145095Y-137705238D01*
X115192714Y-137800476D01*
X115240333Y-137990952D01*
X115240333Y-138133809D01*
X115192714Y-138324285D01*
X115145095Y-138419523D01*
X115049857Y-138514761D01*
X114907000Y-138562380D01*
X114668904Y-138562380D01*
X116097476Y-137562380D02*
X115907000Y-137562380D01*
X115811761Y-137610000D01*
X115764142Y-137657619D01*
X115668904Y-137800476D01*
X115621285Y-137990952D01*
X115621285Y-138371904D01*
X115668904Y-138467142D01*
X115716523Y-138514761D01*
X115811761Y-138562380D01*
X116002238Y-138562380D01*
X116097476Y-138514761D01*
X116145095Y-138467142D01*
X116192714Y-138371904D01*
X116192714Y-138133809D01*
X116145095Y-138038571D01*
X116097476Y-137990952D01*
X116002238Y-137943333D01*
X115811761Y-137943333D01*
X115716523Y-137990952D01*
X115668904Y-138038571D01*
X115621285Y-138133809D01*
X120225095Y-138192380D02*
X120225095Y-137192380D01*
X120796523Y-138192380D02*
X120367952Y-137620952D01*
X120796523Y-137192380D02*
X120225095Y-137763809D01*
X44291904Y-112362380D02*
X44291904Y-111362380D01*
X44530000Y-111362380D01*
X44672857Y-111410000D01*
X44768095Y-111505238D01*
X44815714Y-111600476D01*
X44863333Y-111790952D01*
X44863333Y-111933809D01*
X44815714Y-112124285D01*
X44768095Y-112219523D01*
X44672857Y-112314761D01*
X44530000Y-112362380D01*
X44291904Y-112362380D01*
X45768095Y-111362380D02*
X45291904Y-111362380D01*
X45244285Y-111838571D01*
X45291904Y-111790952D01*
X45387142Y-111743333D01*
X45625238Y-111743333D01*
X45720476Y-111790952D01*
X45768095Y-111838571D01*
X45815714Y-111933809D01*
X45815714Y-112171904D01*
X45768095Y-112267142D01*
X45720476Y-112314761D01*
X45625238Y-112362380D01*
X45387142Y-112362380D01*
X45291904Y-112314761D01*
X45244285Y-112267142D01*
X96040404Y-138562380D02*
X96040404Y-137562380D01*
X96278500Y-137562380D01*
X96421357Y-137610000D01*
X96516595Y-137705238D01*
X96564214Y-137800476D01*
X96611833Y-137990952D01*
X96611833Y-138133809D01*
X96564214Y-138324285D01*
X96516595Y-138419523D01*
X96421357Y-138514761D01*
X96278500Y-138562380D01*
X96040404Y-138562380D01*
X97468976Y-137895714D02*
X97468976Y-138562380D01*
X97230880Y-137514761D02*
X96992785Y-138229047D01*
X97611833Y-138229047D01*
X101596595Y-138192380D02*
X101596595Y-137192380D01*
X102168023Y-138192380D02*
X101739452Y-137620952D01*
X102168023Y-137192380D02*
X101596595Y-137763809D01*
X44291904Y-104262380D02*
X44291904Y-103262380D01*
X44530000Y-103262380D01*
X44672857Y-103310000D01*
X44768095Y-103405238D01*
X44815714Y-103500476D01*
X44863333Y-103690952D01*
X44863333Y-103833809D01*
X44815714Y-104024285D01*
X44768095Y-104119523D01*
X44672857Y-104214761D01*
X44530000Y-104262380D01*
X44291904Y-104262380D01*
X45196666Y-103262380D02*
X45815714Y-103262380D01*
X45482380Y-103643333D01*
X45625238Y-103643333D01*
X45720476Y-103690952D01*
X45768095Y-103738571D01*
X45815714Y-103833809D01*
X45815714Y-104071904D01*
X45768095Y-104167142D01*
X45720476Y-104214761D01*
X45625238Y-104262380D01*
X45339523Y-104262380D01*
X45244285Y-104214761D01*
X45196666Y-104167142D01*
X44291904Y-96162380D02*
X44291904Y-95162380D01*
X44530000Y-95162380D01*
X44672857Y-95210000D01*
X44768095Y-95305238D01*
X44815714Y-95400476D01*
X44863333Y-95590952D01*
X44863333Y-95733809D01*
X44815714Y-95924285D01*
X44768095Y-96019523D01*
X44672857Y-96114761D01*
X44530000Y-96162380D01*
X44291904Y-96162380D01*
X45244285Y-95257619D02*
X45291904Y-95210000D01*
X45387142Y-95162380D01*
X45625238Y-95162380D01*
X45720476Y-95210000D01*
X45768095Y-95257619D01*
X45815714Y-95352857D01*
X45815714Y-95448095D01*
X45768095Y-95590952D01*
X45196666Y-96162380D01*
X45815714Y-96162380D01*
X77451904Y-133552380D02*
X77451904Y-132552380D01*
X77690000Y-132552380D01*
X77832857Y-132600000D01*
X77928095Y-132695238D01*
X77975714Y-132790476D01*
X78023333Y-132980952D01*
X78023333Y-133123809D01*
X77975714Y-133314285D01*
X77928095Y-133409523D01*
X77832857Y-133504761D01*
X77690000Y-133552380D01*
X77451904Y-133552380D01*
X78975714Y-133552380D02*
X78404285Y-133552380D01*
X78690000Y-133552380D02*
X78690000Y-132552380D01*
X78594761Y-132695238D01*
X78499523Y-132790476D01*
X78404285Y-132838095D01*
X82968095Y-138192380D02*
X82968095Y-137192380D01*
X83539523Y-138192380D02*
X83110952Y-137620952D01*
X83539523Y-137192380D02*
X82968095Y-137763809D01*
M02*
