G04 #@! TF.GenerationSoftware,KiCad,Pcbnew,(5.1.10)-1*
G04 #@! TF.CreationDate,2022-01-04T01:34:32+08:00*
G04 #@! TF.ProjectId,Smart Hydroponic - 1,536d6172-7420-4487-9964-726f706f6e69,rev?*
G04 #@! TF.SameCoordinates,Original*
G04 #@! TF.FileFunction,Copper,L2,Bot*
G04 #@! TF.FilePolarity,Positive*
%FSLAX46Y46*%
G04 Gerber Fmt 4.6, Leading zero omitted, Abs format (unit mm)*
G04 Created by KiCad (PCBNEW (5.1.10)-1) date 2022-01-04 01:34:32*
%MOMM*%
%LPD*%
G01*
G04 APERTURE LIST*
G04 #@! TA.AperFunction,ComponentPad*
%ADD10C,2.600000*%
G04 #@! TD*
G04 #@! TA.AperFunction,ComponentPad*
%ADD11R,2.600000X2.600000*%
G04 #@! TD*
G04 #@! TA.AperFunction,ComponentPad*
%ADD12R,1.700000X1.700000*%
G04 #@! TD*
G04 #@! TA.AperFunction,ComponentPad*
%ADD13O,1.700000X1.700000*%
G04 #@! TD*
G04 #@! TA.AperFunction,ComponentPad*
%ADD14O,1.905000X2.000000*%
G04 #@! TD*
G04 #@! TA.AperFunction,ComponentPad*
%ADD15R,1.905000X2.000000*%
G04 #@! TD*
G04 #@! TA.AperFunction,ComponentPad*
%ADD16C,3.000000*%
G04 #@! TD*
G04 #@! TA.AperFunction,ComponentPad*
%ADD17R,3.000000X3.000000*%
G04 #@! TD*
G04 #@! TA.AperFunction,ComponentPad*
%ADD18C,3.200000*%
G04 #@! TD*
G04 #@! TA.AperFunction,ComponentPad*
%ADD19R,1.778000X1.778000*%
G04 #@! TD*
G04 #@! TA.AperFunction,ComponentPad*
%ADD20C,1.778000*%
G04 #@! TD*
G04 #@! TA.AperFunction,ComponentPad*
%ADD21O,1.600000X1.600000*%
G04 #@! TD*
G04 #@! TA.AperFunction,ComponentPad*
%ADD22R,1.600000X1.600000*%
G04 #@! TD*
G04 #@! TA.AperFunction,ComponentPad*
%ADD23C,1.600000*%
G04 #@! TD*
G04 #@! TA.AperFunction,ComponentPad*
%ADD24O,2.000000X1.700000*%
G04 #@! TD*
G04 #@! TA.AperFunction,ComponentPad*
%ADD25O,1.950000X1.700000*%
G04 #@! TD*
G04 #@! TA.AperFunction,ComponentPad*
%ADD26O,2.200000X2.200000*%
G04 #@! TD*
G04 #@! TA.AperFunction,ComponentPad*
%ADD27R,2.200000X2.200000*%
G04 #@! TD*
G04 #@! TA.AperFunction,ComponentPad*
%ADD28C,1.800000*%
G04 #@! TD*
G04 #@! TA.AperFunction,ComponentPad*
%ADD29R,1.800000X1.800000*%
G04 #@! TD*
G04 #@! TA.AperFunction,ViaPad*
%ADD30C,5.000000*%
G04 #@! TD*
G04 #@! TA.AperFunction,Conductor*
%ADD31C,0.800000*%
G04 #@! TD*
G04 #@! TA.AperFunction,Conductor*
%ADD32C,1.500000*%
G04 #@! TD*
G04 #@! TA.AperFunction,Conductor*
%ADD33C,0.600000*%
G04 #@! TD*
G04 #@! TA.AperFunction,Conductor*
%ADD34C,0.400000*%
G04 #@! TD*
G04 #@! TA.AperFunction,Conductor*
%ADD35C,0.100000*%
G04 #@! TD*
G04 APERTURE END LIST*
D10*
X67040000Y-96730000D03*
X64040000Y-92030000D03*
D11*
X70040000Y-92030000D03*
D12*
X63850000Y-128680000D03*
D13*
X63850000Y-131220000D03*
X63850000Y-133760000D03*
X63850000Y-136300000D03*
X63850000Y-138840000D03*
X63850000Y-141380000D03*
X55270000Y-121220000D03*
X55270000Y-118680000D03*
X55270000Y-116140000D03*
X55270000Y-113600000D03*
X55270000Y-111060000D03*
D12*
X55270000Y-108520000D03*
D13*
X91270000Y-94000000D03*
X91270000Y-91460000D03*
X91270000Y-88920000D03*
D12*
X91270000Y-86380000D03*
D13*
X85110000Y-84660000D03*
X85110000Y-87200000D03*
X85110000Y-89740000D03*
X85110000Y-92280000D03*
X85110000Y-94820000D03*
D12*
X85110000Y-97360000D03*
D14*
X155204000Y-130870000D03*
X152664000Y-130870000D03*
D15*
X150124000Y-130870000D03*
D14*
X136575500Y-130870000D03*
X134035500Y-130870000D03*
D15*
X131495500Y-130870000D03*
D14*
X117947000Y-130870000D03*
X115407000Y-130870000D03*
D15*
X112867000Y-130870000D03*
D14*
X99318500Y-130870000D03*
X96778500Y-130870000D03*
D15*
X94238500Y-130870000D03*
D14*
X80690000Y-130870000D03*
X78150000Y-130870000D03*
D15*
X75610000Y-130870000D03*
D16*
X155204000Y-143110000D03*
D17*
X150124000Y-143110000D03*
D16*
X136575500Y-143110000D03*
D17*
X131495500Y-143110000D03*
D16*
X117947000Y-143110000D03*
D17*
X112867000Y-143110000D03*
D16*
X99318500Y-143110000D03*
D17*
X94238500Y-143110000D03*
D16*
X80690000Y-143110000D03*
D17*
X75610000Y-143110000D03*
D18*
X130440000Y-98182500D03*
X153300000Y-98182500D03*
D19*
X130440000Y-85482500D03*
D20*
X132980000Y-85482500D03*
X135520000Y-85482500D03*
X138060000Y-85482500D03*
X140600000Y-85482500D03*
X153300000Y-85482500D03*
X150760000Y-85482500D03*
X148220000Y-85482500D03*
X145680000Y-85482500D03*
X143140000Y-85482500D03*
D13*
X155760000Y-107540000D03*
X155760000Y-105000000D03*
X137980000Y-107540000D03*
X137980000Y-105000000D03*
X132900000Y-107540000D03*
X132900000Y-105000000D03*
X143060000Y-107540000D03*
X143060000Y-105000000D03*
X115120000Y-107540000D03*
X115120000Y-105000000D03*
X145600000Y-107540000D03*
X145600000Y-105000000D03*
X127820000Y-107540000D03*
X127820000Y-105000000D03*
X150680000Y-107540000D03*
X150680000Y-105000000D03*
X148140000Y-107540000D03*
X148140000Y-105000000D03*
X153220000Y-107540000D03*
X153220000Y-105000000D03*
X130360000Y-107540000D03*
X130360000Y-105000000D03*
X117660000Y-107540000D03*
X117660000Y-105000000D03*
X122740000Y-107540000D03*
X122740000Y-105000000D03*
X140520000Y-107540000D03*
X140520000Y-105000000D03*
X120200000Y-107540000D03*
X120200000Y-105000000D03*
X135440000Y-107540000D03*
X135440000Y-105000000D03*
D12*
X107500000Y-105000000D03*
D13*
X107500000Y-107540000D03*
X112580000Y-105000000D03*
X110040000Y-107540000D03*
X125280000Y-107540000D03*
X125280000Y-105000000D03*
X110040000Y-105000000D03*
X112580000Y-107540000D03*
D21*
X156484000Y-121720000D03*
X148864000Y-124260000D03*
X156484000Y-124260000D03*
D22*
X148864000Y-121720000D03*
D21*
X137855500Y-121720000D03*
X130235500Y-124260000D03*
X137855500Y-124260000D03*
D22*
X130235500Y-121720000D03*
D21*
X119227000Y-121720000D03*
X111607000Y-124260000D03*
X119227000Y-124260000D03*
D22*
X111607000Y-121720000D03*
D21*
X100598500Y-121720000D03*
X92978500Y-124260000D03*
X100598500Y-124260000D03*
D22*
X92978500Y-121720000D03*
D21*
X81970000Y-121720000D03*
X74350000Y-124260000D03*
X81970000Y-124260000D03*
D22*
X74350000Y-121720000D03*
D21*
X161554000Y-135005000D03*
D23*
X161554000Y-124845000D03*
D21*
X144040000Y-130560000D03*
D23*
X144040000Y-140720000D03*
D21*
X147584000Y-116370000D03*
D23*
X157744000Y-116370000D03*
D21*
X144040000Y-128075000D03*
D23*
X144040000Y-117915000D03*
D21*
X125356666Y-130560000D03*
D23*
X125356666Y-140720000D03*
D21*
X139115500Y-116370000D03*
D23*
X128955500Y-116370000D03*
D21*
X125356666Y-128075000D03*
D23*
X125356666Y-117915000D03*
D21*
X106673333Y-130560000D03*
D23*
X106673333Y-140720000D03*
D21*
X120530000Y-116370000D03*
D23*
X110370000Y-116370000D03*
D21*
X106673333Y-128075000D03*
D23*
X106673333Y-117915000D03*
D21*
X87990000Y-140720000D03*
D23*
X87990000Y-130560000D03*
D21*
X101858500Y-116370000D03*
D23*
X91698500Y-116370000D03*
D21*
X87990000Y-128075000D03*
D23*
X87990000Y-117915000D03*
D21*
X68730000Y-135005000D03*
D23*
X68730000Y-124845000D03*
D21*
X83230000Y-116370000D03*
D23*
X73070000Y-116370000D03*
D24*
X164910000Y-118620000D03*
G04 #@! TA.AperFunction,ComponentPad*
G36*
G01*
X164160000Y-115270000D02*
X165660000Y-115270000D01*
G75*
G02*
X165910000Y-115520000I0J-250000D01*
G01*
X165910000Y-116720000D01*
G75*
G02*
X165660000Y-116970000I-250000J0D01*
G01*
X164160000Y-116970000D01*
G75*
G02*
X163910000Y-116720000I0J250000D01*
G01*
X163910000Y-115520000D01*
G75*
G02*
X164160000Y-115270000I250000J0D01*
G01*
G37*
G04 #@! TD.AperFunction*
D25*
X77070000Y-87400000D03*
X77070000Y-89900000D03*
X77070000Y-92400000D03*
G04 #@! TA.AperFunction,ComponentPad*
G36*
G01*
X77795000Y-95750000D02*
X76345000Y-95750000D01*
G75*
G02*
X76095000Y-95500000I0J250000D01*
G01*
X76095000Y-94300000D01*
G75*
G02*
X76345000Y-94050000I250000J0D01*
G01*
X77795000Y-94050000D01*
G75*
G02*
X78045000Y-94300000I0J-250000D01*
G01*
X78045000Y-95500000D01*
G75*
G02*
X77795000Y-95750000I-250000J0D01*
G01*
G37*
G04 #@! TD.AperFunction*
X91950000Y-108380000D03*
X91950000Y-105880000D03*
G04 #@! TA.AperFunction,ComponentPad*
G36*
G01*
X91225000Y-102530000D02*
X92675000Y-102530000D01*
G75*
G02*
X92925000Y-102780000I0J-250000D01*
G01*
X92925000Y-103980000D01*
G75*
G02*
X92675000Y-104230000I-250000J0D01*
G01*
X91225000Y-104230000D01*
G75*
G02*
X90975000Y-103980000I0J250000D01*
G01*
X90975000Y-102780000D01*
G75*
G02*
X91225000Y-102530000I250000J0D01*
G01*
G37*
G04 #@! TD.AperFunction*
D24*
X81210000Y-107650000D03*
G04 #@! TA.AperFunction,ComponentPad*
G36*
G01*
X80460000Y-104300000D02*
X81960000Y-104300000D01*
G75*
G02*
X82210000Y-104550000I0J-250000D01*
G01*
X82210000Y-105750000D01*
G75*
G02*
X81960000Y-106000000I-250000J0D01*
G01*
X80460000Y-106000000D01*
G75*
G02*
X80210000Y-105750000I0J250000D01*
G01*
X80210000Y-104550000D01*
G75*
G02*
X80460000Y-104300000I250000J0D01*
G01*
G37*
G04 #@! TD.AperFunction*
D10*
X68010000Y-108330000D03*
D11*
X68010000Y-103250000D03*
D24*
X66440000Y-120170000D03*
G04 #@! TA.AperFunction,ComponentPad*
G36*
G01*
X65690000Y-116820000D02*
X67190000Y-116820000D01*
G75*
G02*
X67440000Y-117070000I0J-250000D01*
G01*
X67440000Y-118270000D01*
G75*
G02*
X67190000Y-118520000I-250000J0D01*
G01*
X65690000Y-118520000D01*
G75*
G02*
X65440000Y-118270000I0J250000D01*
G01*
X65440000Y-117070000D01*
G75*
G02*
X65690000Y-116820000I250000J0D01*
G01*
G37*
G04 #@! TD.AperFunction*
D26*
X147584000Y-135640000D03*
D27*
X157744000Y-135640000D03*
D28*
X46300000Y-131070000D03*
D29*
X43760000Y-131070000D03*
D26*
X128550000Y-135640000D03*
D27*
X138710000Y-135640000D03*
D28*
X46300000Y-122970000D03*
D29*
X43760000Y-122970000D03*
D26*
X110327000Y-135640000D03*
D27*
X120487000Y-135640000D03*
D28*
X46300000Y-114870000D03*
D29*
X43760000Y-114870000D03*
D26*
X91698500Y-135640000D03*
D27*
X101858500Y-135640000D03*
D28*
X46300000Y-106770000D03*
D29*
X43760000Y-106770000D03*
D28*
X46300000Y-98670000D03*
D29*
X43760000Y-98670000D03*
D26*
X73070000Y-135640000D03*
D27*
X83230000Y-135640000D03*
D30*
X62500000Y-82500000D03*
X167500000Y-82500000D03*
X62500000Y-147500000D03*
X167500000Y-147500000D03*
X50000000Y-85000000D03*
X50000000Y-145000000D03*
D31*
X75610000Y-138180000D02*
X73070000Y-135640000D01*
X75610000Y-143110000D02*
X75610000Y-138180000D01*
D32*
X157740000Y-135644000D02*
X157744000Y-135640000D01*
X157740000Y-139960000D02*
X157740000Y-135644000D01*
X155204000Y-142496000D02*
X157740000Y-139960000D01*
X155204000Y-143110000D02*
X155204000Y-142496000D01*
X138670000Y-135680000D02*
X138710000Y-135640000D01*
X138670000Y-141015500D02*
X138670000Y-135680000D01*
X136575500Y-143110000D02*
X138670000Y-141015500D01*
X120480000Y-135647000D02*
X120487000Y-135640000D01*
X120480000Y-140577000D02*
X120480000Y-135647000D01*
X117947000Y-143110000D02*
X120480000Y-140577000D01*
X101740000Y-135758500D02*
X101858500Y-135640000D01*
X101740000Y-140688500D02*
X101740000Y-135758500D01*
X99318500Y-143110000D02*
X101740000Y-140688500D01*
X83210000Y-135660000D02*
X83230000Y-135640000D01*
X83210000Y-140590000D02*
X83210000Y-135660000D01*
X80690000Y-143110000D02*
X83210000Y-140590000D01*
X79410000Y-121720000D02*
X81970000Y-121720000D01*
X78070000Y-123060000D02*
X79410000Y-121720000D01*
X78070000Y-124830000D02*
X78070000Y-123060000D01*
X66150000Y-125390000D02*
X67800000Y-127040000D01*
X66150000Y-120460000D02*
X66150000Y-125390000D01*
X75860000Y-127040000D02*
X78070000Y-124830000D01*
X67800000Y-127040000D02*
X75860000Y-127040000D01*
X66440000Y-120170000D02*
X66150000Y-120460000D01*
D31*
X46300000Y-98670000D02*
X46300000Y-100280000D01*
X46300000Y-100280000D02*
X52130000Y-106110000D01*
X52130000Y-106110000D02*
X52130000Y-109750000D01*
X53440000Y-111060000D02*
X55270000Y-111060000D01*
X52130000Y-109750000D02*
X53440000Y-111060000D01*
X87675000Y-128390000D02*
X87990000Y-128075000D01*
X74490000Y-128390000D02*
X87675000Y-128390000D01*
X71660000Y-131220000D02*
X74490000Y-128390000D01*
X63850000Y-131220000D02*
X71660000Y-131220000D01*
X53130000Y-113600000D02*
X55270000Y-113600000D01*
X46300000Y-106770000D02*
X53130000Y-113600000D01*
X91965000Y-128075000D02*
X106673333Y-128075000D01*
X90510000Y-129530000D02*
X91965000Y-128075000D01*
X90510000Y-130870000D02*
X90510000Y-129530000D01*
X88380000Y-133000000D02*
X90510000Y-130870000D01*
X67550000Y-133000000D02*
X88380000Y-133000000D01*
X66790000Y-133760000D02*
X67550000Y-133000000D01*
X63850000Y-133760000D02*
X66790000Y-133760000D01*
X94238500Y-138180000D02*
X91698500Y-135640000D01*
X94238500Y-143110000D02*
X94238500Y-138180000D01*
X50510000Y-116140000D02*
X55270000Y-116140000D01*
X49240000Y-114870000D02*
X50510000Y-116140000D01*
X46300000Y-114870000D02*
X49240000Y-114870000D01*
X111985000Y-128075000D02*
X125356666Y-128075000D01*
X107240000Y-132820000D02*
X111985000Y-128075000D01*
X90640000Y-132820000D02*
X107240000Y-132820000D01*
X88060000Y-135400000D02*
X90640000Y-132820000D01*
X88060000Y-137410000D02*
X88060000Y-135400000D01*
X85800000Y-139670000D02*
X88060000Y-137410000D01*
X85800000Y-143730000D02*
X85800000Y-139670000D01*
X83770000Y-145760000D02*
X85800000Y-143730000D01*
X73310000Y-145760000D02*
X83770000Y-145760000D01*
X63850000Y-136300000D02*
X73310000Y-145760000D01*
X112867000Y-138180000D02*
X110327000Y-135640000D01*
X112867000Y-143110000D02*
X112867000Y-138180000D01*
X55240000Y-118710000D02*
X55270000Y-118680000D01*
X50560000Y-118710000D02*
X55240000Y-118710000D01*
X46300000Y-122970000D02*
X50560000Y-118710000D01*
X131095000Y-128075000D02*
X144040000Y-128075000D01*
X125990000Y-133180000D02*
X131095000Y-128075000D01*
X109090000Y-133180000D02*
X125990000Y-133180000D01*
X107230000Y-135040000D02*
X109090000Y-133180000D01*
X107230000Y-137070000D02*
X107230000Y-135040000D01*
X104830000Y-139470000D02*
X107230000Y-137070000D01*
X104830000Y-143880000D02*
X104830000Y-139470000D01*
X101520000Y-147190000D02*
X104830000Y-143880000D01*
X72200000Y-147190000D02*
X101520000Y-147190000D01*
X63850000Y-138840000D02*
X72200000Y-147190000D01*
X131495500Y-138585500D02*
X128550000Y-135640000D01*
X131495500Y-143110000D02*
X131495500Y-138585500D01*
X55270000Y-122100000D02*
X55270000Y-121220000D01*
X46300000Y-131070000D02*
X55270000Y-122100000D01*
X161530000Y-134981000D02*
X161554000Y-135005000D01*
X161530000Y-145190000D02*
X161530000Y-134981000D01*
X157900000Y-148820000D02*
X161530000Y-145190000D01*
X71290000Y-148820000D02*
X157900000Y-148820000D01*
X63850000Y-141380000D02*
X71290000Y-148820000D01*
X150124000Y-138180000D02*
X147584000Y-135640000D01*
X150124000Y-143110000D02*
X150124000Y-138180000D01*
X85110000Y-84660000D02*
X87960000Y-87510000D01*
X87960000Y-87510000D02*
X87960000Y-90240000D01*
X89180000Y-91460000D02*
X91270000Y-91460000D01*
X87960000Y-90240000D02*
X89180000Y-91460000D01*
X92870000Y-102460000D02*
X91950000Y-103380000D01*
X106820000Y-102460000D02*
X92870000Y-102460000D01*
X107500000Y-103140000D02*
X106820000Y-102460000D01*
X107500000Y-105000000D02*
X107500000Y-103140000D01*
X43760000Y-131070000D02*
X43760000Y-122970000D01*
X43760000Y-114870000D02*
X43760000Y-106770000D01*
X43760000Y-106770000D02*
X43760000Y-98670000D01*
X43760000Y-98670000D02*
X43760000Y-96460000D01*
X43760000Y-96460000D02*
X45560000Y-94660000D01*
X45560000Y-94660000D02*
X51690000Y-94660000D01*
X55270000Y-98240000D02*
X55270000Y-108520000D01*
X51690000Y-94660000D02*
X55270000Y-98240000D01*
X64040000Y-93730000D02*
X64040000Y-92030000D01*
X67040000Y-96730000D02*
X64040000Y-93730000D01*
X77070000Y-95750000D02*
X77060000Y-95760000D01*
X77070000Y-94900000D02*
X77070000Y-95750000D01*
X77060000Y-95760000D02*
X77060000Y-98160000D01*
X77060000Y-98160000D02*
X81250000Y-102350000D01*
X81250000Y-102350000D02*
X84560000Y-102350000D01*
X84560000Y-102350000D02*
X86230000Y-104020000D01*
X86230000Y-104020000D02*
X86230000Y-106570000D01*
X68010000Y-108330000D02*
X64610000Y-108330000D01*
X64610000Y-108330000D02*
X63130000Y-106850000D01*
X63130000Y-100640000D02*
X67040000Y-96730000D01*
X63130000Y-106850000D02*
X63130000Y-100640000D01*
X83230000Y-107730000D02*
X83150000Y-107650000D01*
X83230000Y-116370000D02*
X83230000Y-107730000D01*
X81210000Y-107650000D02*
X83150000Y-107650000D01*
X136620000Y-116370000D02*
X139115500Y-116370000D01*
X134720000Y-118270000D02*
X136620000Y-116370000D01*
X134720000Y-124670000D02*
X134720000Y-118270000D01*
X136140000Y-126090000D02*
X134720000Y-124670000D01*
X145480000Y-126090000D02*
X136140000Y-126090000D01*
X146130000Y-126740000D02*
X145480000Y-126090000D01*
X146130000Y-129720000D02*
X146130000Y-126740000D01*
X145290000Y-130560000D02*
X146130000Y-129720000D01*
X144040000Y-130560000D02*
X145290000Y-130560000D01*
X117660000Y-101250000D02*
X117660000Y-105000000D01*
X118470000Y-100440000D02*
X117660000Y-101250000D01*
X137940000Y-100440000D02*
X118470000Y-100440000D01*
X150760000Y-87620000D02*
X137940000Y-100440000D01*
X150760000Y-85482500D02*
X150760000Y-87620000D01*
X73650000Y-94900000D02*
X77070000Y-94900000D01*
X72410000Y-93660000D02*
X73650000Y-94900000D01*
X70780000Y-88400000D02*
X72410000Y-90030000D01*
X65440000Y-88400000D02*
X70780000Y-88400000D01*
X64040000Y-89800000D02*
X65440000Y-88400000D01*
X72410000Y-90030000D02*
X72410000Y-93660000D01*
X64040000Y-92030000D02*
X64040000Y-89800000D01*
X86230000Y-107650000D02*
X86230000Y-106570000D01*
X83150000Y-107650000D02*
X86230000Y-107650000D01*
X86870000Y-108380000D02*
X91950000Y-108380000D01*
X86230000Y-107740000D02*
X86870000Y-108380000D01*
X86230000Y-106570000D02*
X86230000Y-107740000D01*
X115009968Y-82850032D02*
X110960000Y-86900000D01*
X82930000Y-90100000D02*
X85110000Y-92280000D01*
X82930000Y-83560000D02*
X82930000Y-90100000D01*
X83389989Y-83100011D02*
X82930000Y-83560000D01*
X138060000Y-85482500D02*
X135427532Y-82850032D01*
X110960000Y-86900000D02*
X95800000Y-86900000D01*
X92000011Y-83100011D02*
X83389989Y-83100011D01*
X95800000Y-86900000D02*
X92000011Y-83100011D01*
D33*
X135427532Y-82850032D02*
X115009968Y-82850032D01*
D31*
X87570000Y-94820000D02*
X85110000Y-94820000D01*
X88870000Y-96120000D02*
X87570000Y-94820000D01*
X112320000Y-96120000D02*
X88870000Y-96120000D01*
X119590000Y-88850000D02*
X112320000Y-96120000D01*
X131140000Y-88850000D02*
X119590000Y-88850000D01*
X133010000Y-86980000D02*
X131140000Y-88850000D01*
X133010000Y-85512500D02*
X133010000Y-86980000D01*
X132980000Y-85482500D02*
X133010000Y-85512500D01*
X85560000Y-97810000D02*
X85110000Y-97360000D01*
X110720000Y-97810000D02*
X85560000Y-97810000D01*
X115120000Y-102210000D02*
X110720000Y-97810000D01*
X115120000Y-105000000D02*
X115120000Y-102210000D01*
X113660000Y-88120000D02*
X93010000Y-88120000D01*
D33*
X133887543Y-83850043D02*
X117929957Y-83850043D01*
D31*
X117929957Y-83850043D02*
X113660000Y-88120000D01*
X135520000Y-85482500D02*
X133887543Y-83850043D01*
X93010000Y-88120000D02*
X91270000Y-86380000D01*
X66440000Y-117670000D02*
X66440000Y-115770000D01*
X66440000Y-115770000D02*
X72980000Y-109230000D01*
X71660000Y-103250000D02*
X68010000Y-103250000D01*
X72980000Y-104570000D02*
X71660000Y-103250000D01*
X73040000Y-105150000D02*
X72980000Y-105090000D01*
X81210000Y-105150000D02*
X73040000Y-105150000D01*
X72980000Y-105090000D02*
X72980000Y-104570000D01*
X72980000Y-109230000D02*
X72980000Y-105090000D01*
X70040000Y-101220000D02*
X68010000Y-103250000D01*
X70040000Y-92030000D02*
X70040000Y-101220000D01*
D34*
X120200000Y-106010000D02*
X120200000Y-105000000D01*
X119970000Y-106240000D02*
X120200000Y-106010000D01*
X119520000Y-106240000D02*
X119970000Y-106240000D01*
X118930000Y-106830000D02*
X119520000Y-106240000D01*
X118930000Y-108710000D02*
X118930000Y-106830000D01*
D31*
X117150000Y-110490000D02*
X118930000Y-108710000D01*
X96560000Y-110490000D02*
X117150000Y-110490000D01*
X91950000Y-105880000D02*
X96560000Y-110490000D01*
X112580000Y-105000000D02*
X112580000Y-102350000D01*
D34*
X116409999Y-105560003D02*
X116409999Y-104300001D01*
X115720001Y-106250001D02*
X116409999Y-105560003D01*
X113830001Y-106250001D02*
X115720001Y-106250001D01*
X112580000Y-105000000D02*
X113830001Y-106250001D01*
D31*
X79593590Y-87400000D02*
X77070000Y-87400000D01*
X81320000Y-89126410D02*
X79593590Y-87400000D01*
X81320000Y-97020000D02*
X81320000Y-89126410D01*
X83670000Y-99370000D02*
X81320000Y-97020000D01*
X109600000Y-99370000D02*
X83670000Y-99370000D01*
X112580000Y-102350000D02*
X109600000Y-99370000D01*
D34*
X116420000Y-104290000D02*
X116420000Y-102310000D01*
X116409999Y-104300001D02*
X116420000Y-104290000D01*
D31*
X148220000Y-87510000D02*
X148220000Y-85482500D01*
X140400000Y-95330000D02*
X148220000Y-87510000D01*
X120000000Y-95330000D02*
X140400000Y-95330000D01*
X116420000Y-98910000D02*
X120000000Y-95330000D01*
X116420000Y-102310000D02*
X116420000Y-98910000D01*
X110040000Y-105000000D02*
X110040000Y-102310000D01*
X79090000Y-89900000D02*
X77070000Y-89900000D01*
X79770000Y-98140000D02*
X79770000Y-90580000D01*
X82720000Y-101090000D02*
X79770000Y-98140000D01*
X79770000Y-90580000D02*
X79090000Y-89900000D01*
X108820000Y-101090000D02*
X82720000Y-101090000D01*
X110040000Y-102310000D02*
X108820000Y-101090000D01*
X75500000Y-89900000D02*
X77070000Y-89900000D01*
X75080000Y-89480000D02*
X75500000Y-89900000D01*
X75080000Y-84200000D02*
X75080000Y-89480000D01*
X77330000Y-81950000D02*
X75080000Y-84200000D01*
X97560000Y-81950000D02*
X77330000Y-81950000D01*
X101350000Y-85740000D02*
X97560000Y-81950000D01*
X108349979Y-81850021D02*
X104460000Y-85740000D01*
D33*
X143970021Y-81850021D02*
X108349979Y-81850021D01*
D31*
X145680000Y-83560000D02*
X143970021Y-81850021D01*
X104460000Y-85740000D02*
X101350000Y-85740000D01*
X145680000Y-85482500D02*
X145680000Y-83560000D01*
X110040000Y-107540000D02*
X107500000Y-107540000D01*
X166710000Y-118620000D02*
X164910000Y-118620000D01*
X168130000Y-117200000D02*
X166710000Y-118620000D01*
X168130000Y-101860000D02*
X168130000Y-117200000D01*
X124740000Y-101860000D02*
X168130000Y-101860000D01*
X119280000Y-101860000D02*
X124740000Y-101860000D01*
X118940000Y-102200000D02*
X119280000Y-101860000D01*
X118940000Y-103450000D02*
X118940000Y-102200000D01*
X111640000Y-109140000D02*
X115710000Y-109140000D01*
X110040000Y-107540000D02*
X111640000Y-109140000D01*
X116390000Y-108460000D02*
X115710000Y-109140000D01*
X168130000Y-101250000D02*
X168130000Y-101860000D01*
X168130000Y-94880000D02*
X168130000Y-101250000D01*
X154000010Y-80750010D02*
X168130000Y-94880000D01*
D33*
X76039990Y-80750010D02*
X154000010Y-80750010D01*
D31*
X73730000Y-83060000D02*
X76039990Y-80750010D01*
X73730000Y-91230000D02*
X73730000Y-83060000D01*
X74900000Y-92400000D02*
X73730000Y-91230000D01*
X77070000Y-92400000D02*
X74900000Y-92400000D01*
D34*
X118940000Y-105870000D02*
X118940000Y-103450000D01*
X118520001Y-106289999D02*
X118940000Y-105870000D01*
X116700001Y-106289999D02*
X118520001Y-106289999D01*
X116390000Y-106600000D02*
X116700001Y-106289999D01*
X116390000Y-108460000D02*
X116390000Y-106600000D01*
D31*
X74350000Y-124260000D02*
X72390000Y-124260000D01*
X72390000Y-124260000D02*
X71120000Y-122990000D01*
X71120000Y-118320000D02*
X73070000Y-116370000D01*
X71120000Y-122990000D02*
X71120000Y-118320000D01*
X130235500Y-124260000D02*
X129070000Y-124260000D01*
X129070000Y-124260000D02*
X127970000Y-123160000D01*
X127970000Y-117355500D02*
X128955500Y-116370000D01*
X127970000Y-123160000D02*
X127970000Y-117355500D01*
X77170000Y-118900000D02*
X74350000Y-121720000D01*
X84200000Y-118900000D02*
X77170000Y-118900000D01*
X87490000Y-115610000D02*
X84200000Y-118900000D01*
X89980000Y-115610000D02*
X87490000Y-115610000D01*
X91050000Y-114540000D02*
X89980000Y-115610000D01*
X111610000Y-114540000D02*
X91050000Y-114540000D01*
X113350000Y-112800000D02*
X111610000Y-114540000D01*
X118270000Y-112800000D02*
X113350000Y-112800000D01*
X120200000Y-110870000D02*
X118270000Y-112800000D01*
X120200000Y-107540000D02*
X120200000Y-110870000D01*
X94278500Y-121720000D02*
X92978500Y-121720000D01*
X98708500Y-126150000D02*
X94278500Y-121720000D01*
X145600000Y-107540000D02*
X145600000Y-109350000D01*
X116000000Y-123400000D02*
X113250000Y-126150000D01*
X144250000Y-110700000D02*
X135630000Y-110700000D01*
X135630000Y-110700000D02*
X131720000Y-114610000D01*
X131720000Y-114610000D02*
X125060000Y-114610000D01*
X123020000Y-118590000D02*
X122300000Y-119310000D01*
X145600000Y-109350000D02*
X144250000Y-110700000D01*
X125060000Y-114610000D02*
X123020000Y-116650000D01*
X123020000Y-116650000D02*
X123020000Y-118590000D01*
X122300000Y-119310000D02*
X116890000Y-119310000D01*
X116890000Y-119310000D02*
X116000000Y-120200000D01*
X116000000Y-120200000D02*
X116000000Y-123400000D01*
X113250000Y-126150000D02*
X98708500Y-126150000D01*
D34*
X129109999Y-109500001D02*
X128995001Y-109614999D01*
X129109999Y-106939999D02*
X129109999Y-109500001D01*
X129759999Y-106289999D02*
X129109999Y-106939999D01*
X130960001Y-106289999D02*
X129759999Y-106289999D01*
X130979501Y-106309499D02*
X130960001Y-106289999D01*
X131669499Y-105619501D02*
X130979501Y-106309499D01*
X131650000Y-105600002D02*
X131669499Y-105619501D01*
X131650000Y-103760000D02*
X131650000Y-105600002D01*
D31*
X150680000Y-105000000D02*
X150680000Y-104050000D01*
X150680000Y-104050000D02*
X149720000Y-103090000D01*
X149720000Y-103090000D02*
X132320000Y-103090000D01*
X132320000Y-103090000D02*
X131650000Y-103760000D01*
X113210000Y-120117000D02*
X111607000Y-121720000D01*
X113210000Y-116670000D02*
X113210000Y-120117000D01*
X115330000Y-114550000D02*
X113210000Y-116670000D01*
X121240000Y-114550000D02*
X115330000Y-114550000D01*
X124480000Y-111310000D02*
X121240000Y-114550000D01*
X127300000Y-111310000D02*
X124480000Y-111310000D01*
X128995001Y-109614999D02*
X127300000Y-111310000D01*
D34*
X146880000Y-106260000D02*
X148140000Y-105000000D01*
X146880000Y-108750000D02*
X146880000Y-106260000D01*
X146870000Y-108760000D02*
X146880000Y-108750000D01*
D31*
X130235500Y-119564500D02*
X130235500Y-121720000D01*
X136990000Y-112810000D02*
X130235500Y-119564500D01*
X146250000Y-112810000D02*
X136990000Y-112810000D01*
X146870000Y-112190000D02*
X146250000Y-112810000D01*
X146870000Y-108760000D02*
X146870000Y-112190000D01*
X150680000Y-119904000D02*
X148864000Y-121720000D01*
X150680000Y-107540000D02*
X150680000Y-119904000D01*
X119227000Y-124260000D02*
X123310000Y-124260000D01*
X123310000Y-124260000D02*
X125210000Y-122360000D01*
X125210000Y-118061666D02*
X125356666Y-117915000D01*
X125210000Y-122360000D02*
X125210000Y-118061666D01*
X144040000Y-124150000D02*
X144150000Y-124260000D01*
X144040000Y-117915000D02*
X144040000Y-124150000D01*
X144150000Y-124260000D02*
X137855500Y-124260000D01*
X146120000Y-124260000D02*
X144150000Y-124260000D01*
X147630000Y-125770000D02*
X146120000Y-124260000D01*
X147630000Y-130690000D02*
X147630000Y-125770000D01*
X145550000Y-132770000D02*
X147630000Y-130690000D01*
X131495500Y-132325500D02*
X131940000Y-132770000D01*
X131940000Y-132770000D02*
X145550000Y-132770000D01*
X131495500Y-130870000D02*
X131495500Y-132325500D01*
X166530001Y-114359766D02*
X166468802Y-114309542D01*
X166217113Y-114175011D01*
X165944014Y-114092167D01*
X165660000Y-114064194D01*
X164160000Y-114064194D01*
X163875986Y-114092167D01*
X163602887Y-114175011D01*
X163351198Y-114309542D01*
X163130590Y-114490590D01*
X162949542Y-114711198D01*
X162815011Y-114962887D01*
X162732167Y-115235986D01*
X162704194Y-115520000D01*
X162704194Y-116720000D01*
X162732167Y-117004014D01*
X162815011Y-117277113D01*
X162949542Y-117528802D01*
X162991475Y-117579898D01*
X162856883Y-117831703D01*
X162739662Y-118218130D01*
X162700081Y-118620000D01*
X162739662Y-119021870D01*
X162856883Y-119408297D01*
X163047240Y-119764430D01*
X163303417Y-120076583D01*
X163615570Y-120332760D01*
X163971703Y-120523117D01*
X164358130Y-120640338D01*
X164659291Y-120670000D01*
X165160709Y-120670000D01*
X165461870Y-120640338D01*
X165848297Y-120523117D01*
X166204430Y-120332760D01*
X166341829Y-120220000D01*
X166631406Y-120220000D01*
X166710000Y-120227741D01*
X166788594Y-120220000D01*
X166788597Y-120220000D01*
X167023655Y-120196849D01*
X167325256Y-120105359D01*
X167603213Y-119956788D01*
X167846845Y-119756845D01*
X167896953Y-119695788D01*
X168750001Y-118842741D01*
X168750000Y-144012916D01*
X168579250Y-143942189D01*
X167864418Y-143800000D01*
X167135582Y-143800000D01*
X166420750Y-143942189D01*
X165747393Y-144221102D01*
X165141387Y-144626022D01*
X164626022Y-145141387D01*
X164221102Y-145747393D01*
X163942189Y-146420750D01*
X163800000Y-147135582D01*
X163800000Y-147864418D01*
X163942189Y-148579250D01*
X164012916Y-148750000D01*
X160232741Y-148750000D01*
X162605794Y-146376948D01*
X162666845Y-146326845D01*
X162841354Y-146114205D01*
X162866788Y-146083214D01*
X162918539Y-145986394D01*
X163015359Y-145805256D01*
X163106849Y-145503655D01*
X163130000Y-145268597D01*
X163130000Y-145268595D01*
X163137741Y-145190001D01*
X163130000Y-145111407D01*
X163130000Y-136246254D01*
X163326377Y-135952355D01*
X163477141Y-135588378D01*
X163554000Y-135201983D01*
X163554000Y-134808017D01*
X163477141Y-134421622D01*
X163326377Y-134057645D01*
X163107501Y-133730074D01*
X162828926Y-133451499D01*
X162501355Y-133232623D01*
X162137378Y-133081859D01*
X161750983Y-133005000D01*
X161357017Y-133005000D01*
X160970622Y-133081859D01*
X160606645Y-133232623D01*
X160279074Y-133451499D01*
X160000499Y-133730074D01*
X159873413Y-133920271D01*
X159846591Y-133870090D01*
X159696634Y-133687366D01*
X159513910Y-133537409D01*
X159305442Y-133425981D01*
X159079241Y-133357363D01*
X158844000Y-133334194D01*
X156644000Y-133334194D01*
X156408759Y-133357363D01*
X156182558Y-133425981D01*
X155974090Y-133537409D01*
X155791366Y-133687366D01*
X155641409Y-133870090D01*
X155529981Y-134078558D01*
X155461363Y-134304759D01*
X155438194Y-134540000D01*
X155438194Y-136740000D01*
X155461363Y-136975241D01*
X155529981Y-137201442D01*
X155641409Y-137409910D01*
X155790001Y-137590970D01*
X155790000Y-139152284D01*
X154431526Y-140510759D01*
X154416439Y-140513760D01*
X153925070Y-140717291D01*
X153482850Y-141012773D01*
X153106773Y-141388850D01*
X152829806Y-141803360D01*
X152829806Y-141610000D01*
X152806637Y-141374759D01*
X152738019Y-141148558D01*
X152626591Y-140940090D01*
X152476634Y-140757366D01*
X152293910Y-140607409D01*
X152085442Y-140495981D01*
X151859241Y-140427363D01*
X151724000Y-140414043D01*
X151724000Y-138258593D01*
X151731741Y-138179999D01*
X151723187Y-138093151D01*
X151700849Y-137866345D01*
X151609359Y-137564744D01*
X151460788Y-137286787D01*
X151260845Y-137043155D01*
X151199793Y-136993051D01*
X149884000Y-135677259D01*
X149884000Y-135413470D01*
X149795613Y-134969115D01*
X149622234Y-134550541D01*
X149370527Y-134173835D01*
X149050165Y-133853473D01*
X148673459Y-133601766D01*
X148254885Y-133428387D01*
X147810530Y-133340000D01*
X147357470Y-133340000D01*
X147214254Y-133368487D01*
X148124993Y-132457749D01*
X148168909Y-132539910D01*
X148318866Y-132722634D01*
X148501590Y-132872591D01*
X148710058Y-132984019D01*
X148936259Y-133052637D01*
X149171500Y-133075806D01*
X151076500Y-133075806D01*
X151311741Y-133052637D01*
X151537942Y-132984019D01*
X151746410Y-132872591D01*
X151749996Y-132869648D01*
X151836289Y-132915773D01*
X152242037Y-133038855D01*
X152664000Y-133080415D01*
X153085964Y-133038855D01*
X153491712Y-132915773D01*
X153865651Y-132715898D01*
X154193412Y-132446912D01*
X154462398Y-132119151D01*
X154662273Y-131745211D01*
X154785355Y-131339463D01*
X154816500Y-131023244D01*
X154816500Y-130716755D01*
X154785355Y-130400536D01*
X154662273Y-129994788D01*
X154462398Y-129620849D01*
X154193412Y-129293088D01*
X153865651Y-129024102D01*
X153491711Y-128824227D01*
X153085963Y-128701145D01*
X152664000Y-128659585D01*
X152242036Y-128701145D01*
X151836288Y-128824227D01*
X151749995Y-128870351D01*
X151746410Y-128867409D01*
X151537942Y-128755981D01*
X151311741Y-128687363D01*
X151076500Y-128664194D01*
X149230000Y-128664194D01*
X149230000Y-126226380D01*
X149447378Y-126183141D01*
X149811355Y-126032377D01*
X150138926Y-125813501D01*
X150417501Y-125534926D01*
X150636377Y-125207355D01*
X150787141Y-124843378D01*
X150864000Y-124456983D01*
X150864000Y-124063017D01*
X150787141Y-123676622D01*
X150636377Y-123312645D01*
X150604732Y-123265285D01*
X150666591Y-123189910D01*
X150778019Y-122981442D01*
X150846637Y-122755241D01*
X150869806Y-122520000D01*
X150869806Y-121976935D01*
X151323724Y-121523017D01*
X154484000Y-121523017D01*
X154484000Y-121916983D01*
X154560859Y-122303378D01*
X154711623Y-122667355D01*
X154927208Y-122990000D01*
X154711623Y-123312645D01*
X154560859Y-123676622D01*
X154484000Y-124063017D01*
X154484000Y-124456983D01*
X154560859Y-124843378D01*
X154711623Y-125207355D01*
X154930499Y-125534926D01*
X155209074Y-125813501D01*
X155536645Y-126032377D01*
X155900622Y-126183141D01*
X156287017Y-126260000D01*
X156680983Y-126260000D01*
X157067378Y-126183141D01*
X157431355Y-126032377D01*
X157758926Y-125813501D01*
X158037501Y-125534926D01*
X158256377Y-125207355D01*
X158407141Y-124843378D01*
X158446000Y-124648017D01*
X159554000Y-124648017D01*
X159554000Y-125041983D01*
X159630859Y-125428378D01*
X159781623Y-125792355D01*
X160000499Y-126119926D01*
X160279074Y-126398501D01*
X160606645Y-126617377D01*
X160970622Y-126768141D01*
X161357017Y-126845000D01*
X161750983Y-126845000D01*
X162137378Y-126768141D01*
X162501355Y-126617377D01*
X162828926Y-126398501D01*
X163107501Y-126119926D01*
X163326377Y-125792355D01*
X163477141Y-125428378D01*
X163554000Y-125041983D01*
X163554000Y-124648017D01*
X163477141Y-124261622D01*
X163326377Y-123897645D01*
X163107501Y-123570074D01*
X162828926Y-123291499D01*
X162501355Y-123072623D01*
X162137378Y-122921859D01*
X161750983Y-122845000D01*
X161357017Y-122845000D01*
X160970622Y-122921859D01*
X160606645Y-123072623D01*
X160279074Y-123291499D01*
X160000499Y-123570074D01*
X159781623Y-123897645D01*
X159630859Y-124261622D01*
X159554000Y-124648017D01*
X158446000Y-124648017D01*
X158484000Y-124456983D01*
X158484000Y-124063017D01*
X158407141Y-123676622D01*
X158256377Y-123312645D01*
X158040792Y-122990000D01*
X158256377Y-122667355D01*
X158407141Y-122303378D01*
X158484000Y-121916983D01*
X158484000Y-121523017D01*
X158407141Y-121136622D01*
X158256377Y-120772645D01*
X158037501Y-120445074D01*
X157758926Y-120166499D01*
X157431355Y-119947623D01*
X157067378Y-119796859D01*
X156680983Y-119720000D01*
X156287017Y-119720000D01*
X155900622Y-119796859D01*
X155536645Y-119947623D01*
X155209074Y-120166499D01*
X154930499Y-120445074D01*
X154711623Y-120772645D01*
X154560859Y-121136622D01*
X154484000Y-121523017D01*
X151323724Y-121523017D01*
X151755793Y-121090949D01*
X151816845Y-121040845D01*
X152016788Y-120797213D01*
X152165359Y-120519256D01*
X152256849Y-120217655D01*
X152280000Y-119982597D01*
X152280000Y-119982594D01*
X152287741Y-119904000D01*
X152280000Y-119825406D01*
X152280000Y-116173017D01*
X155744000Y-116173017D01*
X155744000Y-116566983D01*
X155820859Y-116953378D01*
X155971623Y-117317355D01*
X156190499Y-117644926D01*
X156469074Y-117923501D01*
X156796645Y-118142377D01*
X157160622Y-118293141D01*
X157547017Y-118370000D01*
X157940983Y-118370000D01*
X158327378Y-118293141D01*
X158691355Y-118142377D01*
X159018926Y-117923501D01*
X159297501Y-117644926D01*
X159516377Y-117317355D01*
X159667141Y-116953378D01*
X159744000Y-116566983D01*
X159744000Y-116173017D01*
X159667141Y-115786622D01*
X159516377Y-115422645D01*
X159297501Y-115095074D01*
X159018926Y-114816499D01*
X158691355Y-114597623D01*
X158327378Y-114446859D01*
X157940983Y-114370000D01*
X157547017Y-114370000D01*
X157160622Y-114446859D01*
X156796645Y-114597623D01*
X156469074Y-114816499D01*
X156190499Y-115095074D01*
X155971623Y-115422645D01*
X155820859Y-115786622D01*
X155744000Y-116173017D01*
X152280000Y-116173017D01*
X152280000Y-109369543D01*
X152622037Y-109511220D01*
X153018093Y-109590000D01*
X153421907Y-109590000D01*
X153817963Y-109511220D01*
X154191039Y-109356686D01*
X154490000Y-109156927D01*
X154788961Y-109356686D01*
X155162037Y-109511220D01*
X155558093Y-109590000D01*
X155961907Y-109590000D01*
X156357963Y-109511220D01*
X156731039Y-109356686D01*
X157066799Y-109132339D01*
X157352339Y-108846799D01*
X157576686Y-108511039D01*
X157731220Y-108137963D01*
X157810000Y-107741907D01*
X157810000Y-107338093D01*
X157731220Y-106942037D01*
X157576686Y-106568961D01*
X157352339Y-106233201D01*
X157135523Y-106016385D01*
X158055000Y-106016385D01*
X158055000Y-106523615D01*
X158153956Y-107021100D01*
X158348065Y-107489720D01*
X158629867Y-107911467D01*
X158988533Y-108270133D01*
X159410280Y-108551935D01*
X159878900Y-108746044D01*
X160376385Y-108845000D01*
X160883615Y-108845000D01*
X161381100Y-108746044D01*
X161849720Y-108551935D01*
X162271467Y-108270133D01*
X162630133Y-107911467D01*
X162911935Y-107489720D01*
X163106044Y-107021100D01*
X163205000Y-106523615D01*
X163205000Y-106016385D01*
X163106044Y-105518900D01*
X162911935Y-105050280D01*
X162630133Y-104628533D01*
X162271467Y-104269867D01*
X161849720Y-103988065D01*
X161381100Y-103793956D01*
X160883615Y-103695000D01*
X160376385Y-103695000D01*
X159878900Y-103793956D01*
X159410280Y-103988065D01*
X158988533Y-104269867D01*
X158629867Y-104628533D01*
X158348065Y-105050280D01*
X158153956Y-105518900D01*
X158055000Y-106016385D01*
X157135523Y-106016385D01*
X157066799Y-105947661D01*
X156731039Y-105723314D01*
X156357963Y-105568780D01*
X155961907Y-105490000D01*
X155558093Y-105490000D01*
X155198466Y-105561534D01*
X155270000Y-105201907D01*
X155270000Y-104798093D01*
X155191220Y-104402037D01*
X155036686Y-104028961D01*
X154812339Y-103693201D01*
X154579138Y-103460000D01*
X166530000Y-103460000D01*
X166530001Y-114359766D01*
G04 #@! TA.AperFunction,Conductor*
D35*
G36*
X166530001Y-114359766D02*
G01*
X166468802Y-114309542D01*
X166217113Y-114175011D01*
X165944014Y-114092167D01*
X165660000Y-114064194D01*
X164160000Y-114064194D01*
X163875986Y-114092167D01*
X163602887Y-114175011D01*
X163351198Y-114309542D01*
X163130590Y-114490590D01*
X162949542Y-114711198D01*
X162815011Y-114962887D01*
X162732167Y-115235986D01*
X162704194Y-115520000D01*
X162704194Y-116720000D01*
X162732167Y-117004014D01*
X162815011Y-117277113D01*
X162949542Y-117528802D01*
X162991475Y-117579898D01*
X162856883Y-117831703D01*
X162739662Y-118218130D01*
X162700081Y-118620000D01*
X162739662Y-119021870D01*
X162856883Y-119408297D01*
X163047240Y-119764430D01*
X163303417Y-120076583D01*
X163615570Y-120332760D01*
X163971703Y-120523117D01*
X164358130Y-120640338D01*
X164659291Y-120670000D01*
X165160709Y-120670000D01*
X165461870Y-120640338D01*
X165848297Y-120523117D01*
X166204430Y-120332760D01*
X166341829Y-120220000D01*
X166631406Y-120220000D01*
X166710000Y-120227741D01*
X166788594Y-120220000D01*
X166788597Y-120220000D01*
X167023655Y-120196849D01*
X167325256Y-120105359D01*
X167603213Y-119956788D01*
X167846845Y-119756845D01*
X167896953Y-119695788D01*
X168750001Y-118842741D01*
X168750000Y-144012916D01*
X168579250Y-143942189D01*
X167864418Y-143800000D01*
X167135582Y-143800000D01*
X166420750Y-143942189D01*
X165747393Y-144221102D01*
X165141387Y-144626022D01*
X164626022Y-145141387D01*
X164221102Y-145747393D01*
X163942189Y-146420750D01*
X163800000Y-147135582D01*
X163800000Y-147864418D01*
X163942189Y-148579250D01*
X164012916Y-148750000D01*
X160232741Y-148750000D01*
X162605794Y-146376948D01*
X162666845Y-146326845D01*
X162841354Y-146114205D01*
X162866788Y-146083214D01*
X162918539Y-145986394D01*
X163015359Y-145805256D01*
X163106849Y-145503655D01*
X163130000Y-145268597D01*
X163130000Y-145268595D01*
X163137741Y-145190001D01*
X163130000Y-145111407D01*
X163130000Y-136246254D01*
X163326377Y-135952355D01*
X163477141Y-135588378D01*
X163554000Y-135201983D01*
X163554000Y-134808017D01*
X163477141Y-134421622D01*
X163326377Y-134057645D01*
X163107501Y-133730074D01*
X162828926Y-133451499D01*
X162501355Y-133232623D01*
X162137378Y-133081859D01*
X161750983Y-133005000D01*
X161357017Y-133005000D01*
X160970622Y-133081859D01*
X160606645Y-133232623D01*
X160279074Y-133451499D01*
X160000499Y-133730074D01*
X159873413Y-133920271D01*
X159846591Y-133870090D01*
X159696634Y-133687366D01*
X159513910Y-133537409D01*
X159305442Y-133425981D01*
X159079241Y-133357363D01*
X158844000Y-133334194D01*
X156644000Y-133334194D01*
X156408759Y-133357363D01*
X156182558Y-133425981D01*
X155974090Y-133537409D01*
X155791366Y-133687366D01*
X155641409Y-133870090D01*
X155529981Y-134078558D01*
X155461363Y-134304759D01*
X155438194Y-134540000D01*
X155438194Y-136740000D01*
X155461363Y-136975241D01*
X155529981Y-137201442D01*
X155641409Y-137409910D01*
X155790001Y-137590970D01*
X155790000Y-139152284D01*
X154431526Y-140510759D01*
X154416439Y-140513760D01*
X153925070Y-140717291D01*
X153482850Y-141012773D01*
X153106773Y-141388850D01*
X152829806Y-141803360D01*
X152829806Y-141610000D01*
X152806637Y-141374759D01*
X152738019Y-141148558D01*
X152626591Y-140940090D01*
X152476634Y-140757366D01*
X152293910Y-140607409D01*
X152085442Y-140495981D01*
X151859241Y-140427363D01*
X151724000Y-140414043D01*
X151724000Y-138258593D01*
X151731741Y-138179999D01*
X151723187Y-138093151D01*
X151700849Y-137866345D01*
X151609359Y-137564744D01*
X151460788Y-137286787D01*
X151260845Y-137043155D01*
X151199793Y-136993051D01*
X149884000Y-135677259D01*
X149884000Y-135413470D01*
X149795613Y-134969115D01*
X149622234Y-134550541D01*
X149370527Y-134173835D01*
X149050165Y-133853473D01*
X148673459Y-133601766D01*
X148254885Y-133428387D01*
X147810530Y-133340000D01*
X147357470Y-133340000D01*
X147214254Y-133368487D01*
X148124993Y-132457749D01*
X148168909Y-132539910D01*
X148318866Y-132722634D01*
X148501590Y-132872591D01*
X148710058Y-132984019D01*
X148936259Y-133052637D01*
X149171500Y-133075806D01*
X151076500Y-133075806D01*
X151311741Y-133052637D01*
X151537942Y-132984019D01*
X151746410Y-132872591D01*
X151749996Y-132869648D01*
X151836289Y-132915773D01*
X152242037Y-133038855D01*
X152664000Y-133080415D01*
X153085964Y-133038855D01*
X153491712Y-132915773D01*
X153865651Y-132715898D01*
X154193412Y-132446912D01*
X154462398Y-132119151D01*
X154662273Y-131745211D01*
X154785355Y-131339463D01*
X154816500Y-131023244D01*
X154816500Y-130716755D01*
X154785355Y-130400536D01*
X154662273Y-129994788D01*
X154462398Y-129620849D01*
X154193412Y-129293088D01*
X153865651Y-129024102D01*
X153491711Y-128824227D01*
X153085963Y-128701145D01*
X152664000Y-128659585D01*
X152242036Y-128701145D01*
X151836288Y-128824227D01*
X151749995Y-128870351D01*
X151746410Y-128867409D01*
X151537942Y-128755981D01*
X151311741Y-128687363D01*
X151076500Y-128664194D01*
X149230000Y-128664194D01*
X149230000Y-126226380D01*
X149447378Y-126183141D01*
X149811355Y-126032377D01*
X150138926Y-125813501D01*
X150417501Y-125534926D01*
X150636377Y-125207355D01*
X150787141Y-124843378D01*
X150864000Y-124456983D01*
X150864000Y-124063017D01*
X150787141Y-123676622D01*
X150636377Y-123312645D01*
X150604732Y-123265285D01*
X150666591Y-123189910D01*
X150778019Y-122981442D01*
X150846637Y-122755241D01*
X150869806Y-122520000D01*
X150869806Y-121976935D01*
X151323724Y-121523017D01*
X154484000Y-121523017D01*
X154484000Y-121916983D01*
X154560859Y-122303378D01*
X154711623Y-122667355D01*
X154927208Y-122990000D01*
X154711623Y-123312645D01*
X154560859Y-123676622D01*
X154484000Y-124063017D01*
X154484000Y-124456983D01*
X154560859Y-124843378D01*
X154711623Y-125207355D01*
X154930499Y-125534926D01*
X155209074Y-125813501D01*
X155536645Y-126032377D01*
X155900622Y-126183141D01*
X156287017Y-126260000D01*
X156680983Y-126260000D01*
X157067378Y-126183141D01*
X157431355Y-126032377D01*
X157758926Y-125813501D01*
X158037501Y-125534926D01*
X158256377Y-125207355D01*
X158407141Y-124843378D01*
X158446000Y-124648017D01*
X159554000Y-124648017D01*
X159554000Y-125041983D01*
X159630859Y-125428378D01*
X159781623Y-125792355D01*
X160000499Y-126119926D01*
X160279074Y-126398501D01*
X160606645Y-126617377D01*
X160970622Y-126768141D01*
X161357017Y-126845000D01*
X161750983Y-126845000D01*
X162137378Y-126768141D01*
X162501355Y-126617377D01*
X162828926Y-126398501D01*
X163107501Y-126119926D01*
X163326377Y-125792355D01*
X163477141Y-125428378D01*
X163554000Y-125041983D01*
X163554000Y-124648017D01*
X163477141Y-124261622D01*
X163326377Y-123897645D01*
X163107501Y-123570074D01*
X162828926Y-123291499D01*
X162501355Y-123072623D01*
X162137378Y-122921859D01*
X161750983Y-122845000D01*
X161357017Y-122845000D01*
X160970622Y-122921859D01*
X160606645Y-123072623D01*
X160279074Y-123291499D01*
X160000499Y-123570074D01*
X159781623Y-123897645D01*
X159630859Y-124261622D01*
X159554000Y-124648017D01*
X158446000Y-124648017D01*
X158484000Y-124456983D01*
X158484000Y-124063017D01*
X158407141Y-123676622D01*
X158256377Y-123312645D01*
X158040792Y-122990000D01*
X158256377Y-122667355D01*
X158407141Y-122303378D01*
X158484000Y-121916983D01*
X158484000Y-121523017D01*
X158407141Y-121136622D01*
X158256377Y-120772645D01*
X158037501Y-120445074D01*
X157758926Y-120166499D01*
X157431355Y-119947623D01*
X157067378Y-119796859D01*
X156680983Y-119720000D01*
X156287017Y-119720000D01*
X155900622Y-119796859D01*
X155536645Y-119947623D01*
X155209074Y-120166499D01*
X154930499Y-120445074D01*
X154711623Y-120772645D01*
X154560859Y-121136622D01*
X154484000Y-121523017D01*
X151323724Y-121523017D01*
X151755793Y-121090949D01*
X151816845Y-121040845D01*
X152016788Y-120797213D01*
X152165359Y-120519256D01*
X152256849Y-120217655D01*
X152280000Y-119982597D01*
X152280000Y-119982594D01*
X152287741Y-119904000D01*
X152280000Y-119825406D01*
X152280000Y-116173017D01*
X155744000Y-116173017D01*
X155744000Y-116566983D01*
X155820859Y-116953378D01*
X155971623Y-117317355D01*
X156190499Y-117644926D01*
X156469074Y-117923501D01*
X156796645Y-118142377D01*
X157160622Y-118293141D01*
X157547017Y-118370000D01*
X157940983Y-118370000D01*
X158327378Y-118293141D01*
X158691355Y-118142377D01*
X159018926Y-117923501D01*
X159297501Y-117644926D01*
X159516377Y-117317355D01*
X159667141Y-116953378D01*
X159744000Y-116566983D01*
X159744000Y-116173017D01*
X159667141Y-115786622D01*
X159516377Y-115422645D01*
X159297501Y-115095074D01*
X159018926Y-114816499D01*
X158691355Y-114597623D01*
X158327378Y-114446859D01*
X157940983Y-114370000D01*
X157547017Y-114370000D01*
X157160622Y-114446859D01*
X156796645Y-114597623D01*
X156469074Y-114816499D01*
X156190499Y-115095074D01*
X155971623Y-115422645D01*
X155820859Y-115786622D01*
X155744000Y-116173017D01*
X152280000Y-116173017D01*
X152280000Y-109369543D01*
X152622037Y-109511220D01*
X153018093Y-109590000D01*
X153421907Y-109590000D01*
X153817963Y-109511220D01*
X154191039Y-109356686D01*
X154490000Y-109156927D01*
X154788961Y-109356686D01*
X155162037Y-109511220D01*
X155558093Y-109590000D01*
X155961907Y-109590000D01*
X156357963Y-109511220D01*
X156731039Y-109356686D01*
X157066799Y-109132339D01*
X157352339Y-108846799D01*
X157576686Y-108511039D01*
X157731220Y-108137963D01*
X157810000Y-107741907D01*
X157810000Y-107338093D01*
X157731220Y-106942037D01*
X157576686Y-106568961D01*
X157352339Y-106233201D01*
X157135523Y-106016385D01*
X158055000Y-106016385D01*
X158055000Y-106523615D01*
X158153956Y-107021100D01*
X158348065Y-107489720D01*
X158629867Y-107911467D01*
X158988533Y-108270133D01*
X159410280Y-108551935D01*
X159878900Y-108746044D01*
X160376385Y-108845000D01*
X160883615Y-108845000D01*
X161381100Y-108746044D01*
X161849720Y-108551935D01*
X162271467Y-108270133D01*
X162630133Y-107911467D01*
X162911935Y-107489720D01*
X163106044Y-107021100D01*
X163205000Y-106523615D01*
X163205000Y-106016385D01*
X163106044Y-105518900D01*
X162911935Y-105050280D01*
X162630133Y-104628533D01*
X162271467Y-104269867D01*
X161849720Y-103988065D01*
X161381100Y-103793956D01*
X160883615Y-103695000D01*
X160376385Y-103695000D01*
X159878900Y-103793956D01*
X159410280Y-103988065D01*
X158988533Y-104269867D01*
X158629867Y-104628533D01*
X158348065Y-105050280D01*
X158153956Y-105518900D01*
X158055000Y-106016385D01*
X157135523Y-106016385D01*
X157066799Y-105947661D01*
X156731039Y-105723314D01*
X156357963Y-105568780D01*
X155961907Y-105490000D01*
X155558093Y-105490000D01*
X155198466Y-105561534D01*
X155270000Y-105201907D01*
X155270000Y-104798093D01*
X155191220Y-104402037D01*
X155036686Y-104028961D01*
X154812339Y-103693201D01*
X154579138Y-103460000D01*
X166530000Y-103460000D01*
X166530001Y-114359766D01*
G37*
G04 #@! TD.AperFunction*
D31*
X89660266Y-136729459D02*
X89911973Y-137106165D01*
X90232335Y-137426527D01*
X90609041Y-137678234D01*
X91027615Y-137851613D01*
X91471970Y-137940000D01*
X91735759Y-137940000D01*
X92638501Y-138842743D01*
X92638501Y-140414043D01*
X92503259Y-140427363D01*
X92277058Y-140495981D01*
X92068590Y-140607409D01*
X91885866Y-140757366D01*
X91735909Y-140940090D01*
X91624481Y-141148558D01*
X91555863Y-141374759D01*
X91532694Y-141610000D01*
X91532694Y-144610000D01*
X91555863Y-144845241D01*
X91624481Y-145071442D01*
X91735909Y-145279910D01*
X91885866Y-145462634D01*
X92041063Y-145590000D01*
X86202742Y-145590000D01*
X86875794Y-144916948D01*
X86936845Y-144866845D01*
X87136788Y-144623213D01*
X87285359Y-144345256D01*
X87376849Y-144043655D01*
X87400000Y-143808597D01*
X87400000Y-143808596D01*
X87407741Y-143730000D01*
X87400000Y-143651403D01*
X87400000Y-140332741D01*
X89135794Y-138596948D01*
X89196845Y-138546845D01*
X89396788Y-138303213D01*
X89545359Y-138025256D01*
X89636849Y-137723655D01*
X89660000Y-137488597D01*
X89660000Y-137488596D01*
X89667741Y-137410000D01*
X89660000Y-137331403D01*
X89660000Y-136728817D01*
X89660266Y-136729459D01*
G04 #@! TA.AperFunction,Conductor*
D35*
G36*
X89660266Y-136729459D02*
G01*
X89911973Y-137106165D01*
X90232335Y-137426527D01*
X90609041Y-137678234D01*
X91027615Y-137851613D01*
X91471970Y-137940000D01*
X91735759Y-137940000D01*
X92638501Y-138842743D01*
X92638501Y-140414043D01*
X92503259Y-140427363D01*
X92277058Y-140495981D01*
X92068590Y-140607409D01*
X91885866Y-140757366D01*
X91735909Y-140940090D01*
X91624481Y-141148558D01*
X91555863Y-141374759D01*
X91532694Y-141610000D01*
X91532694Y-144610000D01*
X91555863Y-144845241D01*
X91624481Y-145071442D01*
X91735909Y-145279910D01*
X91885866Y-145462634D01*
X92041063Y-145590000D01*
X86202742Y-145590000D01*
X86875794Y-144916948D01*
X86936845Y-144866845D01*
X87136788Y-144623213D01*
X87285359Y-144345256D01*
X87376849Y-144043655D01*
X87400000Y-143808597D01*
X87400000Y-143808596D01*
X87407741Y-143730000D01*
X87400000Y-143651403D01*
X87400000Y-140332741D01*
X89135794Y-138596948D01*
X89196845Y-138546845D01*
X89396788Y-138303213D01*
X89545359Y-138025256D01*
X89636849Y-137723655D01*
X89660000Y-137488597D01*
X89660000Y-137488596D01*
X89667741Y-137410000D01*
X89660000Y-137331403D01*
X89660000Y-136728817D01*
X89660266Y-136729459D01*
G37*
G04 #@! TD.AperFunction*
D31*
X72654207Y-81873052D02*
X72593156Y-81923155D01*
X72543053Y-81984206D01*
X72393212Y-82166787D01*
X72244641Y-82444745D01*
X72194512Y-82610000D01*
X72154096Y-82743235D01*
X72153152Y-82746346D01*
X72122259Y-83060000D01*
X72130001Y-83138604D01*
X72130000Y-89825964D01*
X72009910Y-89727409D01*
X71801442Y-89615981D01*
X71575241Y-89547363D01*
X71340000Y-89524194D01*
X68740000Y-89524194D01*
X68504759Y-89547363D01*
X68278558Y-89615981D01*
X68070090Y-89727409D01*
X67887366Y-89877366D01*
X67737409Y-90060090D01*
X67625981Y-90268558D01*
X67557363Y-90494759D01*
X67534194Y-90730000D01*
X67534194Y-93330000D01*
X67557363Y-93565241D01*
X67625981Y-93791442D01*
X67737409Y-93999910D01*
X67887366Y-94182634D01*
X68070090Y-94332591D01*
X68278558Y-94444019D01*
X68440000Y-94492992D01*
X68440001Y-100557257D01*
X68253064Y-100744194D01*
X66710000Y-100744194D01*
X66474759Y-100767363D01*
X66248558Y-100835981D01*
X66040090Y-100947409D01*
X65857366Y-101097366D01*
X65707409Y-101280090D01*
X65595981Y-101488558D01*
X65527363Y-101714759D01*
X65504194Y-101950000D01*
X65504194Y-104550000D01*
X65527363Y-104785241D01*
X65595981Y-105011442D01*
X65707409Y-105219910D01*
X65857366Y-105402634D01*
X66040090Y-105552591D01*
X66248558Y-105664019D01*
X66474759Y-105732637D01*
X66710000Y-105755806D01*
X69310000Y-105755806D01*
X69545241Y-105732637D01*
X69771442Y-105664019D01*
X69979910Y-105552591D01*
X70162634Y-105402634D01*
X70312591Y-105219910D01*
X70424019Y-105011442D01*
X70472992Y-104850000D01*
X70997259Y-104850000D01*
X71380001Y-105232743D01*
X71380000Y-108567258D01*
X65364208Y-114583051D01*
X65303156Y-114633155D01*
X65253053Y-114694206D01*
X65103212Y-114876787D01*
X64954641Y-115154745D01*
X64863152Y-115456346D01*
X64832259Y-115770000D01*
X64840001Y-115848603D01*
X64840001Y-115893352D01*
X64660590Y-116040590D01*
X64479542Y-116261198D01*
X64345011Y-116512887D01*
X64262167Y-116785986D01*
X64234194Y-117070000D01*
X64234194Y-118270000D01*
X64262167Y-118554014D01*
X64345011Y-118827113D01*
X64479542Y-119078802D01*
X64521475Y-119129898D01*
X64386883Y-119381703D01*
X64269662Y-119768130D01*
X64244435Y-120024265D01*
X64228215Y-120077734D01*
X64190565Y-120460000D01*
X64200000Y-120555795D01*
X64200001Y-125294195D01*
X64190565Y-125390000D01*
X64228215Y-125772266D01*
X64320049Y-126075000D01*
X64339719Y-126139843D01*
X64520790Y-126478604D01*
X64764471Y-126775530D01*
X64838884Y-126836599D01*
X66353404Y-128351121D01*
X66414470Y-128425530D01*
X66711396Y-128669211D01*
X67050157Y-128850282D01*
X67262660Y-128914744D01*
X67417732Y-128961785D01*
X67799999Y-128999435D01*
X67895794Y-128990000D01*
X71627259Y-128990000D01*
X70997259Y-129620000D01*
X65145333Y-129620000D01*
X64821039Y-129403314D01*
X64447963Y-129248780D01*
X64051907Y-129170000D01*
X63648093Y-129170000D01*
X63252037Y-129248780D01*
X62878961Y-129403314D01*
X62543201Y-129627661D01*
X62257661Y-129913201D01*
X62033314Y-130248961D01*
X61878780Y-130622037D01*
X61800000Y-131018093D01*
X61800000Y-131421907D01*
X61878780Y-131817963D01*
X62033314Y-132191039D01*
X62233073Y-132490000D01*
X62033314Y-132788961D01*
X61878780Y-133162037D01*
X61800000Y-133558093D01*
X61800000Y-133961907D01*
X61878780Y-134357963D01*
X62033314Y-134731039D01*
X62233073Y-135030000D01*
X62033314Y-135328961D01*
X61878780Y-135702037D01*
X61800000Y-136098093D01*
X61800000Y-136501907D01*
X61878780Y-136897963D01*
X62033314Y-137271039D01*
X62233073Y-137570000D01*
X62033314Y-137868961D01*
X61878780Y-138242037D01*
X61800000Y-138638093D01*
X61800000Y-139041907D01*
X61878780Y-139437963D01*
X62033314Y-139811039D01*
X62233073Y-140110000D01*
X62033314Y-140408961D01*
X61878780Y-140782037D01*
X61800000Y-141178093D01*
X61800000Y-141581907D01*
X61878780Y-141977963D01*
X62033314Y-142351039D01*
X62257661Y-142686799D01*
X62543201Y-142972339D01*
X62878961Y-143196686D01*
X63252037Y-143351220D01*
X63634569Y-143427310D01*
X64782270Y-144575011D01*
X64252607Y-144221102D01*
X63579250Y-143942189D01*
X62864418Y-143800000D01*
X62135582Y-143800000D01*
X61420750Y-143942189D01*
X60747393Y-144221102D01*
X60400000Y-144453222D01*
X60400000Y-85546778D01*
X60747393Y-85778898D01*
X61420750Y-86057811D01*
X62135582Y-86200000D01*
X62864418Y-86200000D01*
X63579250Y-86057811D01*
X64252607Y-85778898D01*
X64858613Y-85373978D01*
X65373978Y-84858613D01*
X65778898Y-84252607D01*
X66057811Y-83579250D01*
X66200000Y-82864418D01*
X66200000Y-82135582D01*
X66057811Y-81420750D01*
X65987084Y-81250000D01*
X73277259Y-81250000D01*
X72654207Y-81873052D01*
G04 #@! TA.AperFunction,Conductor*
D35*
G36*
X72654207Y-81873052D02*
G01*
X72593156Y-81923155D01*
X72543053Y-81984206D01*
X72393212Y-82166787D01*
X72244641Y-82444745D01*
X72194512Y-82610000D01*
X72154096Y-82743235D01*
X72153152Y-82746346D01*
X72122259Y-83060000D01*
X72130001Y-83138604D01*
X72130000Y-89825964D01*
X72009910Y-89727409D01*
X71801442Y-89615981D01*
X71575241Y-89547363D01*
X71340000Y-89524194D01*
X68740000Y-89524194D01*
X68504759Y-89547363D01*
X68278558Y-89615981D01*
X68070090Y-89727409D01*
X67887366Y-89877366D01*
X67737409Y-90060090D01*
X67625981Y-90268558D01*
X67557363Y-90494759D01*
X67534194Y-90730000D01*
X67534194Y-93330000D01*
X67557363Y-93565241D01*
X67625981Y-93791442D01*
X67737409Y-93999910D01*
X67887366Y-94182634D01*
X68070090Y-94332591D01*
X68278558Y-94444019D01*
X68440000Y-94492992D01*
X68440001Y-100557257D01*
X68253064Y-100744194D01*
X66710000Y-100744194D01*
X66474759Y-100767363D01*
X66248558Y-100835981D01*
X66040090Y-100947409D01*
X65857366Y-101097366D01*
X65707409Y-101280090D01*
X65595981Y-101488558D01*
X65527363Y-101714759D01*
X65504194Y-101950000D01*
X65504194Y-104550000D01*
X65527363Y-104785241D01*
X65595981Y-105011442D01*
X65707409Y-105219910D01*
X65857366Y-105402634D01*
X66040090Y-105552591D01*
X66248558Y-105664019D01*
X66474759Y-105732637D01*
X66710000Y-105755806D01*
X69310000Y-105755806D01*
X69545241Y-105732637D01*
X69771442Y-105664019D01*
X69979910Y-105552591D01*
X70162634Y-105402634D01*
X70312591Y-105219910D01*
X70424019Y-105011442D01*
X70472992Y-104850000D01*
X70997259Y-104850000D01*
X71380001Y-105232743D01*
X71380000Y-108567258D01*
X65364208Y-114583051D01*
X65303156Y-114633155D01*
X65253053Y-114694206D01*
X65103212Y-114876787D01*
X64954641Y-115154745D01*
X64863152Y-115456346D01*
X64832259Y-115770000D01*
X64840001Y-115848603D01*
X64840001Y-115893352D01*
X64660590Y-116040590D01*
X64479542Y-116261198D01*
X64345011Y-116512887D01*
X64262167Y-116785986D01*
X64234194Y-117070000D01*
X64234194Y-118270000D01*
X64262167Y-118554014D01*
X64345011Y-118827113D01*
X64479542Y-119078802D01*
X64521475Y-119129898D01*
X64386883Y-119381703D01*
X64269662Y-119768130D01*
X64244435Y-120024265D01*
X64228215Y-120077734D01*
X64190565Y-120460000D01*
X64200000Y-120555795D01*
X64200001Y-125294195D01*
X64190565Y-125390000D01*
X64228215Y-125772266D01*
X64320049Y-126075000D01*
X64339719Y-126139843D01*
X64520790Y-126478604D01*
X64764471Y-126775530D01*
X64838884Y-126836599D01*
X66353404Y-128351121D01*
X66414470Y-128425530D01*
X66711396Y-128669211D01*
X67050157Y-128850282D01*
X67262660Y-128914744D01*
X67417732Y-128961785D01*
X67799999Y-128999435D01*
X67895794Y-128990000D01*
X71627259Y-128990000D01*
X70997259Y-129620000D01*
X65145333Y-129620000D01*
X64821039Y-129403314D01*
X64447963Y-129248780D01*
X64051907Y-129170000D01*
X63648093Y-129170000D01*
X63252037Y-129248780D01*
X62878961Y-129403314D01*
X62543201Y-129627661D01*
X62257661Y-129913201D01*
X62033314Y-130248961D01*
X61878780Y-130622037D01*
X61800000Y-131018093D01*
X61800000Y-131421907D01*
X61878780Y-131817963D01*
X62033314Y-132191039D01*
X62233073Y-132490000D01*
X62033314Y-132788961D01*
X61878780Y-133162037D01*
X61800000Y-133558093D01*
X61800000Y-133961907D01*
X61878780Y-134357963D01*
X62033314Y-134731039D01*
X62233073Y-135030000D01*
X62033314Y-135328961D01*
X61878780Y-135702037D01*
X61800000Y-136098093D01*
X61800000Y-136501907D01*
X61878780Y-136897963D01*
X62033314Y-137271039D01*
X62233073Y-137570000D01*
X62033314Y-137868961D01*
X61878780Y-138242037D01*
X61800000Y-138638093D01*
X61800000Y-139041907D01*
X61878780Y-139437963D01*
X62033314Y-139811039D01*
X62233073Y-140110000D01*
X62033314Y-140408961D01*
X61878780Y-140782037D01*
X61800000Y-141178093D01*
X61800000Y-141581907D01*
X61878780Y-141977963D01*
X62033314Y-142351039D01*
X62257661Y-142686799D01*
X62543201Y-142972339D01*
X62878961Y-143196686D01*
X63252037Y-143351220D01*
X63634569Y-143427310D01*
X64782270Y-144575011D01*
X64252607Y-144221102D01*
X63579250Y-143942189D01*
X62864418Y-143800000D01*
X62135582Y-143800000D01*
X61420750Y-143942189D01*
X60747393Y-144221102D01*
X60400000Y-144453222D01*
X60400000Y-85546778D01*
X60747393Y-85778898D01*
X61420750Y-86057811D01*
X62135582Y-86200000D01*
X62864418Y-86200000D01*
X63579250Y-86057811D01*
X64252607Y-85778898D01*
X64858613Y-85373978D01*
X65373978Y-84858613D01*
X65778898Y-84252607D01*
X66057811Y-83579250D01*
X66200000Y-82864418D01*
X66200000Y-82135582D01*
X66057811Y-81420750D01*
X65987084Y-81250000D01*
X73277259Y-81250000D01*
X72654207Y-81873052D01*
G37*
G04 #@! TD.AperFunction*
D31*
X70858387Y-134969115D02*
X70770000Y-135413470D01*
X70770000Y-135866530D01*
X70858387Y-136310885D01*
X71031766Y-136729459D01*
X71283473Y-137106165D01*
X71603835Y-137426527D01*
X71980541Y-137678234D01*
X72399115Y-137851613D01*
X72843470Y-137940000D01*
X73107259Y-137940000D01*
X74010001Y-138842743D01*
X74010001Y-140414043D01*
X73874759Y-140427363D01*
X73648558Y-140495981D01*
X73440090Y-140607409D01*
X73257366Y-140757366D01*
X73107409Y-140940090D01*
X72995981Y-141148558D01*
X72927363Y-141374759D01*
X72904194Y-141610000D01*
X72904194Y-143091452D01*
X65897310Y-136084569D01*
X65821220Y-135702037D01*
X65679543Y-135360000D01*
X66711406Y-135360000D01*
X66790000Y-135367741D01*
X66868594Y-135360000D01*
X66868597Y-135360000D01*
X67103655Y-135336849D01*
X67405256Y-135245359D01*
X67683213Y-135096788D01*
X67926845Y-134896845D01*
X67976953Y-134835788D01*
X68212741Y-134600000D01*
X71011279Y-134600000D01*
X70858387Y-134969115D01*
G04 #@! TA.AperFunction,Conductor*
D35*
G36*
X70858387Y-134969115D02*
G01*
X70770000Y-135413470D01*
X70770000Y-135866530D01*
X70858387Y-136310885D01*
X71031766Y-136729459D01*
X71283473Y-137106165D01*
X71603835Y-137426527D01*
X71980541Y-137678234D01*
X72399115Y-137851613D01*
X72843470Y-137940000D01*
X73107259Y-137940000D01*
X74010001Y-138842743D01*
X74010001Y-140414043D01*
X73874759Y-140427363D01*
X73648558Y-140495981D01*
X73440090Y-140607409D01*
X73257366Y-140757366D01*
X73107409Y-140940090D01*
X72995981Y-141148558D01*
X72927363Y-141374759D01*
X72904194Y-141610000D01*
X72904194Y-143091452D01*
X65897310Y-136084569D01*
X65821220Y-135702037D01*
X65679543Y-135360000D01*
X66711406Y-135360000D01*
X66790000Y-135367741D01*
X66868594Y-135360000D01*
X66868597Y-135360000D01*
X67103655Y-135336849D01*
X67405256Y-135245359D01*
X67683213Y-135096788D01*
X67926845Y-134896845D01*
X67976953Y-134835788D01*
X68212741Y-134600000D01*
X71011279Y-134600000D01*
X70858387Y-134969115D01*
G37*
G04 #@! TD.AperFunction*
D31*
X148630000Y-107338093D02*
X148630000Y-107741907D01*
X148708780Y-108137963D01*
X148863314Y-108511039D01*
X149080000Y-108835334D01*
X149080001Y-119241257D01*
X148607065Y-119714194D01*
X148064000Y-119714194D01*
X147828759Y-119737363D01*
X147602558Y-119805981D01*
X147394090Y-119917409D01*
X147211366Y-120067366D01*
X147061409Y-120250090D01*
X146949981Y-120458558D01*
X146881363Y-120684759D01*
X146858194Y-120920000D01*
X146858194Y-122520000D01*
X146881363Y-122755241D01*
X146916662Y-122871604D01*
X146735256Y-122774641D01*
X146433655Y-122683151D01*
X146198597Y-122660000D01*
X146198594Y-122660000D01*
X146120000Y-122652259D01*
X146041406Y-122660000D01*
X145640000Y-122660000D01*
X145640000Y-119120335D01*
X145812377Y-118862355D01*
X145963141Y-118498378D01*
X146040000Y-118111983D01*
X146040000Y-117718017D01*
X145963141Y-117331622D01*
X145812377Y-116967645D01*
X145593501Y-116640074D01*
X145314926Y-116361499D01*
X144987355Y-116142623D01*
X144623378Y-115991859D01*
X144236983Y-115915000D01*
X143843017Y-115915000D01*
X143456622Y-115991859D01*
X143092645Y-116142623D01*
X142765074Y-116361499D01*
X142486499Y-116640074D01*
X142267623Y-116967645D01*
X142116859Y-117331622D01*
X142040000Y-117718017D01*
X142040000Y-118111983D01*
X142116859Y-118498378D01*
X142267623Y-118862355D01*
X142440000Y-119120336D01*
X142440001Y-122660000D01*
X139630924Y-122660000D01*
X139778641Y-122303378D01*
X139855500Y-121916983D01*
X139855500Y-121523017D01*
X139778641Y-121136622D01*
X139627877Y-120772645D01*
X139409001Y-120445074D01*
X139130426Y-120166499D01*
X138802855Y-119947623D01*
X138438878Y-119796859D01*
X138052483Y-119720000D01*
X137658517Y-119720000D01*
X137272122Y-119796859D01*
X136908145Y-119947623D01*
X136580574Y-120166499D01*
X136301999Y-120445074D01*
X136083123Y-120772645D01*
X135932359Y-121136622D01*
X135855500Y-121523017D01*
X135855500Y-121916983D01*
X135932359Y-122303378D01*
X136083123Y-122667355D01*
X136298708Y-122990000D01*
X136083123Y-123312645D01*
X135932359Y-123676622D01*
X135855500Y-124063017D01*
X135855500Y-124456983D01*
X135932359Y-124843378D01*
X136083123Y-125207355D01*
X136301999Y-125534926D01*
X136580574Y-125813501D01*
X136908145Y-126032377D01*
X137272122Y-126183141D01*
X137658517Y-126260000D01*
X138052483Y-126260000D01*
X138438878Y-126183141D01*
X138802855Y-126032377D01*
X139060835Y-125860000D01*
X144071405Y-125860000D01*
X144149999Y-125867741D01*
X144228593Y-125860000D01*
X145457259Y-125860000D01*
X146030001Y-126432742D01*
X146030001Y-127827747D01*
X145963141Y-127491622D01*
X145812377Y-127127645D01*
X145593501Y-126800074D01*
X145314926Y-126521499D01*
X144987355Y-126302623D01*
X144623378Y-126151859D01*
X144236983Y-126075000D01*
X143843017Y-126075000D01*
X143456622Y-126151859D01*
X143092645Y-126302623D01*
X142834665Y-126475000D01*
X131173593Y-126475000D01*
X131094999Y-126467259D01*
X131016405Y-126475000D01*
X131016403Y-126475000D01*
X130781345Y-126498151D01*
X130479744Y-126589641D01*
X130298606Y-126686461D01*
X130201786Y-126738212D01*
X130110473Y-126813151D01*
X129958155Y-126938155D01*
X129908051Y-126999207D01*
X125327259Y-131580000D01*
X117455389Y-131580000D01*
X117528355Y-131339463D01*
X117559500Y-131023244D01*
X117559500Y-130716755D01*
X117528355Y-130400536D01*
X117405273Y-129994788D01*
X117234342Y-129675000D01*
X124151331Y-129675000D01*
X124409311Y-129847377D01*
X124773288Y-129998141D01*
X125159683Y-130075000D01*
X125553649Y-130075000D01*
X125940044Y-129998141D01*
X126304021Y-129847377D01*
X126631592Y-129628501D01*
X126910167Y-129349926D01*
X127129043Y-129022355D01*
X127279807Y-128658378D01*
X127356666Y-128271983D01*
X127356666Y-127878017D01*
X127279807Y-127491622D01*
X127129043Y-127127645D01*
X126910167Y-126800074D01*
X126631592Y-126521499D01*
X126304021Y-126302623D01*
X125940044Y-126151859D01*
X125553649Y-126075000D01*
X125159683Y-126075000D01*
X124773288Y-126151859D01*
X124409311Y-126302623D01*
X124151331Y-126475000D01*
X115187741Y-126475000D01*
X117075793Y-124586949D01*
X117136845Y-124536845D01*
X117227000Y-124426990D01*
X117227000Y-124456983D01*
X117303859Y-124843378D01*
X117454623Y-125207355D01*
X117673499Y-125534926D01*
X117952074Y-125813501D01*
X118279645Y-126032377D01*
X118643622Y-126183141D01*
X119030017Y-126260000D01*
X119423983Y-126260000D01*
X119810378Y-126183141D01*
X120174355Y-126032377D01*
X120432335Y-125860000D01*
X123231406Y-125860000D01*
X123310000Y-125867741D01*
X123388594Y-125860000D01*
X123388597Y-125860000D01*
X123623655Y-125836849D01*
X123925256Y-125745359D01*
X124203213Y-125596788D01*
X124446845Y-125396845D01*
X124496953Y-125335788D01*
X126285794Y-123546948D01*
X126346845Y-123496845D01*
X126390229Y-123443982D01*
X126393151Y-123473654D01*
X126465955Y-123713655D01*
X126484641Y-123775255D01*
X126633212Y-124053213D01*
X126704635Y-124140241D01*
X126833155Y-124296845D01*
X126894212Y-124346953D01*
X127883051Y-125335793D01*
X127933155Y-125396845D01*
X128176787Y-125596788D01*
X128454744Y-125745359D01*
X128756345Y-125836849D01*
X128991403Y-125860000D01*
X128991406Y-125860000D01*
X129036866Y-125864477D01*
X129288145Y-126032377D01*
X129652122Y-126183141D01*
X130038517Y-126260000D01*
X130432483Y-126260000D01*
X130818878Y-126183141D01*
X131182855Y-126032377D01*
X131510426Y-125813501D01*
X131789001Y-125534926D01*
X132007877Y-125207355D01*
X132158641Y-124843378D01*
X132235500Y-124456983D01*
X132235500Y-124063017D01*
X132158641Y-123676622D01*
X132007877Y-123312645D01*
X131976232Y-123265285D01*
X132038091Y-123189910D01*
X132149519Y-122981442D01*
X132218137Y-122755241D01*
X132241306Y-122520000D01*
X132241306Y-120920000D01*
X132218137Y-120684759D01*
X132149519Y-120458558D01*
X132038091Y-120250090D01*
X131936473Y-120126268D01*
X137652742Y-114410000D01*
X146171406Y-114410000D01*
X146250000Y-114417741D01*
X146328594Y-114410000D01*
X146328597Y-114410000D01*
X146563655Y-114386849D01*
X146865256Y-114295359D01*
X147143213Y-114146788D01*
X147386845Y-113946845D01*
X147436953Y-113885788D01*
X147945788Y-113376953D01*
X148006845Y-113326845D01*
X148206788Y-113083213D01*
X148355359Y-112805256D01*
X148446849Y-112503655D01*
X148470000Y-112268597D01*
X148470000Y-112268595D01*
X148477741Y-112190001D01*
X148470000Y-112111407D01*
X148470000Y-108681403D01*
X148446849Y-108446345D01*
X148355359Y-108144744D01*
X148280000Y-108003757D01*
X148280000Y-107050000D01*
X148341907Y-107050000D01*
X148701534Y-106978466D01*
X148630000Y-107338093D01*
G04 #@! TA.AperFunction,Conductor*
D35*
G36*
X148630000Y-107338093D02*
G01*
X148630000Y-107741907D01*
X148708780Y-108137963D01*
X148863314Y-108511039D01*
X149080000Y-108835334D01*
X149080001Y-119241257D01*
X148607065Y-119714194D01*
X148064000Y-119714194D01*
X147828759Y-119737363D01*
X147602558Y-119805981D01*
X147394090Y-119917409D01*
X147211366Y-120067366D01*
X147061409Y-120250090D01*
X146949981Y-120458558D01*
X146881363Y-120684759D01*
X146858194Y-120920000D01*
X146858194Y-122520000D01*
X146881363Y-122755241D01*
X146916662Y-122871604D01*
X146735256Y-122774641D01*
X146433655Y-122683151D01*
X146198597Y-122660000D01*
X146198594Y-122660000D01*
X146120000Y-122652259D01*
X146041406Y-122660000D01*
X145640000Y-122660000D01*
X145640000Y-119120335D01*
X145812377Y-118862355D01*
X145963141Y-118498378D01*
X146040000Y-118111983D01*
X146040000Y-117718017D01*
X145963141Y-117331622D01*
X145812377Y-116967645D01*
X145593501Y-116640074D01*
X145314926Y-116361499D01*
X144987355Y-116142623D01*
X144623378Y-115991859D01*
X144236983Y-115915000D01*
X143843017Y-115915000D01*
X143456622Y-115991859D01*
X143092645Y-116142623D01*
X142765074Y-116361499D01*
X142486499Y-116640074D01*
X142267623Y-116967645D01*
X142116859Y-117331622D01*
X142040000Y-117718017D01*
X142040000Y-118111983D01*
X142116859Y-118498378D01*
X142267623Y-118862355D01*
X142440000Y-119120336D01*
X142440001Y-122660000D01*
X139630924Y-122660000D01*
X139778641Y-122303378D01*
X139855500Y-121916983D01*
X139855500Y-121523017D01*
X139778641Y-121136622D01*
X139627877Y-120772645D01*
X139409001Y-120445074D01*
X139130426Y-120166499D01*
X138802855Y-119947623D01*
X138438878Y-119796859D01*
X138052483Y-119720000D01*
X137658517Y-119720000D01*
X137272122Y-119796859D01*
X136908145Y-119947623D01*
X136580574Y-120166499D01*
X136301999Y-120445074D01*
X136083123Y-120772645D01*
X135932359Y-121136622D01*
X135855500Y-121523017D01*
X135855500Y-121916983D01*
X135932359Y-122303378D01*
X136083123Y-122667355D01*
X136298708Y-122990000D01*
X136083123Y-123312645D01*
X135932359Y-123676622D01*
X135855500Y-124063017D01*
X135855500Y-124456983D01*
X135932359Y-124843378D01*
X136083123Y-125207355D01*
X136301999Y-125534926D01*
X136580574Y-125813501D01*
X136908145Y-126032377D01*
X137272122Y-126183141D01*
X137658517Y-126260000D01*
X138052483Y-126260000D01*
X138438878Y-126183141D01*
X138802855Y-126032377D01*
X139060835Y-125860000D01*
X144071405Y-125860000D01*
X144149999Y-125867741D01*
X144228593Y-125860000D01*
X145457259Y-125860000D01*
X146030001Y-126432742D01*
X146030001Y-127827747D01*
X145963141Y-127491622D01*
X145812377Y-127127645D01*
X145593501Y-126800074D01*
X145314926Y-126521499D01*
X144987355Y-126302623D01*
X144623378Y-126151859D01*
X144236983Y-126075000D01*
X143843017Y-126075000D01*
X143456622Y-126151859D01*
X143092645Y-126302623D01*
X142834665Y-126475000D01*
X131173593Y-126475000D01*
X131094999Y-126467259D01*
X131016405Y-126475000D01*
X131016403Y-126475000D01*
X130781345Y-126498151D01*
X130479744Y-126589641D01*
X130298606Y-126686461D01*
X130201786Y-126738212D01*
X130110473Y-126813151D01*
X129958155Y-126938155D01*
X129908051Y-126999207D01*
X125327259Y-131580000D01*
X117455389Y-131580000D01*
X117528355Y-131339463D01*
X117559500Y-131023244D01*
X117559500Y-130716755D01*
X117528355Y-130400536D01*
X117405273Y-129994788D01*
X117234342Y-129675000D01*
X124151331Y-129675000D01*
X124409311Y-129847377D01*
X124773288Y-129998141D01*
X125159683Y-130075000D01*
X125553649Y-130075000D01*
X125940044Y-129998141D01*
X126304021Y-129847377D01*
X126631592Y-129628501D01*
X126910167Y-129349926D01*
X127129043Y-129022355D01*
X127279807Y-128658378D01*
X127356666Y-128271983D01*
X127356666Y-127878017D01*
X127279807Y-127491622D01*
X127129043Y-127127645D01*
X126910167Y-126800074D01*
X126631592Y-126521499D01*
X126304021Y-126302623D01*
X125940044Y-126151859D01*
X125553649Y-126075000D01*
X125159683Y-126075000D01*
X124773288Y-126151859D01*
X124409311Y-126302623D01*
X124151331Y-126475000D01*
X115187741Y-126475000D01*
X117075793Y-124586949D01*
X117136845Y-124536845D01*
X117227000Y-124426990D01*
X117227000Y-124456983D01*
X117303859Y-124843378D01*
X117454623Y-125207355D01*
X117673499Y-125534926D01*
X117952074Y-125813501D01*
X118279645Y-126032377D01*
X118643622Y-126183141D01*
X119030017Y-126260000D01*
X119423983Y-126260000D01*
X119810378Y-126183141D01*
X120174355Y-126032377D01*
X120432335Y-125860000D01*
X123231406Y-125860000D01*
X123310000Y-125867741D01*
X123388594Y-125860000D01*
X123388597Y-125860000D01*
X123623655Y-125836849D01*
X123925256Y-125745359D01*
X124203213Y-125596788D01*
X124446845Y-125396845D01*
X124496953Y-125335788D01*
X126285794Y-123546948D01*
X126346845Y-123496845D01*
X126390229Y-123443982D01*
X126393151Y-123473654D01*
X126465955Y-123713655D01*
X126484641Y-123775255D01*
X126633212Y-124053213D01*
X126704635Y-124140241D01*
X126833155Y-124296845D01*
X126894212Y-124346953D01*
X127883051Y-125335793D01*
X127933155Y-125396845D01*
X128176787Y-125596788D01*
X128454744Y-125745359D01*
X128756345Y-125836849D01*
X128991403Y-125860000D01*
X128991406Y-125860000D01*
X129036866Y-125864477D01*
X129288145Y-126032377D01*
X129652122Y-126183141D01*
X130038517Y-126260000D01*
X130432483Y-126260000D01*
X130818878Y-126183141D01*
X131182855Y-126032377D01*
X131510426Y-125813501D01*
X131789001Y-125534926D01*
X132007877Y-125207355D01*
X132158641Y-124843378D01*
X132235500Y-124456983D01*
X132235500Y-124063017D01*
X132158641Y-123676622D01*
X132007877Y-123312645D01*
X131976232Y-123265285D01*
X132038091Y-123189910D01*
X132149519Y-122981442D01*
X132218137Y-122755241D01*
X132241306Y-122520000D01*
X132241306Y-120920000D01*
X132218137Y-120684759D01*
X132149519Y-120458558D01*
X132038091Y-120250090D01*
X131936473Y-120126268D01*
X137652742Y-114410000D01*
X146171406Y-114410000D01*
X146250000Y-114417741D01*
X146328594Y-114410000D01*
X146328597Y-114410000D01*
X146563655Y-114386849D01*
X146865256Y-114295359D01*
X147143213Y-114146788D01*
X147386845Y-113946845D01*
X147436953Y-113885788D01*
X147945788Y-113376953D01*
X148006845Y-113326845D01*
X148206788Y-113083213D01*
X148355359Y-112805256D01*
X148446849Y-112503655D01*
X148470000Y-112268597D01*
X148470000Y-112268595D01*
X148477741Y-112190001D01*
X148470000Y-112111407D01*
X148470000Y-108681403D01*
X148446849Y-108446345D01*
X148355359Y-108144744D01*
X148280000Y-108003757D01*
X148280000Y-107050000D01*
X148341907Y-107050000D01*
X148701534Y-106978466D01*
X148630000Y-107338093D01*
G37*
G04 #@! TD.AperFunction*
D31*
X85990000Y-130363017D02*
X85990000Y-130756983D01*
X86066859Y-131143378D01*
X86173155Y-131400000D01*
X80252991Y-131400000D01*
X80271355Y-131339463D01*
X80302500Y-131023244D01*
X80302500Y-130716755D01*
X80271355Y-130400536D01*
X80148273Y-129994788D01*
X80145714Y-129990000D01*
X86064198Y-129990000D01*
X85990000Y-130363017D01*
G04 #@! TA.AperFunction,Conductor*
D35*
G36*
X85990000Y-130363017D02*
G01*
X85990000Y-130756983D01*
X86066859Y-131143378D01*
X86173155Y-131400000D01*
X80252991Y-131400000D01*
X80271355Y-131339463D01*
X80302500Y-131023244D01*
X80302500Y-130716755D01*
X80271355Y-130400536D01*
X80148273Y-129994788D01*
X80145714Y-129990000D01*
X86064198Y-129990000D01*
X85990000Y-130363017D01*
G37*
G04 #@! TD.AperFunction*
D31*
X106577259Y-131220000D02*
X98911621Y-131220000D01*
X98931000Y-131023244D01*
X98931000Y-130716755D01*
X98899855Y-130400536D01*
X98776773Y-129994788D01*
X98605842Y-129675000D01*
X105467998Y-129675000D01*
X105725978Y-129847377D01*
X106089955Y-129998141D01*
X106476350Y-130075000D01*
X106870316Y-130075000D01*
X107256711Y-129998141D01*
X107620688Y-129847377D01*
X107948259Y-129628501D01*
X108226834Y-129349926D01*
X108445710Y-129022355D01*
X108596474Y-128658378D01*
X108673333Y-128271983D01*
X108673333Y-127878017D01*
X108647869Y-127750000D01*
X110047258Y-127750000D01*
X106577259Y-131220000D01*
G04 #@! TA.AperFunction,Conductor*
D35*
G36*
X106577259Y-131220000D02*
G01*
X98911621Y-131220000D01*
X98931000Y-131023244D01*
X98931000Y-130716755D01*
X98899855Y-130400536D01*
X98776773Y-129994788D01*
X98605842Y-129675000D01*
X105467998Y-129675000D01*
X105725978Y-129847377D01*
X106089955Y-129998141D01*
X106476350Y-130075000D01*
X106870316Y-130075000D01*
X107256711Y-129998141D01*
X107620688Y-129847377D01*
X107948259Y-129628501D01*
X108226834Y-129349926D01*
X108445710Y-129022355D01*
X108596474Y-128658378D01*
X108673333Y-128271983D01*
X108673333Y-127878017D01*
X108647869Y-127750000D01*
X110047258Y-127750000D01*
X106577259Y-131220000D01*
G37*
G04 #@! TD.AperFunction*
D31*
X146030000Y-130027258D02*
X144887259Y-131170000D01*
X136173546Y-131170000D01*
X136188000Y-131023244D01*
X136188000Y-130716755D01*
X136156855Y-130400536D01*
X136033773Y-129994788D01*
X135862842Y-129675000D01*
X142834665Y-129675000D01*
X143092645Y-129847377D01*
X143456622Y-129998141D01*
X143843017Y-130075000D01*
X144236983Y-130075000D01*
X144623378Y-129998141D01*
X144987355Y-129847377D01*
X145314926Y-129628501D01*
X145593501Y-129349926D01*
X145812377Y-129022355D01*
X145963141Y-128658378D01*
X146030000Y-128322254D01*
X146030000Y-130027258D01*
G04 #@! TA.AperFunction,Conductor*
D35*
G36*
X146030000Y-130027258D02*
G01*
X144887259Y-131170000D01*
X136173546Y-131170000D01*
X136188000Y-131023244D01*
X136188000Y-130716755D01*
X136156855Y-130400536D01*
X136033773Y-129994788D01*
X135862842Y-129675000D01*
X142834665Y-129675000D01*
X143092645Y-129847377D01*
X143456622Y-129998141D01*
X143843017Y-130075000D01*
X144236983Y-130075000D01*
X144623378Y-129998141D01*
X144987355Y-129847377D01*
X145314926Y-129628501D01*
X145593501Y-129349926D01*
X145812377Y-129022355D01*
X145963141Y-128658378D01*
X146030000Y-128322254D01*
X146030000Y-130027258D01*
G37*
G04 #@! TD.AperFunction*
D31*
X105725978Y-116142623D02*
X105398407Y-116361499D01*
X105119832Y-116640074D01*
X104900956Y-116967645D01*
X104750192Y-117331622D01*
X104673333Y-117718017D01*
X104673333Y-118111983D01*
X104750192Y-118498378D01*
X104900956Y-118862355D01*
X105119832Y-119189926D01*
X105398407Y-119468501D01*
X105725978Y-119687377D01*
X106089955Y-119838141D01*
X106476350Y-119915000D01*
X106870316Y-119915000D01*
X107256711Y-119838141D01*
X107620688Y-119687377D01*
X107948259Y-119468501D01*
X108226834Y-119189926D01*
X108445710Y-118862355D01*
X108596474Y-118498378D01*
X108673333Y-118111983D01*
X108673333Y-117718017D01*
X108596474Y-117331622D01*
X108445710Y-116967645D01*
X108226834Y-116640074D01*
X107948259Y-116361499D01*
X107620688Y-116142623D01*
X107614356Y-116140000D01*
X108376568Y-116140000D01*
X108370000Y-116173017D01*
X108370000Y-116566983D01*
X108446859Y-116953378D01*
X108597623Y-117317355D01*
X108816499Y-117644926D01*
X109095074Y-117923501D01*
X109422645Y-118142377D01*
X109786622Y-118293141D01*
X110173017Y-118370000D01*
X110566983Y-118370000D01*
X110953378Y-118293141D01*
X111317355Y-118142377D01*
X111610000Y-117946838D01*
X111610001Y-119454258D01*
X111350064Y-119714194D01*
X110807000Y-119714194D01*
X110571759Y-119737363D01*
X110345558Y-119805981D01*
X110137090Y-119917409D01*
X109954366Y-120067366D01*
X109804409Y-120250090D01*
X109692981Y-120458558D01*
X109624363Y-120684759D01*
X109601194Y-120920000D01*
X109601194Y-122520000D01*
X109624363Y-122755241D01*
X109692981Y-122981442D01*
X109804409Y-123189910D01*
X109866268Y-123265285D01*
X109834623Y-123312645D01*
X109683859Y-123676622D01*
X109607000Y-124063017D01*
X109607000Y-124456983D01*
X109625502Y-124550000D01*
X102579998Y-124550000D01*
X102598500Y-124456983D01*
X102598500Y-124063017D01*
X102521641Y-123676622D01*
X102370877Y-123312645D01*
X102155292Y-122990000D01*
X102370877Y-122667355D01*
X102521641Y-122303378D01*
X102598500Y-121916983D01*
X102598500Y-121523017D01*
X102521641Y-121136622D01*
X102370877Y-120772645D01*
X102152001Y-120445074D01*
X101873426Y-120166499D01*
X101545855Y-119947623D01*
X101181878Y-119796859D01*
X100795483Y-119720000D01*
X100401517Y-119720000D01*
X100015122Y-119796859D01*
X99651145Y-119947623D01*
X99323574Y-120166499D01*
X99044999Y-120445074D01*
X98826123Y-120772645D01*
X98675359Y-121136622D01*
X98598500Y-121523017D01*
X98598500Y-121916983D01*
X98675359Y-122303378D01*
X98826123Y-122667355D01*
X99041708Y-122990000D01*
X98826123Y-123312645D01*
X98675359Y-123676622D01*
X98645911Y-123824669D01*
X95465453Y-120644212D01*
X95415345Y-120583155D01*
X95171713Y-120383212D01*
X94893756Y-120234641D01*
X94726865Y-120184015D01*
X94631134Y-120067366D01*
X94448410Y-119917409D01*
X94239942Y-119805981D01*
X94013741Y-119737363D01*
X93778500Y-119714194D01*
X92178500Y-119714194D01*
X91943259Y-119737363D01*
X91717058Y-119805981D01*
X91508590Y-119917409D01*
X91325866Y-120067366D01*
X91175909Y-120250090D01*
X91064481Y-120458558D01*
X90995863Y-120684759D01*
X90972694Y-120920000D01*
X90972694Y-122520000D01*
X90995863Y-122755241D01*
X91064481Y-122981442D01*
X91175909Y-123189910D01*
X91237768Y-123265285D01*
X91206123Y-123312645D01*
X91055359Y-123676622D01*
X90978500Y-124063017D01*
X90978500Y-124456983D01*
X91055359Y-124843378D01*
X91206123Y-125207355D01*
X91424999Y-125534926D01*
X91703574Y-125813501D01*
X92031145Y-126032377D01*
X92395122Y-126183141D01*
X92781517Y-126260000D01*
X93175483Y-126260000D01*
X93561878Y-126183141D01*
X93925855Y-126032377D01*
X94253426Y-125813501D01*
X94532001Y-125534926D01*
X94750877Y-125207355D01*
X94901641Y-124843378D01*
X94941044Y-124645286D01*
X96770758Y-126475000D01*
X92043597Y-126475000D01*
X91965000Y-126467259D01*
X91886403Y-126475000D01*
X91651345Y-126498151D01*
X91349744Y-126589641D01*
X91071787Y-126738212D01*
X90828155Y-126938155D01*
X90778051Y-126999207D01*
X89974942Y-127802316D01*
X89913141Y-127491622D01*
X89762377Y-127127645D01*
X89543501Y-126800074D01*
X89264926Y-126521499D01*
X88937355Y-126302623D01*
X88573378Y-126151859D01*
X88186983Y-126075000D01*
X87793017Y-126075000D01*
X87406622Y-126151859D01*
X87042645Y-126302623D01*
X86715074Y-126521499D01*
X86446573Y-126790000D01*
X78867716Y-126790000D01*
X79381116Y-126276600D01*
X79455530Y-126215530D01*
X79699211Y-125918604D01*
X79880282Y-125579843D01*
X79991785Y-125212267D01*
X80008435Y-125043213D01*
X80029435Y-124830000D01*
X80020000Y-124734205D01*
X80020000Y-124708349D01*
X80046859Y-124843378D01*
X80197623Y-125207355D01*
X80416499Y-125534926D01*
X80695074Y-125813501D01*
X81022645Y-126032377D01*
X81386622Y-126183141D01*
X81773017Y-126260000D01*
X82166983Y-126260000D01*
X82553378Y-126183141D01*
X82917355Y-126032377D01*
X83244926Y-125813501D01*
X83523501Y-125534926D01*
X83742377Y-125207355D01*
X83893141Y-124843378D01*
X83970000Y-124456983D01*
X83970000Y-124063017D01*
X83893141Y-123676622D01*
X83742377Y-123312645D01*
X83526792Y-122990000D01*
X83742377Y-122667355D01*
X83893141Y-122303378D01*
X83970000Y-121916983D01*
X83970000Y-121523017D01*
X83893141Y-121136622D01*
X83742377Y-120772645D01*
X83560201Y-120500000D01*
X84121406Y-120500000D01*
X84200000Y-120507741D01*
X84278594Y-120500000D01*
X84278597Y-120500000D01*
X84513655Y-120476849D01*
X84815256Y-120385359D01*
X85093213Y-120236788D01*
X85336845Y-120036845D01*
X85386953Y-119975788D01*
X86330882Y-119031859D01*
X86436499Y-119189926D01*
X86715074Y-119468501D01*
X87042645Y-119687377D01*
X87406622Y-119838141D01*
X87793017Y-119915000D01*
X88186983Y-119915000D01*
X88573378Y-119838141D01*
X88937355Y-119687377D01*
X89264926Y-119468501D01*
X89543501Y-119189926D01*
X89762377Y-118862355D01*
X89913141Y-118498378D01*
X89990000Y-118111983D01*
X89990000Y-117718017D01*
X89913141Y-117331622D01*
X89862764Y-117210000D01*
X89881655Y-117210000D01*
X89926123Y-117317355D01*
X90144999Y-117644926D01*
X90423574Y-117923501D01*
X90751145Y-118142377D01*
X91115122Y-118293141D01*
X91501517Y-118370000D01*
X91895483Y-118370000D01*
X92281878Y-118293141D01*
X92645855Y-118142377D01*
X92973426Y-117923501D01*
X93252001Y-117644926D01*
X93470877Y-117317355D01*
X93621641Y-116953378D01*
X93698500Y-116566983D01*
X93698500Y-116173017D01*
X93691932Y-116140000D01*
X105732310Y-116140000D01*
X105725978Y-116142623D01*
G04 #@! TA.AperFunction,Conductor*
D35*
G36*
X105725978Y-116142623D02*
G01*
X105398407Y-116361499D01*
X105119832Y-116640074D01*
X104900956Y-116967645D01*
X104750192Y-117331622D01*
X104673333Y-117718017D01*
X104673333Y-118111983D01*
X104750192Y-118498378D01*
X104900956Y-118862355D01*
X105119832Y-119189926D01*
X105398407Y-119468501D01*
X105725978Y-119687377D01*
X106089955Y-119838141D01*
X106476350Y-119915000D01*
X106870316Y-119915000D01*
X107256711Y-119838141D01*
X107620688Y-119687377D01*
X107948259Y-119468501D01*
X108226834Y-119189926D01*
X108445710Y-118862355D01*
X108596474Y-118498378D01*
X108673333Y-118111983D01*
X108673333Y-117718017D01*
X108596474Y-117331622D01*
X108445710Y-116967645D01*
X108226834Y-116640074D01*
X107948259Y-116361499D01*
X107620688Y-116142623D01*
X107614356Y-116140000D01*
X108376568Y-116140000D01*
X108370000Y-116173017D01*
X108370000Y-116566983D01*
X108446859Y-116953378D01*
X108597623Y-117317355D01*
X108816499Y-117644926D01*
X109095074Y-117923501D01*
X109422645Y-118142377D01*
X109786622Y-118293141D01*
X110173017Y-118370000D01*
X110566983Y-118370000D01*
X110953378Y-118293141D01*
X111317355Y-118142377D01*
X111610000Y-117946838D01*
X111610001Y-119454258D01*
X111350064Y-119714194D01*
X110807000Y-119714194D01*
X110571759Y-119737363D01*
X110345558Y-119805981D01*
X110137090Y-119917409D01*
X109954366Y-120067366D01*
X109804409Y-120250090D01*
X109692981Y-120458558D01*
X109624363Y-120684759D01*
X109601194Y-120920000D01*
X109601194Y-122520000D01*
X109624363Y-122755241D01*
X109692981Y-122981442D01*
X109804409Y-123189910D01*
X109866268Y-123265285D01*
X109834623Y-123312645D01*
X109683859Y-123676622D01*
X109607000Y-124063017D01*
X109607000Y-124456983D01*
X109625502Y-124550000D01*
X102579998Y-124550000D01*
X102598500Y-124456983D01*
X102598500Y-124063017D01*
X102521641Y-123676622D01*
X102370877Y-123312645D01*
X102155292Y-122990000D01*
X102370877Y-122667355D01*
X102521641Y-122303378D01*
X102598500Y-121916983D01*
X102598500Y-121523017D01*
X102521641Y-121136622D01*
X102370877Y-120772645D01*
X102152001Y-120445074D01*
X101873426Y-120166499D01*
X101545855Y-119947623D01*
X101181878Y-119796859D01*
X100795483Y-119720000D01*
X100401517Y-119720000D01*
X100015122Y-119796859D01*
X99651145Y-119947623D01*
X99323574Y-120166499D01*
X99044999Y-120445074D01*
X98826123Y-120772645D01*
X98675359Y-121136622D01*
X98598500Y-121523017D01*
X98598500Y-121916983D01*
X98675359Y-122303378D01*
X98826123Y-122667355D01*
X99041708Y-122990000D01*
X98826123Y-123312645D01*
X98675359Y-123676622D01*
X98645911Y-123824669D01*
X95465453Y-120644212D01*
X95415345Y-120583155D01*
X95171713Y-120383212D01*
X94893756Y-120234641D01*
X94726865Y-120184015D01*
X94631134Y-120067366D01*
X94448410Y-119917409D01*
X94239942Y-119805981D01*
X94013741Y-119737363D01*
X93778500Y-119714194D01*
X92178500Y-119714194D01*
X91943259Y-119737363D01*
X91717058Y-119805981D01*
X91508590Y-119917409D01*
X91325866Y-120067366D01*
X91175909Y-120250090D01*
X91064481Y-120458558D01*
X90995863Y-120684759D01*
X90972694Y-120920000D01*
X90972694Y-122520000D01*
X90995863Y-122755241D01*
X91064481Y-122981442D01*
X91175909Y-123189910D01*
X91237768Y-123265285D01*
X91206123Y-123312645D01*
X91055359Y-123676622D01*
X90978500Y-124063017D01*
X90978500Y-124456983D01*
X91055359Y-124843378D01*
X91206123Y-125207355D01*
X91424999Y-125534926D01*
X91703574Y-125813501D01*
X92031145Y-126032377D01*
X92395122Y-126183141D01*
X92781517Y-126260000D01*
X93175483Y-126260000D01*
X93561878Y-126183141D01*
X93925855Y-126032377D01*
X94253426Y-125813501D01*
X94532001Y-125534926D01*
X94750877Y-125207355D01*
X94901641Y-124843378D01*
X94941044Y-124645286D01*
X96770758Y-126475000D01*
X92043597Y-126475000D01*
X91965000Y-126467259D01*
X91886403Y-126475000D01*
X91651345Y-126498151D01*
X91349744Y-126589641D01*
X91071787Y-126738212D01*
X90828155Y-126938155D01*
X90778051Y-126999207D01*
X89974942Y-127802316D01*
X89913141Y-127491622D01*
X89762377Y-127127645D01*
X89543501Y-126800074D01*
X89264926Y-126521499D01*
X88937355Y-126302623D01*
X88573378Y-126151859D01*
X88186983Y-126075000D01*
X87793017Y-126075000D01*
X87406622Y-126151859D01*
X87042645Y-126302623D01*
X86715074Y-126521499D01*
X86446573Y-126790000D01*
X78867716Y-126790000D01*
X79381116Y-126276600D01*
X79455530Y-126215530D01*
X79699211Y-125918604D01*
X79880282Y-125579843D01*
X79991785Y-125212267D01*
X80008435Y-125043213D01*
X80029435Y-124830000D01*
X80020000Y-124734205D01*
X80020000Y-124708349D01*
X80046859Y-124843378D01*
X80197623Y-125207355D01*
X80416499Y-125534926D01*
X80695074Y-125813501D01*
X81022645Y-126032377D01*
X81386622Y-126183141D01*
X81773017Y-126260000D01*
X82166983Y-126260000D01*
X82553378Y-126183141D01*
X82917355Y-126032377D01*
X83244926Y-125813501D01*
X83523501Y-125534926D01*
X83742377Y-125207355D01*
X83893141Y-124843378D01*
X83970000Y-124456983D01*
X83970000Y-124063017D01*
X83893141Y-123676622D01*
X83742377Y-123312645D01*
X83526792Y-122990000D01*
X83742377Y-122667355D01*
X83893141Y-122303378D01*
X83970000Y-121916983D01*
X83970000Y-121523017D01*
X83893141Y-121136622D01*
X83742377Y-120772645D01*
X83560201Y-120500000D01*
X84121406Y-120500000D01*
X84200000Y-120507741D01*
X84278594Y-120500000D01*
X84278597Y-120500000D01*
X84513655Y-120476849D01*
X84815256Y-120385359D01*
X85093213Y-120236788D01*
X85336845Y-120036845D01*
X85386953Y-119975788D01*
X86330882Y-119031859D01*
X86436499Y-119189926D01*
X86715074Y-119468501D01*
X87042645Y-119687377D01*
X87406622Y-119838141D01*
X87793017Y-119915000D01*
X88186983Y-119915000D01*
X88573378Y-119838141D01*
X88937355Y-119687377D01*
X89264926Y-119468501D01*
X89543501Y-119189926D01*
X89762377Y-118862355D01*
X89913141Y-118498378D01*
X89990000Y-118111983D01*
X89990000Y-117718017D01*
X89913141Y-117331622D01*
X89862764Y-117210000D01*
X89881655Y-117210000D01*
X89926123Y-117317355D01*
X90144999Y-117644926D01*
X90423574Y-117923501D01*
X90751145Y-118142377D01*
X91115122Y-118293141D01*
X91501517Y-118370000D01*
X91895483Y-118370000D01*
X92281878Y-118293141D01*
X92645855Y-118142377D01*
X92973426Y-117923501D01*
X93252001Y-117644926D01*
X93470877Y-117317355D01*
X93621641Y-116953378D01*
X93698500Y-116566983D01*
X93698500Y-116173017D01*
X93691932Y-116140000D01*
X105732310Y-116140000D01*
X105725978Y-116142623D01*
G37*
G04 #@! TD.AperFunction*
D31*
X72593155Y-92366845D02*
X72654212Y-92416953D01*
X73713051Y-93475793D01*
X73763155Y-93536845D01*
X74006787Y-93736788D01*
X74284744Y-93885359D01*
X74586345Y-93976849D01*
X74821403Y-94000000D01*
X74821406Y-94000000D01*
X74900000Y-94007741D01*
X74978594Y-94000000D01*
X75663171Y-94000000D01*
X75800570Y-94112760D01*
X76156703Y-94303117D01*
X76543130Y-94420338D01*
X76844291Y-94450000D01*
X77295709Y-94450000D01*
X77596870Y-94420338D01*
X77983297Y-94303117D01*
X78170001Y-94203322D01*
X78170000Y-98061406D01*
X78162259Y-98140000D01*
X78170000Y-98218594D01*
X78170000Y-98218596D01*
X78193151Y-98453654D01*
X78236589Y-98596849D01*
X78284641Y-98755255D01*
X78433212Y-99033213D01*
X78504635Y-99120241D01*
X78633155Y-99276845D01*
X78694212Y-99326953D01*
X81533051Y-102165793D01*
X81583155Y-102226845D01*
X81667171Y-102295795D01*
X81826786Y-102426788D01*
X82010050Y-102524744D01*
X82104744Y-102575359D01*
X82406345Y-102666849D01*
X82641403Y-102690000D01*
X82641405Y-102690000D01*
X82719999Y-102697741D01*
X82798593Y-102690000D01*
X89778058Y-102690000D01*
X89769194Y-102780000D01*
X89769194Y-103980000D01*
X89797167Y-104264014D01*
X89880011Y-104537113D01*
X90014542Y-104788802D01*
X90056475Y-104839898D01*
X89921883Y-105091703D01*
X89804662Y-105478130D01*
X89765081Y-105880000D01*
X89804662Y-106281870D01*
X89921883Y-106668297D01*
X90112240Y-107024430D01*
X90368417Y-107336583D01*
X90680570Y-107592760D01*
X91036703Y-107783117D01*
X91423130Y-107900338D01*
X91724291Y-107930000D01*
X91737259Y-107930000D01*
X95373051Y-111565793D01*
X95423155Y-111626845D01*
X95589322Y-111763214D01*
X95666787Y-111826788D01*
X95944744Y-111975359D01*
X96246345Y-112066849D01*
X96560000Y-112097741D01*
X96638597Y-112090000D01*
X111797258Y-112090000D01*
X110947259Y-112940000D01*
X91128597Y-112940000D01*
X91050000Y-112932259D01*
X90971403Y-112940000D01*
X90736345Y-112963151D01*
X90434744Y-113054641D01*
X90156787Y-113203212D01*
X89913155Y-113403155D01*
X89863047Y-113464212D01*
X89317259Y-114010000D01*
X87568597Y-114010000D01*
X87490000Y-114002259D01*
X87411403Y-114010000D01*
X87176345Y-114033151D01*
X86874744Y-114124641D01*
X86596787Y-114273212D01*
X86353155Y-114473155D01*
X86303052Y-114534206D01*
X83537259Y-117300000D01*
X77248593Y-117300000D01*
X77169999Y-117292259D01*
X77091405Y-117300000D01*
X77091403Y-117300000D01*
X76856345Y-117323151D01*
X76554744Y-117414641D01*
X76373606Y-117511461D01*
X76276786Y-117563212D01*
X76230320Y-117601346D01*
X76033155Y-117763155D01*
X75983052Y-117824206D01*
X74093065Y-119714194D01*
X73550000Y-119714194D01*
X73314759Y-119737363D01*
X73088558Y-119805981D01*
X72880090Y-119917409D01*
X72720000Y-120048791D01*
X72720000Y-118982741D01*
X73349070Y-118353672D01*
X73653378Y-118293141D01*
X74017355Y-118142377D01*
X74344926Y-117923501D01*
X74623501Y-117644926D01*
X74842377Y-117317355D01*
X74993141Y-116953378D01*
X75070000Y-116566983D01*
X75070000Y-116173017D01*
X74993141Y-115786622D01*
X74842377Y-115422645D01*
X74623501Y-115095074D01*
X74344926Y-114816499D01*
X74017355Y-114597623D01*
X73653378Y-114446859D01*
X73266983Y-114370000D01*
X72873017Y-114370000D01*
X72486622Y-114446859D01*
X72122645Y-114597623D01*
X71795074Y-114816499D01*
X71516499Y-115095074D01*
X71297623Y-115422645D01*
X71146859Y-115786622D01*
X71086328Y-116090930D01*
X70044207Y-117133052D01*
X69983156Y-117183155D01*
X69933053Y-117244206D01*
X69783212Y-117426787D01*
X69634641Y-117704745D01*
X69570905Y-117914856D01*
X69543152Y-118006345D01*
X69543108Y-118006788D01*
X69512259Y-118320000D01*
X69520001Y-118398604D01*
X69520000Y-122911406D01*
X69512259Y-122990000D01*
X69513721Y-123004844D01*
X69313378Y-122921859D01*
X68926983Y-122845000D01*
X68533017Y-122845000D01*
X68146622Y-122921859D01*
X68100000Y-122941170D01*
X68100000Y-121561494D01*
X68302760Y-121314430D01*
X68493117Y-120958297D01*
X68610338Y-120571870D01*
X68649919Y-120170000D01*
X68610338Y-119768130D01*
X68493117Y-119381703D01*
X68358525Y-119129898D01*
X68400458Y-119078802D01*
X68534989Y-118827113D01*
X68617833Y-118554014D01*
X68645806Y-118270000D01*
X68645806Y-117070000D01*
X68617833Y-116785986D01*
X68534989Y-116512887D01*
X68400458Y-116261198D01*
X68315304Y-116157437D01*
X74055794Y-110416948D01*
X74116845Y-110366845D01*
X74316788Y-110123213D01*
X74465359Y-109845256D01*
X74556849Y-109543655D01*
X74580000Y-109308597D01*
X74580000Y-109308596D01*
X74587741Y-109230000D01*
X74580000Y-109151403D01*
X74580000Y-106750000D01*
X79406454Y-106750000D01*
X79430590Y-106779410D01*
X79651198Y-106960458D01*
X79902887Y-107094989D01*
X80175986Y-107177833D01*
X80460000Y-107205806D01*
X81960000Y-107205806D01*
X82244014Y-107177833D01*
X82517113Y-107094989D01*
X82768802Y-106960458D01*
X82989410Y-106779410D01*
X83170458Y-106558802D01*
X83304989Y-106307113D01*
X83387833Y-106034014D01*
X83415806Y-105750000D01*
X83415806Y-104550000D01*
X83387833Y-104265986D01*
X83304989Y-103992887D01*
X83170458Y-103741198D01*
X82989410Y-103520590D01*
X82768802Y-103339542D01*
X82517113Y-103205011D01*
X82244014Y-103122167D01*
X81960000Y-103094194D01*
X80460000Y-103094194D01*
X80175986Y-103122167D01*
X79902887Y-103205011D01*
X79651198Y-103339542D01*
X79430590Y-103520590D01*
X79406454Y-103550000D01*
X74212737Y-103550000D01*
X74116845Y-103433155D01*
X74055793Y-103383051D01*
X72846953Y-102174212D01*
X72796845Y-102113155D01*
X72553213Y-101913212D01*
X72275256Y-101764641D01*
X71973655Y-101673151D01*
X71738597Y-101650000D01*
X71738594Y-101650000D01*
X71660000Y-101642259D01*
X71581561Y-101649985D01*
X71616849Y-101533655D01*
X71640000Y-101298597D01*
X71647741Y-101220000D01*
X71640000Y-101141403D01*
X71640000Y-94492992D01*
X71801442Y-94444019D01*
X72009910Y-94332591D01*
X72192634Y-94182634D01*
X72342591Y-93999910D01*
X72454019Y-93791442D01*
X72522637Y-93565241D01*
X72545806Y-93330000D01*
X72545806Y-92309150D01*
X72593155Y-92366845D01*
G04 #@! TA.AperFunction,Conductor*
D35*
G36*
X72593155Y-92366845D02*
G01*
X72654212Y-92416953D01*
X73713051Y-93475793D01*
X73763155Y-93536845D01*
X74006787Y-93736788D01*
X74284744Y-93885359D01*
X74586345Y-93976849D01*
X74821403Y-94000000D01*
X74821406Y-94000000D01*
X74900000Y-94007741D01*
X74978594Y-94000000D01*
X75663171Y-94000000D01*
X75800570Y-94112760D01*
X76156703Y-94303117D01*
X76543130Y-94420338D01*
X76844291Y-94450000D01*
X77295709Y-94450000D01*
X77596870Y-94420338D01*
X77983297Y-94303117D01*
X78170001Y-94203322D01*
X78170000Y-98061406D01*
X78162259Y-98140000D01*
X78170000Y-98218594D01*
X78170000Y-98218596D01*
X78193151Y-98453654D01*
X78236589Y-98596849D01*
X78284641Y-98755255D01*
X78433212Y-99033213D01*
X78504635Y-99120241D01*
X78633155Y-99276845D01*
X78694212Y-99326953D01*
X81533051Y-102165793D01*
X81583155Y-102226845D01*
X81667171Y-102295795D01*
X81826786Y-102426788D01*
X82010050Y-102524744D01*
X82104744Y-102575359D01*
X82406345Y-102666849D01*
X82641403Y-102690000D01*
X82641405Y-102690000D01*
X82719999Y-102697741D01*
X82798593Y-102690000D01*
X89778058Y-102690000D01*
X89769194Y-102780000D01*
X89769194Y-103980000D01*
X89797167Y-104264014D01*
X89880011Y-104537113D01*
X90014542Y-104788802D01*
X90056475Y-104839898D01*
X89921883Y-105091703D01*
X89804662Y-105478130D01*
X89765081Y-105880000D01*
X89804662Y-106281870D01*
X89921883Y-106668297D01*
X90112240Y-107024430D01*
X90368417Y-107336583D01*
X90680570Y-107592760D01*
X91036703Y-107783117D01*
X91423130Y-107900338D01*
X91724291Y-107930000D01*
X91737259Y-107930000D01*
X95373051Y-111565793D01*
X95423155Y-111626845D01*
X95589322Y-111763214D01*
X95666787Y-111826788D01*
X95944744Y-111975359D01*
X96246345Y-112066849D01*
X96560000Y-112097741D01*
X96638597Y-112090000D01*
X111797258Y-112090000D01*
X110947259Y-112940000D01*
X91128597Y-112940000D01*
X91050000Y-112932259D01*
X90971403Y-112940000D01*
X90736345Y-112963151D01*
X90434744Y-113054641D01*
X90156787Y-113203212D01*
X89913155Y-113403155D01*
X89863047Y-113464212D01*
X89317259Y-114010000D01*
X87568597Y-114010000D01*
X87490000Y-114002259D01*
X87411403Y-114010000D01*
X87176345Y-114033151D01*
X86874744Y-114124641D01*
X86596787Y-114273212D01*
X86353155Y-114473155D01*
X86303052Y-114534206D01*
X83537259Y-117300000D01*
X77248593Y-117300000D01*
X77169999Y-117292259D01*
X77091405Y-117300000D01*
X77091403Y-117300000D01*
X76856345Y-117323151D01*
X76554744Y-117414641D01*
X76373606Y-117511461D01*
X76276786Y-117563212D01*
X76230320Y-117601346D01*
X76033155Y-117763155D01*
X75983052Y-117824206D01*
X74093065Y-119714194D01*
X73550000Y-119714194D01*
X73314759Y-119737363D01*
X73088558Y-119805981D01*
X72880090Y-119917409D01*
X72720000Y-120048791D01*
X72720000Y-118982741D01*
X73349070Y-118353672D01*
X73653378Y-118293141D01*
X74017355Y-118142377D01*
X74344926Y-117923501D01*
X74623501Y-117644926D01*
X74842377Y-117317355D01*
X74993141Y-116953378D01*
X75070000Y-116566983D01*
X75070000Y-116173017D01*
X74993141Y-115786622D01*
X74842377Y-115422645D01*
X74623501Y-115095074D01*
X74344926Y-114816499D01*
X74017355Y-114597623D01*
X73653378Y-114446859D01*
X73266983Y-114370000D01*
X72873017Y-114370000D01*
X72486622Y-114446859D01*
X72122645Y-114597623D01*
X71795074Y-114816499D01*
X71516499Y-115095074D01*
X71297623Y-115422645D01*
X71146859Y-115786622D01*
X71086328Y-116090930D01*
X70044207Y-117133052D01*
X69983156Y-117183155D01*
X69933053Y-117244206D01*
X69783212Y-117426787D01*
X69634641Y-117704745D01*
X69570905Y-117914856D01*
X69543152Y-118006345D01*
X69543108Y-118006788D01*
X69512259Y-118320000D01*
X69520001Y-118398604D01*
X69520000Y-122911406D01*
X69512259Y-122990000D01*
X69513721Y-123004844D01*
X69313378Y-122921859D01*
X68926983Y-122845000D01*
X68533017Y-122845000D01*
X68146622Y-122921859D01*
X68100000Y-122941170D01*
X68100000Y-121561494D01*
X68302760Y-121314430D01*
X68493117Y-120958297D01*
X68610338Y-120571870D01*
X68649919Y-120170000D01*
X68610338Y-119768130D01*
X68493117Y-119381703D01*
X68358525Y-119129898D01*
X68400458Y-119078802D01*
X68534989Y-118827113D01*
X68617833Y-118554014D01*
X68645806Y-118270000D01*
X68645806Y-117070000D01*
X68617833Y-116785986D01*
X68534989Y-116512887D01*
X68400458Y-116261198D01*
X68315304Y-116157437D01*
X74055794Y-110416948D01*
X74116845Y-110366845D01*
X74316788Y-110123213D01*
X74465359Y-109845256D01*
X74556849Y-109543655D01*
X74580000Y-109308597D01*
X74580000Y-109308596D01*
X74587741Y-109230000D01*
X74580000Y-109151403D01*
X74580000Y-106750000D01*
X79406454Y-106750000D01*
X79430590Y-106779410D01*
X79651198Y-106960458D01*
X79902887Y-107094989D01*
X80175986Y-107177833D01*
X80460000Y-107205806D01*
X81960000Y-107205806D01*
X82244014Y-107177833D01*
X82517113Y-107094989D01*
X82768802Y-106960458D01*
X82989410Y-106779410D01*
X83170458Y-106558802D01*
X83304989Y-106307113D01*
X83387833Y-106034014D01*
X83415806Y-105750000D01*
X83415806Y-104550000D01*
X83387833Y-104265986D01*
X83304989Y-103992887D01*
X83170458Y-103741198D01*
X82989410Y-103520590D01*
X82768802Y-103339542D01*
X82517113Y-103205011D01*
X82244014Y-103122167D01*
X81960000Y-103094194D01*
X80460000Y-103094194D01*
X80175986Y-103122167D01*
X79902887Y-103205011D01*
X79651198Y-103339542D01*
X79430590Y-103520590D01*
X79406454Y-103550000D01*
X74212737Y-103550000D01*
X74116845Y-103433155D01*
X74055793Y-103383051D01*
X72846953Y-102174212D01*
X72796845Y-102113155D01*
X72553213Y-101913212D01*
X72275256Y-101764641D01*
X71973655Y-101673151D01*
X71738597Y-101650000D01*
X71738594Y-101650000D01*
X71660000Y-101642259D01*
X71581561Y-101649985D01*
X71616849Y-101533655D01*
X71640000Y-101298597D01*
X71647741Y-101220000D01*
X71640000Y-101141403D01*
X71640000Y-94492992D01*
X71801442Y-94444019D01*
X72009910Y-94332591D01*
X72192634Y-94182634D01*
X72342591Y-93999910D01*
X72454019Y-93791442D01*
X72522637Y-93565241D01*
X72545806Y-93330000D01*
X72545806Y-92309150D01*
X72593155Y-92366845D01*
G37*
G04 #@! TD.AperFunction*
D31*
X121443151Y-116336346D02*
X121420000Y-116571403D01*
X121412259Y-116650000D01*
X121420000Y-116728594D01*
X121420001Y-117710000D01*
X116968593Y-117710000D01*
X116889999Y-117702259D01*
X116811405Y-117710000D01*
X116811403Y-117710000D01*
X116576345Y-117733151D01*
X116274744Y-117824641D01*
X115996787Y-117973212D01*
X115753155Y-118173155D01*
X115703047Y-118234212D01*
X114924212Y-119013047D01*
X114863155Y-119063155D01*
X114810000Y-119127925D01*
X114810000Y-117332741D01*
X115992742Y-116150000D01*
X121161406Y-116150000D01*
X121240000Y-116157741D01*
X121318594Y-116150000D01*
X121318597Y-116150000D01*
X121505255Y-116131616D01*
X121443151Y-116336346D01*
G04 #@! TA.AperFunction,Conductor*
D35*
G36*
X121443151Y-116336346D02*
G01*
X121420000Y-116571403D01*
X121412259Y-116650000D01*
X121420000Y-116728594D01*
X121420001Y-117710000D01*
X116968593Y-117710000D01*
X116889999Y-117702259D01*
X116811405Y-117710000D01*
X116811403Y-117710000D01*
X116576345Y-117733151D01*
X116274744Y-117824641D01*
X115996787Y-117973212D01*
X115753155Y-118173155D01*
X115703047Y-118234212D01*
X114924212Y-119013047D01*
X114863155Y-119063155D01*
X114810000Y-119127925D01*
X114810000Y-117332741D01*
X115992742Y-116150000D01*
X121161406Y-116150000D01*
X121240000Y-116157741D01*
X121318594Y-116150000D01*
X121318597Y-116150000D01*
X121505255Y-116131616D01*
X121443151Y-116336346D01*
G37*
G04 #@! TD.AperFunction*
D31*
X130850000Y-107703518D02*
X130850000Y-107741907D01*
X130928780Y-108137963D01*
X131083314Y-108511039D01*
X131307661Y-108846799D01*
X131593201Y-109132339D01*
X131928961Y-109356686D01*
X132302037Y-109511220D01*
X132698093Y-109590000D01*
X133101907Y-109590000D01*
X133497963Y-109511220D01*
X133871039Y-109356686D01*
X134170000Y-109156927D01*
X134468961Y-109356686D01*
X134652235Y-109432601D01*
X134625262Y-109454738D01*
X134493155Y-109563155D01*
X134443052Y-109624206D01*
X131057259Y-113010000D01*
X125138597Y-113010000D01*
X125060000Y-113002259D01*
X125049443Y-113003299D01*
X125142742Y-112910000D01*
X127221406Y-112910000D01*
X127300000Y-112917741D01*
X127378594Y-112910000D01*
X127378597Y-112910000D01*
X127613655Y-112886849D01*
X127915256Y-112795359D01*
X128193213Y-112646788D01*
X128436845Y-112446845D01*
X128486953Y-112385788D01*
X130181948Y-110690794D01*
X130331788Y-110508213D01*
X130480359Y-110230256D01*
X130571849Y-109928655D01*
X130602742Y-109615000D01*
X130571849Y-109301345D01*
X130509999Y-109097454D01*
X130509999Y-107689999D01*
X130712739Y-107689999D01*
X130850000Y-107703518D01*
G04 #@! TA.AperFunction,Conductor*
D35*
G36*
X130850000Y-107703518D02*
G01*
X130850000Y-107741907D01*
X130928780Y-108137963D01*
X131083314Y-108511039D01*
X131307661Y-108846799D01*
X131593201Y-109132339D01*
X131928961Y-109356686D01*
X132302037Y-109511220D01*
X132698093Y-109590000D01*
X133101907Y-109590000D01*
X133497963Y-109511220D01*
X133871039Y-109356686D01*
X134170000Y-109156927D01*
X134468961Y-109356686D01*
X134652235Y-109432601D01*
X134625262Y-109454738D01*
X134493155Y-109563155D01*
X134443052Y-109624206D01*
X131057259Y-113010000D01*
X125138597Y-113010000D01*
X125060000Y-113002259D01*
X125049443Y-113003299D01*
X125142742Y-112910000D01*
X127221406Y-112910000D01*
X127300000Y-112917741D01*
X127378594Y-112910000D01*
X127378597Y-112910000D01*
X127613655Y-112886849D01*
X127915256Y-112795359D01*
X128193213Y-112646788D01*
X128436845Y-112446845D01*
X128486953Y-112385788D01*
X130181948Y-110690794D01*
X130331788Y-110508213D01*
X130480359Y-110230256D01*
X130571849Y-109928655D01*
X130602742Y-109615000D01*
X130571849Y-109301345D01*
X130509999Y-109097454D01*
X130509999Y-107689999D01*
X130712739Y-107689999D01*
X130850000Y-107703518D01*
G37*
G04 #@! TD.AperFunction*
D31*
X123230000Y-107338093D02*
X123230000Y-107741907D01*
X123308780Y-108137963D01*
X123463314Y-108511039D01*
X123687661Y-108846799D01*
X123973201Y-109132339D01*
X124308961Y-109356686D01*
X124682037Y-109511220D01*
X125078093Y-109590000D01*
X125481907Y-109590000D01*
X125877963Y-109511220D01*
X126251039Y-109356686D01*
X126550000Y-109156927D01*
X126848961Y-109356686D01*
X126949095Y-109398163D01*
X126637259Y-109710000D01*
X124558594Y-109710000D01*
X124480000Y-109702259D01*
X124401406Y-109710000D01*
X124401403Y-109710000D01*
X124166345Y-109733151D01*
X123923601Y-109806787D01*
X123864744Y-109824641D01*
X123586786Y-109973212D01*
X123493598Y-110049690D01*
X123343155Y-110173155D01*
X123293052Y-110234206D01*
X120577259Y-112950000D01*
X120382742Y-112950000D01*
X121275793Y-112056949D01*
X121336845Y-112006845D01*
X121425674Y-111898607D01*
X121536788Y-111763214D01*
X121609678Y-111626845D01*
X121685359Y-111485256D01*
X121776849Y-111183655D01*
X121800000Y-110948597D01*
X121800000Y-110948595D01*
X121807741Y-110870001D01*
X121800000Y-110791407D01*
X121800000Y-108835333D01*
X122016686Y-108511039D01*
X122171220Y-108137963D01*
X122250000Y-107741907D01*
X122250000Y-107338093D01*
X122178466Y-106978466D01*
X122538093Y-107050000D01*
X122941907Y-107050000D01*
X123301534Y-106978466D01*
X123230000Y-107338093D01*
G04 #@! TA.AperFunction,Conductor*
D35*
G36*
X123230000Y-107338093D02*
G01*
X123230000Y-107741907D01*
X123308780Y-108137963D01*
X123463314Y-108511039D01*
X123687661Y-108846799D01*
X123973201Y-109132339D01*
X124308961Y-109356686D01*
X124682037Y-109511220D01*
X125078093Y-109590000D01*
X125481907Y-109590000D01*
X125877963Y-109511220D01*
X126251039Y-109356686D01*
X126550000Y-109156927D01*
X126848961Y-109356686D01*
X126949095Y-109398163D01*
X126637259Y-109710000D01*
X124558594Y-109710000D01*
X124480000Y-109702259D01*
X124401406Y-109710000D01*
X124401403Y-109710000D01*
X124166345Y-109733151D01*
X123923601Y-109806787D01*
X123864744Y-109824641D01*
X123586786Y-109973212D01*
X123493598Y-110049690D01*
X123343155Y-110173155D01*
X123293052Y-110234206D01*
X120577259Y-112950000D01*
X120382742Y-112950000D01*
X121275793Y-112056949D01*
X121336845Y-112006845D01*
X121425674Y-111898607D01*
X121536788Y-111763214D01*
X121609678Y-111626845D01*
X121685359Y-111485256D01*
X121776849Y-111183655D01*
X121800000Y-110948597D01*
X121800000Y-110948595D01*
X121807741Y-110870001D01*
X121800000Y-110791407D01*
X121800000Y-108835333D01*
X122016686Y-108511039D01*
X122171220Y-108137963D01*
X122250000Y-107741907D01*
X122250000Y-107338093D01*
X122178466Y-106978466D01*
X122538093Y-107050000D01*
X122941907Y-107050000D01*
X123301534Y-106978466D01*
X123230000Y-107338093D01*
G37*
G04 #@! TD.AperFunction*
D31*
X143550000Y-107338093D02*
X143550000Y-107741907D01*
X143628780Y-108137963D01*
X143783314Y-108511039D01*
X143940690Y-108746569D01*
X143587259Y-109100000D01*
X141859138Y-109100000D01*
X142112339Y-108846799D01*
X142336686Y-108511039D01*
X142491220Y-108137963D01*
X142570000Y-107741907D01*
X142570000Y-107338093D01*
X142498466Y-106978466D01*
X142858093Y-107050000D01*
X143261907Y-107050000D01*
X143621534Y-106978466D01*
X143550000Y-107338093D01*
G04 #@! TA.AperFunction,Conductor*
D35*
G36*
X143550000Y-107338093D02*
G01*
X143550000Y-107741907D01*
X143628780Y-108137963D01*
X143783314Y-108511039D01*
X143940690Y-108746569D01*
X143587259Y-109100000D01*
X141859138Y-109100000D01*
X142112339Y-108846799D01*
X142336686Y-108511039D01*
X142491220Y-108137963D01*
X142570000Y-107741907D01*
X142570000Y-107338093D01*
X142498466Y-106978466D01*
X142858093Y-107050000D01*
X143261907Y-107050000D01*
X143621534Y-106978466D01*
X143550000Y-107338093D01*
G37*
G04 #@! TD.AperFunction*
D31*
X112378093Y-107050000D02*
X112650101Y-107050000D01*
X112791421Y-107191320D01*
X112835262Y-107244740D01*
X113048439Y-107419691D01*
X113070000Y-107431216D01*
X113070000Y-107540000D01*
X112302742Y-107540000D01*
X112087310Y-107324568D01*
X112018466Y-106978466D01*
X112378093Y-107050000D01*
G04 #@! TA.AperFunction,Conductor*
D35*
G36*
X112378093Y-107050000D02*
G01*
X112650101Y-107050000D01*
X112791421Y-107191320D01*
X112835262Y-107244740D01*
X113048439Y-107419691D01*
X113070000Y-107431216D01*
X113070000Y-107540000D01*
X112302742Y-107540000D01*
X112087310Y-107324568D01*
X112018466Y-106978466D01*
X112378093Y-107050000D01*
G37*
G04 #@! TD.AperFunction*
D31*
X138470000Y-104798093D02*
X138470000Y-105201907D01*
X138541534Y-105561534D01*
X138181907Y-105490000D01*
X137778093Y-105490000D01*
X137418466Y-105561534D01*
X137490000Y-105201907D01*
X137490000Y-104798093D01*
X137468499Y-104690000D01*
X138491501Y-104690000D01*
X138470000Y-104798093D01*
G04 #@! TA.AperFunction,Conductor*
D35*
G36*
X138470000Y-104798093D02*
G01*
X138470000Y-105201907D01*
X138541534Y-105561534D01*
X138181907Y-105490000D01*
X137778093Y-105490000D01*
X137418466Y-105561534D01*
X137490000Y-105201907D01*
X137490000Y-104798093D01*
X137468499Y-104690000D01*
X138491501Y-104690000D01*
X138470000Y-104798093D01*
G37*
G04 #@! TD.AperFunction*
D31*
X127747602Y-97365770D02*
X127640000Y-97906724D01*
X127640000Y-98458276D01*
X127747602Y-98999230D01*
X127958672Y-99508797D01*
X128265098Y-99967396D01*
X128557702Y-100260000D01*
X119358597Y-100260000D01*
X119280000Y-100252259D01*
X119201403Y-100260000D01*
X118966345Y-100283151D01*
X118664744Y-100374641D01*
X118386787Y-100523212D01*
X118143155Y-100723155D01*
X118093047Y-100784212D01*
X118020000Y-100857259D01*
X118020000Y-99572741D01*
X120662742Y-96930000D01*
X127928104Y-96930000D01*
X127747602Y-97365770D01*
G04 #@! TA.AperFunction,Conductor*
D35*
G36*
X127747602Y-97365770D02*
G01*
X127640000Y-97906724D01*
X127640000Y-98458276D01*
X127747602Y-98999230D01*
X127958672Y-99508797D01*
X128265098Y-99967396D01*
X128557702Y-100260000D01*
X119358597Y-100260000D01*
X119280000Y-100252259D01*
X119201403Y-100260000D01*
X118966345Y-100283151D01*
X118664744Y-100374641D01*
X118386787Y-100523212D01*
X118143155Y-100723155D01*
X118093047Y-100784212D01*
X118020000Y-100857259D01*
X118020000Y-99572741D01*
X120662742Y-96930000D01*
X127928104Y-96930000D01*
X127747602Y-97365770D01*
G37*
G04 #@! TD.AperFunction*
D31*
X166530000Y-95542741D02*
X166530001Y-100260000D01*
X155182298Y-100260000D01*
X155474902Y-99967396D01*
X155781328Y-99508797D01*
X155992398Y-98999230D01*
X156100000Y-98458276D01*
X156100000Y-97906724D01*
X155992398Y-97365770D01*
X155781328Y-96856203D01*
X155474902Y-96397604D01*
X155084896Y-96007598D01*
X154626297Y-95701172D01*
X154116730Y-95490102D01*
X153575776Y-95382500D01*
X153024224Y-95382500D01*
X152483270Y-95490102D01*
X151973703Y-95701172D01*
X151515104Y-96007598D01*
X151125098Y-96397604D01*
X150818672Y-96856203D01*
X150607602Y-97365770D01*
X150500000Y-97906724D01*
X150500000Y-98458276D01*
X150607602Y-98999230D01*
X150818672Y-99508797D01*
X151125098Y-99967396D01*
X151417702Y-100260000D01*
X132322298Y-100260000D01*
X132614902Y-99967396D01*
X132921328Y-99508797D01*
X133132398Y-98999230D01*
X133240000Y-98458276D01*
X133240000Y-97906724D01*
X133132398Y-97365770D01*
X132951896Y-96930000D01*
X140321406Y-96930000D01*
X140400000Y-96937741D01*
X140478594Y-96930000D01*
X140478597Y-96930000D01*
X140713655Y-96906849D01*
X141015256Y-96815359D01*
X141293213Y-96666788D01*
X141536845Y-96466845D01*
X141586953Y-96405788D01*
X149295795Y-88696947D01*
X149356845Y-88646845D01*
X149458357Y-88523152D01*
X149556788Y-88403214D01*
X149705359Y-88125256D01*
X149732178Y-88036845D01*
X149796849Y-87823655D01*
X149820000Y-87588597D01*
X149820000Y-87588595D01*
X149827741Y-87510001D01*
X149820000Y-87431403D01*
X149820000Y-86836792D01*
X149842632Y-86814160D01*
X150071248Y-86472013D01*
X150228721Y-86091839D01*
X150309000Y-85688249D01*
X150309000Y-85276751D01*
X151211000Y-85276751D01*
X151211000Y-85688249D01*
X151291279Y-86091839D01*
X151448752Y-86472013D01*
X151677368Y-86814160D01*
X151968340Y-87105132D01*
X152310487Y-87333748D01*
X152690661Y-87491221D01*
X153094251Y-87571500D01*
X153505749Y-87571500D01*
X153909339Y-87491221D01*
X154289513Y-87333748D01*
X154631660Y-87105132D01*
X154922632Y-86814160D01*
X155151248Y-86472013D01*
X155308721Y-86091839D01*
X155389000Y-85688249D01*
X155389000Y-85276751D01*
X155308721Y-84873161D01*
X155151248Y-84492987D01*
X154922632Y-84150840D01*
X154631660Y-83859868D01*
X154289513Y-83631252D01*
X153909339Y-83473779D01*
X153505749Y-83393500D01*
X153094251Y-83393500D01*
X152690661Y-83473779D01*
X152310487Y-83631252D01*
X151968340Y-83859868D01*
X151677368Y-84150840D01*
X151448752Y-84492987D01*
X151291279Y-84873161D01*
X151211000Y-85276751D01*
X150309000Y-85276751D01*
X150228721Y-84873161D01*
X150071248Y-84492987D01*
X149842632Y-84150840D01*
X149551660Y-83859868D01*
X149209513Y-83631252D01*
X148829339Y-83473779D01*
X148425749Y-83393500D01*
X148014251Y-83393500D01*
X147610661Y-83473779D01*
X147282860Y-83609559D01*
X147287741Y-83559999D01*
X147280000Y-83481403D01*
X147256849Y-83246345D01*
X147165359Y-82944744D01*
X147016788Y-82666787D01*
X146816845Y-82423155D01*
X146755788Y-82373047D01*
X146632751Y-82250010D01*
X153237269Y-82250010D01*
X166530000Y-95542741D01*
G04 #@! TA.AperFunction,Conductor*
D35*
G36*
X166530000Y-95542741D02*
G01*
X166530001Y-100260000D01*
X155182298Y-100260000D01*
X155474902Y-99967396D01*
X155781328Y-99508797D01*
X155992398Y-98999230D01*
X156100000Y-98458276D01*
X156100000Y-97906724D01*
X155992398Y-97365770D01*
X155781328Y-96856203D01*
X155474902Y-96397604D01*
X155084896Y-96007598D01*
X154626297Y-95701172D01*
X154116730Y-95490102D01*
X153575776Y-95382500D01*
X153024224Y-95382500D01*
X152483270Y-95490102D01*
X151973703Y-95701172D01*
X151515104Y-96007598D01*
X151125098Y-96397604D01*
X150818672Y-96856203D01*
X150607602Y-97365770D01*
X150500000Y-97906724D01*
X150500000Y-98458276D01*
X150607602Y-98999230D01*
X150818672Y-99508797D01*
X151125098Y-99967396D01*
X151417702Y-100260000D01*
X132322298Y-100260000D01*
X132614902Y-99967396D01*
X132921328Y-99508797D01*
X133132398Y-98999230D01*
X133240000Y-98458276D01*
X133240000Y-97906724D01*
X133132398Y-97365770D01*
X132951896Y-96930000D01*
X140321406Y-96930000D01*
X140400000Y-96937741D01*
X140478594Y-96930000D01*
X140478597Y-96930000D01*
X140713655Y-96906849D01*
X141015256Y-96815359D01*
X141293213Y-96666788D01*
X141536845Y-96466845D01*
X141586953Y-96405788D01*
X149295795Y-88696947D01*
X149356845Y-88646845D01*
X149458357Y-88523152D01*
X149556788Y-88403214D01*
X149705359Y-88125256D01*
X149732178Y-88036845D01*
X149796849Y-87823655D01*
X149820000Y-87588597D01*
X149820000Y-87588595D01*
X149827741Y-87510001D01*
X149820000Y-87431403D01*
X149820000Y-86836792D01*
X149842632Y-86814160D01*
X150071248Y-86472013D01*
X150228721Y-86091839D01*
X150309000Y-85688249D01*
X150309000Y-85276751D01*
X151211000Y-85276751D01*
X151211000Y-85688249D01*
X151291279Y-86091839D01*
X151448752Y-86472013D01*
X151677368Y-86814160D01*
X151968340Y-87105132D01*
X152310487Y-87333748D01*
X152690661Y-87491221D01*
X153094251Y-87571500D01*
X153505749Y-87571500D01*
X153909339Y-87491221D01*
X154289513Y-87333748D01*
X154631660Y-87105132D01*
X154922632Y-86814160D01*
X155151248Y-86472013D01*
X155308721Y-86091839D01*
X155389000Y-85688249D01*
X155389000Y-85276751D01*
X155308721Y-84873161D01*
X155151248Y-84492987D01*
X154922632Y-84150840D01*
X154631660Y-83859868D01*
X154289513Y-83631252D01*
X153909339Y-83473779D01*
X153505749Y-83393500D01*
X153094251Y-83393500D01*
X152690661Y-83473779D01*
X152310487Y-83631252D01*
X151968340Y-83859868D01*
X151677368Y-84150840D01*
X151448752Y-84492987D01*
X151291279Y-84873161D01*
X151211000Y-85276751D01*
X150309000Y-85276751D01*
X150228721Y-84873161D01*
X150071248Y-84492987D01*
X149842632Y-84150840D01*
X149551660Y-83859868D01*
X149209513Y-83631252D01*
X148829339Y-83473779D01*
X148425749Y-83393500D01*
X148014251Y-83393500D01*
X147610661Y-83473779D01*
X147282860Y-83609559D01*
X147287741Y-83559999D01*
X147280000Y-83481403D01*
X147256849Y-83246345D01*
X147165359Y-82944744D01*
X147016788Y-82666787D01*
X146816845Y-82423155D01*
X146755788Y-82373047D01*
X146632751Y-82250010D01*
X153237269Y-82250010D01*
X166530000Y-95542741D01*
G37*
G04 #@! TD.AperFunction*
D31*
X128345194Y-86371500D02*
X128368363Y-86606741D01*
X128436981Y-86832942D01*
X128548409Y-87041410D01*
X128698366Y-87224134D01*
X128729884Y-87250000D01*
X119668597Y-87250000D01*
X119590000Y-87242259D01*
X119511403Y-87250000D01*
X119276345Y-87273151D01*
X118974744Y-87364641D01*
X118696787Y-87513212D01*
X118453155Y-87713155D01*
X118403052Y-87774206D01*
X111657259Y-94520000D01*
X89532742Y-94520000D01*
X88756953Y-93744212D01*
X88706845Y-93683155D01*
X88463213Y-93483212D01*
X88185256Y-93334641D01*
X87883655Y-93243151D01*
X87648597Y-93220000D01*
X87648594Y-93220000D01*
X87570000Y-93212259D01*
X87491406Y-93220000D01*
X86939543Y-93220000D01*
X87081220Y-92877963D01*
X87160000Y-92481907D01*
X87160000Y-92078093D01*
X87081220Y-91682037D01*
X87040154Y-91582895D01*
X87993051Y-92535793D01*
X88043155Y-92596845D01*
X88104205Y-92646947D01*
X88286787Y-92796788D01*
X88564744Y-92945359D01*
X88866345Y-93036849D01*
X89180000Y-93067741D01*
X89258597Y-93060000D01*
X89974667Y-93060000D01*
X90298961Y-93276686D01*
X90672037Y-93431220D01*
X91068093Y-93510000D01*
X91471907Y-93510000D01*
X91867963Y-93431220D01*
X92241039Y-93276686D01*
X92576799Y-93052339D01*
X92862339Y-92766799D01*
X93086686Y-92431039D01*
X93241220Y-92057963D01*
X93320000Y-91661907D01*
X93320000Y-91258093D01*
X93241220Y-90862037D01*
X93086686Y-90488961D01*
X92886927Y-90190000D01*
X93086686Y-89891039D01*
X93157533Y-89720000D01*
X113581406Y-89720000D01*
X113660000Y-89727741D01*
X113738594Y-89720000D01*
X113738597Y-89720000D01*
X113973655Y-89696849D01*
X114275256Y-89605359D01*
X114553213Y-89456788D01*
X114796845Y-89256845D01*
X114846953Y-89195788D01*
X118692699Y-85350043D01*
X128345194Y-85350043D01*
X128345194Y-86371500D01*
G04 #@! TA.AperFunction,Conductor*
D35*
G36*
X128345194Y-86371500D02*
G01*
X128368363Y-86606741D01*
X128436981Y-86832942D01*
X128548409Y-87041410D01*
X128698366Y-87224134D01*
X128729884Y-87250000D01*
X119668597Y-87250000D01*
X119590000Y-87242259D01*
X119511403Y-87250000D01*
X119276345Y-87273151D01*
X118974744Y-87364641D01*
X118696787Y-87513212D01*
X118453155Y-87713155D01*
X118403052Y-87774206D01*
X111657259Y-94520000D01*
X89532742Y-94520000D01*
X88756953Y-93744212D01*
X88706845Y-93683155D01*
X88463213Y-93483212D01*
X88185256Y-93334641D01*
X87883655Y-93243151D01*
X87648597Y-93220000D01*
X87648594Y-93220000D01*
X87570000Y-93212259D01*
X87491406Y-93220000D01*
X86939543Y-93220000D01*
X87081220Y-92877963D01*
X87160000Y-92481907D01*
X87160000Y-92078093D01*
X87081220Y-91682037D01*
X87040154Y-91582895D01*
X87993051Y-92535793D01*
X88043155Y-92596845D01*
X88104205Y-92646947D01*
X88286787Y-92796788D01*
X88564744Y-92945359D01*
X88866345Y-93036849D01*
X89180000Y-93067741D01*
X89258597Y-93060000D01*
X89974667Y-93060000D01*
X90298961Y-93276686D01*
X90672037Y-93431220D01*
X91068093Y-93510000D01*
X91471907Y-93510000D01*
X91867963Y-93431220D01*
X92241039Y-93276686D01*
X92576799Y-93052339D01*
X92862339Y-92766799D01*
X93086686Y-92431039D01*
X93241220Y-92057963D01*
X93320000Y-91661907D01*
X93320000Y-91258093D01*
X93241220Y-90862037D01*
X93086686Y-90488961D01*
X92886927Y-90190000D01*
X93086686Y-89891039D01*
X93157533Y-89720000D01*
X113581406Y-89720000D01*
X113660000Y-89727741D01*
X113738594Y-89720000D01*
X113738597Y-89720000D01*
X113973655Y-89696849D01*
X114275256Y-89605359D01*
X114553213Y-89456788D01*
X114796845Y-89256845D01*
X114846953Y-89195788D01*
X118692699Y-85350043D01*
X128345194Y-85350043D01*
X128345194Y-86371500D01*
G37*
G04 #@! TD.AperFunction*
D31*
X84894568Y-86707310D02*
X86360000Y-88172742D01*
X86360001Y-90161397D01*
X86352259Y-90240000D01*
X86376780Y-90488961D01*
X86383152Y-90553655D01*
X86401684Y-90614745D01*
X86426852Y-90697714D01*
X86416799Y-90687661D01*
X86081039Y-90463314D01*
X85707963Y-90308780D01*
X85325432Y-90232690D01*
X84530000Y-89437259D01*
X84530000Y-86634793D01*
X84894568Y-86707310D01*
G04 #@! TA.AperFunction,Conductor*
D35*
G36*
X84894568Y-86707310D02*
G01*
X86360000Y-88172742D01*
X86360001Y-90161397D01*
X86352259Y-90240000D01*
X86376780Y-90488961D01*
X86383152Y-90553655D01*
X86401684Y-90614745D01*
X86426852Y-90697714D01*
X86416799Y-90687661D01*
X86081039Y-90463314D01*
X85707963Y-90308780D01*
X85325432Y-90232690D01*
X84530000Y-89437259D01*
X84530000Y-86634793D01*
X84894568Y-86707310D01*
G37*
G04 #@! TD.AperFunction*
M02*
