M48
; DRILL file {KiCad (5.1.10)-1} date 01/04/22 01:40:46
; FORMAT={-:-/ absolute / inch / decimal}
; #@! TF.CreationDate,2022-01-04T01:40:46+08:00
; #@! TF.GenerationSoftware,Kicad,Pcbnew,(5.1.10)-1
FMAT,2
INCH
T1C0.0315
T2C0.0354
T3C0.0374
T4C0.0394
T5C0.0433
T6C0.0512
T7C0.0598
T8C0.0630
T9C0.0984
T10C0.1181
T11C0.1083
%
G90
G05
T1
X2.7059Y-4.9152
X2.7059Y-5.3152
X2.8768Y-4.5815
X2.9272Y-4.7921
X2.9272Y-4.8921
X3.2272Y-4.7921
X3.2272Y-4.8921
X3.2768Y-4.5815
X3.4642Y-4.6423
X3.4642Y-5.0423
X3.4642Y-5.1402
X3.4642Y-5.5402
X3.6102Y-4.5815
X3.6606Y-4.7921
X3.6606Y-4.8921
X3.9606Y-4.7921
X3.9606Y-4.8921
X4.0102Y-4.5815
X4.1997Y-4.6423
X4.1997Y-5.0423
X4.1997Y-5.1402
X4.1997Y-5.5402
X4.3453Y-4.5815
X4.394Y-4.7921
X4.394Y-4.8921
X4.694Y-4.7921
X4.694Y-4.8921
X4.7453Y-4.5815
X4.9353Y-4.6423
X4.9353Y-5.0423
X4.9353Y-5.1402
X4.9353Y-5.5402
X5.077Y-4.5815
X5.1274Y-4.7921
X5.1274Y-4.8921
X5.4274Y-4.7921
X5.4274Y-4.8921
X5.477Y-4.5815
X5.6709Y-4.6423
X5.6709Y-5.0423
X5.6709Y-5.1402
X5.6709Y-5.5402
X5.8104Y-4.5815
X5.8608Y-4.7921
X5.8608Y-4.8921
X6.1608Y-4.7921
X6.1608Y-4.8921
X6.2104Y-4.5815
X6.3604Y-4.9152
X6.3604Y-5.3152
T2
X1.7228Y-3.8846
X1.7228Y-4.2035
X1.7228Y-4.5224
X1.7228Y-4.8413
X1.7228Y-5.1602
X1.8228Y-3.8846
X1.8228Y-4.2035
X1.8228Y-4.5224
X1.8228Y-4.8413
X1.8228Y-5.1602
T3
X3.0343Y-3.4409
X3.0343Y-3.5394
X3.0343Y-3.6378
X3.0343Y-3.7362
X3.6201Y-4.0701
X3.6201Y-4.1685
X3.6201Y-4.2669
T4
X2.176Y-4.2724
X2.176Y-4.3724
X2.176Y-4.4724
X2.176Y-4.5724
X2.176Y-4.6724
X2.176Y-4.7724
X2.5138Y-5.0661
X2.5138Y-5.1661
X2.5138Y-5.2661
X2.5138Y-5.3661
X2.5138Y-5.4661
X2.5138Y-5.5661
X2.6157Y-4.6327
X2.6157Y-4.7311
X3.1972Y-4.1398
X3.1972Y-4.2382
X3.3508Y-3.3331
X3.3508Y-3.4331
X3.3508Y-3.5331
X3.3508Y-3.6331
X3.3508Y-3.7331
X3.3508Y-3.8331
X3.5933Y-3.4008
X3.5933Y-3.5008
X3.5933Y-3.6008
X3.5933Y-3.7008
X4.2323Y-4.1339
X4.2323Y-4.2339
X4.3323Y-4.1339
X4.3323Y-4.2339
X4.4323Y-4.1339
X4.4323Y-4.2339
X4.5323Y-4.1339
X4.5323Y-4.2339
X4.6323Y-4.1339
X4.6323Y-4.2339
X4.7323Y-4.1339
X4.7323Y-4.2339
X4.8323Y-4.1339
X4.8323Y-4.2339
X4.9323Y-4.1339
X4.9323Y-4.2339
X5.0323Y-4.1339
X5.0323Y-4.2339
X5.1323Y-4.1339
X5.1323Y-4.2339
X5.1354Y-3.3655
X5.2323Y-4.1339
X5.2323Y-4.2339
X5.2354Y-3.3655
X5.3323Y-4.1339
X5.3323Y-4.2339
X5.3354Y-3.3655
X5.4323Y-4.1339
X5.4323Y-4.2339
X5.4354Y-3.3655
X5.5323Y-4.1339
X5.5323Y-4.2339
X5.5354Y-3.3655
X5.6323Y-4.1339
X5.6323Y-4.2339
X5.6354Y-3.3655
X5.7323Y-4.1339
X5.7323Y-4.2339
X5.7354Y-3.3655
X5.8323Y-4.1339
X5.8323Y-4.2339
X5.8354Y-3.3655
X5.9323Y-4.1339
X5.9323Y-4.2339
X5.9354Y-3.3655
X6.0323Y-4.1339
X6.0323Y-4.2339
X6.0354Y-3.3655
X6.1323Y-4.1339
X6.1323Y-4.2339
X6.4925Y-4.5717
X6.4925Y-4.6701
T5
X2.8768Y-5.3402
X2.9768Y-5.1524
X3.0768Y-5.1524
X3.1768Y-5.1524
X3.2768Y-5.3402
X3.6102Y-5.3402
X3.7102Y-5.1524
X3.8102Y-5.1524
X3.9102Y-5.1524
X4.0102Y-5.3402
X4.3436Y-5.3402
X4.4436Y-5.1524
X4.5436Y-5.1524
X4.6436Y-5.1524
X4.7436Y-5.3402
X5.061Y-5.3402
X5.177Y-5.1524
X5.277Y-5.1524
X5.377Y-5.1524
X5.461Y-5.3402
X5.8104Y-5.3402
X5.9104Y-5.1524
X6.0104Y-5.1524
X6.1104Y-5.1524
X6.2104Y-5.3402
T6
X2.6776Y-4.065
X2.6776Y-4.265
T7
X2.9768Y-5.6343
X3.1768Y-5.6343
X3.7102Y-5.6343
X3.9102Y-5.6343
X4.4436Y-5.6343
X4.6436Y-5.6343
X5.177Y-5.6343
X5.377Y-5.6343
X5.9104Y-5.6343
X6.1104Y-5.6343
T8
X2.5213Y-3.6232
X2.6394Y-3.8083
X2.7575Y-3.6232
T9
X5.1354Y-3.8655
X6.0354Y-3.8655
T10
X1.9685Y-3.3465
X1.9685Y-5.7087
X2.4606Y-3.248
X2.4606Y-5.8071
X6.5945Y-3.248
X6.5945Y-5.8071
T11
X4.0406Y-3.2783
X4.0406Y-4.1839
X6.324Y-3.2783
X6.324Y-4.1839
T0
M30
