G04 #@! TF.GenerationSoftware,KiCad,Pcbnew,(5.1.10)-1*
G04 #@! TF.CreationDate,2022-01-04T01:44:35+08:00*
G04 #@! TF.ProjectId,Smart Hydroponic - 1,536d6172-7420-4487-9964-726f706f6e69,rev?*
G04 #@! TF.SameCoordinates,Original*
G04 #@! TF.FileFunction,Legend,Bot*
G04 #@! TF.FilePolarity,Positive*
%FSLAX46Y46*%
G04 Gerber Fmt 4.6, Leading zero omitted, Abs format (unit mm)*
G04 Created by KiCad (PCBNEW (5.1.10)-1) date 2022-01-04 01:44:35*
%MOMM*%
%LPD*%
G01*
G04 APERTURE LIST*
%ADD10C,0.800000*%
G04 APERTURE END LIST*
D10*
X165101428Y-92349047D02*
X164530000Y-92539523D01*
X163577619Y-92539523D01*
X163196666Y-92349047D01*
X163006190Y-92158571D01*
X162815714Y-91777619D01*
X162815714Y-91396666D01*
X163006190Y-91015714D01*
X163196666Y-90825238D01*
X163577619Y-90634761D01*
X164339523Y-90444285D01*
X164720476Y-90253809D01*
X164910952Y-90063333D01*
X165101428Y-89682380D01*
X165101428Y-89301428D01*
X164910952Y-88920476D01*
X164720476Y-88730000D01*
X164339523Y-88539523D01*
X163387142Y-88539523D01*
X162815714Y-88730000D01*
X161101428Y-92539523D02*
X161101428Y-89872857D01*
X161101428Y-90253809D02*
X160910952Y-90063333D01*
X160530000Y-89872857D01*
X159958571Y-89872857D01*
X159577619Y-90063333D01*
X159387142Y-90444285D01*
X159387142Y-92539523D01*
X159387142Y-90444285D02*
X159196666Y-90063333D01*
X158815714Y-89872857D01*
X158244285Y-89872857D01*
X157863333Y-90063333D01*
X157672857Y-90444285D01*
X157672857Y-92539523D01*
X154053809Y-92539523D02*
X154053809Y-90444285D01*
X154244285Y-90063333D01*
X154625238Y-89872857D01*
X155387142Y-89872857D01*
X155768095Y-90063333D01*
X154053809Y-92349047D02*
X154434761Y-92539523D01*
X155387142Y-92539523D01*
X155768095Y-92349047D01*
X155958571Y-91968095D01*
X155958571Y-91587142D01*
X155768095Y-91206190D01*
X155387142Y-91015714D01*
X154434761Y-91015714D01*
X154053809Y-90825238D01*
X152149047Y-92539523D02*
X152149047Y-89872857D01*
X152149047Y-90634761D02*
X151958571Y-90253809D01*
X151768095Y-90063333D01*
X151387142Y-89872857D01*
X151006190Y-89872857D01*
X150244285Y-89872857D02*
X148720476Y-89872857D01*
X149672857Y-88539523D02*
X149672857Y-91968095D01*
X149482380Y-92349047D01*
X149101428Y-92539523D01*
X148720476Y-92539523D01*
X144339523Y-92539523D02*
X144339523Y-88539523D01*
X144339523Y-90444285D02*
X142053809Y-90444285D01*
X142053809Y-92539523D02*
X142053809Y-88539523D01*
X140530000Y-89872857D02*
X139577619Y-92539523D01*
X138625238Y-89872857D02*
X139577619Y-92539523D01*
X139958571Y-93491904D01*
X140149047Y-93682380D01*
X140530000Y-93872857D01*
X135387142Y-92539523D02*
X135387142Y-88539523D01*
X135387142Y-92349047D02*
X135768095Y-92539523D01*
X136530000Y-92539523D01*
X136910952Y-92349047D01*
X137101428Y-92158571D01*
X137291904Y-91777619D01*
X137291904Y-90634761D01*
X137101428Y-90253809D01*
X136910952Y-90063333D01*
X136530000Y-89872857D01*
X135768095Y-89872857D01*
X135387142Y-90063333D01*
X133482380Y-92539523D02*
X133482380Y-89872857D01*
X133482380Y-90634761D02*
X133291904Y-90253809D01*
X133101428Y-90063333D01*
X132720476Y-89872857D01*
X132339523Y-89872857D01*
X130434761Y-92539523D02*
X130815714Y-92349047D01*
X131006190Y-92158571D01*
X131196666Y-91777619D01*
X131196666Y-90634761D01*
X131006190Y-90253809D01*
X130815714Y-90063333D01*
X130434761Y-89872857D01*
X129863333Y-89872857D01*
X129482380Y-90063333D01*
X129291904Y-90253809D01*
X129101428Y-90634761D01*
X129101428Y-91777619D01*
X129291904Y-92158571D01*
X129482380Y-92349047D01*
X129863333Y-92539523D01*
X130434761Y-92539523D01*
X127387142Y-89872857D02*
X127387142Y-93872857D01*
X127387142Y-90063333D02*
X127006190Y-89872857D01*
X126244285Y-89872857D01*
X125863333Y-90063333D01*
X125672857Y-90253809D01*
X125482380Y-90634761D01*
X125482380Y-91777619D01*
X125672857Y-92158571D01*
X125863333Y-92349047D01*
X126244285Y-92539523D01*
X127006190Y-92539523D01*
X127387142Y-92349047D01*
X123196666Y-92539523D02*
X123577619Y-92349047D01*
X123768095Y-92158571D01*
X123958571Y-91777619D01*
X123958571Y-90634761D01*
X123768095Y-90253809D01*
X123577619Y-90063333D01*
X123196666Y-89872857D01*
X122625238Y-89872857D01*
X122244285Y-90063333D01*
X122053809Y-90253809D01*
X121863333Y-90634761D01*
X121863333Y-91777619D01*
X122053809Y-92158571D01*
X122244285Y-92349047D01*
X122625238Y-92539523D01*
X123196666Y-92539523D01*
X120149047Y-89872857D02*
X120149047Y-92539523D01*
X120149047Y-90253809D02*
X119958571Y-90063333D01*
X119577619Y-89872857D01*
X119006190Y-89872857D01*
X118625238Y-90063333D01*
X118434761Y-90444285D01*
X118434761Y-92539523D01*
X116530000Y-92539523D02*
X116530000Y-89872857D01*
X116530000Y-88539523D02*
X116720476Y-88730000D01*
X116530000Y-88920476D01*
X116339523Y-88730000D01*
X116530000Y-88539523D01*
X116530000Y-88920476D01*
X112910952Y-92349047D02*
X113291904Y-92539523D01*
X114053809Y-92539523D01*
X114434761Y-92349047D01*
X114625238Y-92158571D01*
X114815714Y-91777619D01*
X114815714Y-90634761D01*
X114625238Y-90253809D01*
X114434761Y-90063333D01*
X114053809Y-89872857D01*
X113291904Y-89872857D01*
X112910952Y-90063333D01*
X107006190Y-94063333D02*
X107196666Y-93872857D01*
X107577619Y-93301428D01*
X107768095Y-92920476D01*
X107958571Y-92349047D01*
X108149047Y-91396666D01*
X108149047Y-90634761D01*
X107958571Y-89682380D01*
X107768095Y-89110952D01*
X107577619Y-88730000D01*
X107196666Y-88158571D01*
X107006190Y-87968095D01*
X105482380Y-92539523D02*
X105482380Y-88539523D01*
X103006190Y-92539523D02*
X103387142Y-92349047D01*
X103577619Y-92158571D01*
X103768095Y-91777619D01*
X103768095Y-90634761D01*
X103577619Y-90253809D01*
X103387142Y-90063333D01*
X103006190Y-89872857D01*
X102434761Y-89872857D01*
X102053809Y-90063333D01*
X101863333Y-90253809D01*
X101672857Y-90634761D01*
X101672857Y-91777619D01*
X101863333Y-92158571D01*
X102053809Y-92349047D01*
X102434761Y-92539523D01*
X103006190Y-92539523D01*
X100530000Y-88539523D02*
X98244285Y-88539523D01*
X99387142Y-92539523D02*
X99387142Y-88539523D01*
X97291904Y-94063333D02*
X97101428Y-93872857D01*
X96720476Y-93301428D01*
X96530000Y-92920476D01*
X96339523Y-92349047D01*
X96149047Y-91396666D01*
X96149047Y-90634761D01*
X96339523Y-89682380D01*
X96530000Y-89110952D01*
X96720476Y-88730000D01*
X97101428Y-88158571D01*
X97291904Y-87968095D01*
M02*
